SplineFontDB: 3.0
FontName: IndictionUnicode
FullName: Indiction Unicode
FamilyName: Indiction Unicode
Weight: Normal
Copyright: Copyright (c) Vladislav V. Dorosh, Calmius Software, 1996-98, 2002\nDistributed as Indyction UCS as part of CSLTeX, licensed under the LaTeX Project Public License.\nReencoded for Unicode and edited by Aleksandr Andreev, Slavonic Computing Initiative, 2016.\nDistributed as Indiction Unicode under the SIL Open Font License.\n
Version: 001.003
ItalicAngle: 0
UnderlinePosition: -70
UnderlineWidth: 16
Ascent: 800
Descent: 200
LayerCount: 3
Layer: 0 0 "Back"  1
Layer: 1 0 "Fore"  0
Layer: 2 1 "TTF"  0
UniqueID: 4777009
FSType: 0
OS2Version: 0
OS2_WeightWidthSlopeOnly: 0
OS2_UseTypoMetrics: 0
CreationTime: 1291760394
ModificationTime: 1464521903
PfmFamily: 17
TTFWeight: 400
TTFWidth: 5
LineGap: 90
VLineGap: 0
OS2TypoAscent: 0
OS2TypoAOffset: 1
OS2TypoDescent: 0
OS2TypoDOffset: 1
OS2TypoLinegap: 90
OS2WinAscent: 0
OS2WinAOffset: 1
OS2WinDescent: 0
OS2WinDOffset: 1
HheadAscent: 0
HheadAOffset: 1
HheadDescent: 0
HheadDOffset: 1
OS2Vendor: 'PfEd'
Lookup: 4 0 0 "'ccmp' Canonical Composition and Decomposition"  {"'ccmp' Canonical Composition and Decomposition-1"  } ['ccmp' ('DFLT' <'dflt' > 'cyrl' <'dflt' > 'latn' <'dflt' > ) ]
Lookup: 4 0 0 "'ccmp' Precomposed Forms"  {"'ccmp' Precomposed Forms-1"  } ['ccmp' ('DFLT' <'dflt' > 'cyrl' <'dflt' > 'latn' <'dflt' > ) ]
Lookup: 260 0 0 "'mark' Mark Positioning lookup 1"  {"'mark' Mark Positioning lookup 1-1"  } ['mark' ('DFLT' <'dflt' > 'cyrl' <'dflt' > 'latn' <'dflt' > ) ]
Lookup: 262 0 0 "'mkmk' Mark to Mark lookup 0"  {"'mkmk' Mark to Mark lookup 0-1"  } ['mkmk' ('DFLT' <'dflt' > 'cyrl' <'dflt' > 'latn' <'dflt' > ) ]
MarkAttachClasses: 1
DEI: 91125
LangName: 1033 
Encoding: UnicodeFull
Compacted: 1
UnicodeInterp: none
NameList: Adobe Glyph List
DisplaySize: -72
AntiAlias: 1
FitToEm: 1
WinInfo: 126 18 7
BeginPrivate: 9
BlueValues 24 [-15 1 605 621 999 1015]
BlueScale 8 0.039625
BlueShift 1 7
BlueFuzz 1 1

StartChar: .notdef
Encoding: 1114112 -1 0
Width: 1229
Flags: W
HStem: 60 62<472.499 751.489> 1107 59<481.133 754.267>
VStem: 61 62<472.569 750.551> 1109 59<477.701 753.53>
DStem2: 245 291 288 247 0.706598 0.707616<0 982.128>
LayerCount: 3
Fore
SplineSet
1168 613 m 0
 1168 309 920 60 614 60 c 0
 310 60 61 308 61 614 c 0
 61 918 310 1166 613 1166 c 1
 617 1166 l 2
 920 1166 1168 917 1168 613 c 0
939 986 m 1
 853 1061 739 1107 616 1107 c 0
 344 1107 123 886 123 615 c 0
 123 490 168 377 245 291 c 1
 939 986 l 1
1109 615 m 0
 1109 741 1061 855 982 943 c 1
 964 924 618 587 288 247 c 1
 374 168 490 122 616 122 c 0
 887 122 1109 343 1109 615 c 0
EndSplineSet
Validated: 1
EndChar

StartChar: C
Encoding: 67 67 3
Width: 636
Flags: W
HStem: -10 41<277.745 462.261> 451 21G<575 580.5> 621 37<273.726 445.041>
VStem: 37 91<208.164 438.034> 566 33<453.119 496.422>
LayerCount: 3
Fore
SplineSet
37 310 m 0
 37 500 168 658 358 658 c 0
 481 658 526 613 577 613 c 1
 587 558 594 510 599 458 c 1
 591 454 584 451 577 451 c 0
 573 451 570 452 566 453 c 1
 540 539 485 621 347 621 c 0
 295 621 237 593 187 532 c 0
 151 487 128 415 128 329 c 0
 128 183 221 31 356 31 c 0
 449 31 517 62 588 140 c 1
 599 140 606 134 611 125 c 1
 543 36 454 -10 357 -10 c 0
 142 -10 37 136 37 310 c 0
EndSplineSet
Validated: 1
EndChar

StartChar: D
Encoding: 68 68 4
Width: 676
Flags: W
HStem: 0 32<14.0705 89.9433 206.079 413.536> 613 34<14.0015 91.0861 206.921 373.9>
VStem: 106 85<44.3649 600.097> 562 96<179.356 422.825>
LayerCount: 3
Fore
SplineSet
191 84 m 2
 191 52 202 32 300 32 c 0
 441 32 562 82 562 284 c 0
 562 438 491 613 275 613 c 0
 226 613 191 599 191 564 c 2
 191 84 l 2
148 645 m 0
 187 645 242 647 313 647 c 0
 505 647 658 494 658 308 c 0
 658 62 472 0 331 0 c 0
 228 0 186 0 149 0 c 0
 111 0 58 -1 19 -2 c 1
 16 1 14 8 14 14 c 0
 14 21 16 28 19 31 c 1
 89 34 106 39 106 122 c 2
 106 523 l 2
 106 606 89 611 19 614 c 1
 16 617 14 624 14 630 c 0
 14 637 16 644 19 647 c 1
 59 646 112 645 148 645 c 0
EndSplineSet
Validated: 1
EndChar

StartChar: E
Encoding: 69 69 5
Width: 542
Flags: W
HStem: 0 39<198.526 426.897> 0 31<14.0188 87.75> 323 38<190 358.322> 605 40<199.403 397.552> 614 33<14.003 87.75>
VStem: 105 85<45.8954 323 361 596.13> 372 33<250.006 306.925 372.97 417.999 418.002 433.994> 444 33<496 539.828> 493 35<122.114 170.67>
LayerCount: 3
Fore
SplineSet
312 361 m 2x3780
 365 361 370 391 370 408 c 0
 370 411 369 414 369 415 c 0
 369 417 369 418 370 418 c 0
 371 418 372 421 372 429 c 1
 375 432 382 434 388 434 c 0
 395 434 402 432 405 429 c 1
 404 405 403 371 403 343 c 0
 403 309 404 281 405 255 c 1
 402 252 395 250 388 250 c 0
 382 250 375 252 372 255 c 1
 369 300 366 323 281 323 c 2
 190 323 l 1
 190 102 l 2
 190 55 204 39 246 39 c 2
 362 39 l 2xb780
 438 39 473 98 493 170 c 1
 497 171 501 171 505 171 c 0
 513 171 521 169 528 165 c 1
 520 114 505 50 491 0 c 1
 18 0 l 1
 15 3 14 8 14 14 c 0
 14 21 15 28 18 31 c 1
 88 34 105 39 105 122 c 2
 105 523 l 2
 105 606 88 611 18 614 c 1
 15 617 14 624 14 630 c 0
 14 637 15 644 18 647 c 1x6f80
 58 646 116 645 147 645 c 2
 402 645 l 2
 426 645 434 646 451 649 c 0
 454 649 455 648 455 646 c 0
 457 638 472 542 477 501 c 1
 470 497 462 495 453 495 c 0
 450 495 447 496 444 496 c 1
 422 565 406 605 331 605 c 2
 256 605 l 2
 202 605 190 585 190 541 c 2
 190 361 l 1
 312 361 l 2x3780
EndSplineSet
Validated: 1
EndChar

StartChar: G
Encoding: 71 71 6
Width: 690
Flags: W
HStem: -10 36<292.901 496.895> 265 36<444.001 519.492 622.484 665.999> 453 21G<562 584> 622 36<289.601 462.494>
VStem: 37 96<207.975 431.481> 530 85<73.4212 254.935> 575 33<454.148 496.672>
LayerCount: 3
Fore
SplineSet
377 658 m 0xfc
 488 658 525 623 585 613 c 1
 601 541 608 501 608 459 c 1
 598 455 589 453 579 453 c 0
 578 453 576 453 575 453 c 1xfa
 549 539 508 622 363 622 c 0
 246 622 133 502 133 327 c 0
 133 195 217 26 375 26 c 0
 429 26 496 32 530 64 c 1
 530 217 l 2
 530 257 503 261 448 265 c 1
 445 268 444 276 444 283 c 0
 444 290 445 298 448 301 c 1
 492 300 538 299 572 299 c 0
 612 299 637 300 661 301 c 1
 664 298 666 290 666 283 c 0
 666 276 664 268 661 265 c 1
 632 262 615 252 615 217 c 2
 615 101 l 2
 615 90 620 82 631 73 c 1
 563 15 470 -10 352 -10 c 0
 161 -10 37 127 37 307 c 0
 37 527 210 658 377 658 c 0xfc
EndSplineSet
Validated: 1
EndChar

StartChar: H
Encoding: 72 72 7
Width: 728
Flags: W
HStem: -2 33<14.0058 88.75 208.25 281.997 442.003 515.75 635.25 709.994> 321 42<191 533> 614 33<14.0058 88.75 208.25 281.997 442.003 515.75 635.25 709.994>
VStem: 106 85<43.3808 321 363 601.619> 533 85<43.3808 321 363 601.619>
LayerCount: 3
Fore
SplineSet
618 122 m 2
 618 39 635 34 705 31 c 1
 708 28 710 21 710 14 c 0
 710 8 708 1 705 -2 c 1
 661 -1 613 0 576 0 c 0
 539 0 491 -1 446 -2 c 1
 443 1 442 8 442 14 c 0
 442 21 443 28 446 31 c 1
 516 34 533 39 533 122 c 6
 533 321 l 5
 191 321 l 1
 191 122 l 2
 191 39 208 34 278 31 c 1
 281 28 282 21 282 14 c 0
 282 8 281 1 278 -2 c 1
 234 -1 185 0 149 0 c 0
 111 0 63 -1 19 -2 c 1
 16 1 14 8 14 14 c 0
 14 21 16 28 19 31 c 1
 89 34 106 39 106 122 c 2
 106 523 l 2
 106 606 89 611 19 614 c 1
 16 617 14 624 14 630 c 0
 14 637 16 644 19 647 c 1
 57 646 98 645 148 645 c 0
 199 645 240 646 278 647 c 1
 281 644 282 637 282 630 c 0
 282 624 281 617 278 614 c 1
 208 611 191 606 191 523 c 2
 191 363 l 1
 533 363 l 1
 533 523 l 2
 533 606 516 611 446 614 c 1
 443 617 442 624 442 630 c 0
 442 637 443 644 446 647 c 1
 490 646 538 645 575 645 c 0
 613 645 664 646 705 647 c 1
 708 644 710 637 710 630 c 0
 710 624 708 617 705 614 c 1
 635 611 618 606 618 523 c 2
 618 122 l 2
EndSplineSet
Validated: 1
EndChar

StartChar: I
Encoding: 73 73 8
Width: 296
Flags: W
HStem: -2 33<14.0058 88.75 208.25 281.997> 614 33<14.0058 88.75 208.25 281.997>
VStem: 106 85<43.3808 601.619>
LayerCount: 3
Fore
SplineSet
191 122 m 2
 191 39 208 34 278 31 c 1
 281 28 282 21 282 14 c 0
 282 8 281 1 278 -2 c 1
 233 -1 185 0 149 0 c 0
 113 0 64 -1 19 -2 c 1
 16 1 14 8 14 14 c 0
 14 21 16 28 19 31 c 1
 89 34 106 39 106 122 c 2
 106 523 l 2
 106 606 89 611 19 614 c 1
 16 617 14 624 14 630 c 0
 14 637 16 644 19 647 c 1
 66 646 114 645 148 645 c 0
 186 645 234 646 278 647 c 1
 281 644 282 637 282 630 c 0
 282 624 281 617 278 614 c 1
 208 611 191 606 191 523 c 2
 191 122 l 2
EndSplineSet
Validated: 1
EndChar

StartChar: J
Encoding: 74 74 9
Width: 332
Flags: W
HStem: -172 45<-4 94.3163> 614 33<40.003 122.5 242 307.994>
VStem: 141 85<-22.1101 600.635>
LayerCount: 3
Fore
SplineSet
226 523 m 2
 226 103 l 2
 226 -40 168 -92 124 -129 c 0
 83 -164 52 -172 7 -172 c 0
 -15 -172 -68 -154 -68 -118 c 0
 -68 -96 -38 -75 -24 -75 c 0
 1 -75 10 -88 16 -100 c 0
 23 -115 37 -127 56 -127 c 0
 89 -127 141 -99 141 81 c 2
 141 523 l 2
 141 606 124 611 44 614 c 1
 41 617 40 624 40 630 c 0
 40 637 41 644 44 647 c 1
 94 646 147 645 183 645 c 0
 222 645 265 646 303 647 c 1
 306 644 308 637 308 630 c 0
 308 624 306 617 303 614 c 1
 243 611 226 606 226 523 c 2
EndSplineSet
Validated: 1
EndChar

StartChar: K
Encoding: 75 75 10
Width: 646
Flags: W
HStem: 0 31<14.0361 88.75 208.25 281.981 570.068 631.964> 309 38<191 246.681> 614 33<14.0058 88.75 208.25 281.997 402.006 453.412 542.494 619.994>
VStem: 106 85<43.3808 309 347 601.619>
DStem2: 270 386 342 407 0.683941 0.729537<5.11883 277.345> 320 333 274 271 0.644226 -0.764835<-27.2066 342.113>
LayerCount: 3
Fore
SplineSet
191 122 m 2
 191 39 208 34 278 31 c 1
 281 28 282 21 282 14 c 0
 282 8 281 3 278 0 c 1
 263 0 248 0 233 0 c 0
 203 0 174 0 149 0 c 0
 110 0 64 -1 19 -2 c 1
 16 1 14 8 14 14 c 0
 14 21 16 28 19 31 c 1
 89 34 106 39 106 122 c 2
 106 523 l 2
 106 606 89 611 19 614 c 1
 16 617 14 624 14 630 c 0
 14 637 16 644 19 647 c 1
 64 646 110 645 148 645 c 0
 184 645 232 646 278 647 c 1
 281 644 282 637 282 630 c 0
 282 624 281 617 278 614 c 1
 208 611 191 606 191 523 c 2
 191 347 l 1
 226 350 249 363 270 386 c 2
 435 562 l 2
 449 577 454 587 454 594 c 0
 454 609 431 612 407 614 c 1
 404 617 402 624 402 630 c 0
 402 637 404 644 407 647 c 1
 444 646 483 645 520 645 c 0
 552 645 584 646 615 647 c 1
 618 644 620 637 620 630 c 0
 620 624 618 617 615 614 c 1
 575 611 535 607 489 558 c 1
 342 407 l 2
 308 372 307 365 307 358 c 0
 307 350 312 342 320 333 c 2
 539 73 l 2
 570 37 598 34 627 31 c 1
 630 28 632 21 632 14 c 0
 632 8 630 1 627 -2 c 1
 594 -1 560 0 526 0 c 0
 505 0 492 -1 472 -2 c 0
 468 -2 467 1 467 4 c 0
 465 20 451 47 431 73 c 2
 274 271 l 2
 254 297 225 308 191 309 c 1
 191 122 l 2
EndSplineSet
Validated: 1
EndChar

StartChar: L
Encoding: 76 76 11
Width: 521
Flags: W
HStem: -2 33<14.0058 88.75> 0 39<202.367 397.965> 614 33<14.0058 88.75 208.25 281.997>
VStem: 106 85<47.7012 601.619> 474 33<126.656 170>
LayerCount: 3
Fore
SplineSet
149 0 m 2x78
 115 0 58 -1 19 -2 c 1
 16 1 14 8 14 14 c 0
 14 21 16 28 19 31 c 1xb8
 89 34 106 39 106 122 c 2
 106 523 l 2
 106 606 89 611 19 614 c 1
 16 617 14 624 14 630 c 0
 14 637 16 644 19 647 c 1
 65 646 112 645 148 645 c 0
 186 645 233 646 278 647 c 1
 281 644 282 637 282 630 c 0
 282 624 281 617 278 614 c 1
 208 611 191 606 191 523 c 2
 191 109 l 2
 191 58 209 39 248 39 c 2
 311 39 l 2x78
 417 39 454 98 474 170 c 1
 477 170 480 171 483 171 c 0
 492 171 500 169 507 165 c 1
 501 113 491 48 481 -2 c 1xb8
 481 -2 389 0 362 0 c 2
 149 0 l 2x78
EndSplineSet
Validated: 1
EndChar

StartChar: N
Encoding: 78 78 12
Width: 708
Flags: W
HStem: -10 21G<574 589> 0 31<10.0361 77.9982 173.544 241.981> 614 33<18.0058 66.784 464.006 535.302 627.544 695.997>
VStem: 102 49<48.1359 487.989> 556 49<155.008 597.028>
DStem2: 158 645 193 455 0.620566 -0.784154<123.916 626.745>
LayerCount: 3
Fore
SplineSet
554 514 m 2x78
 554 606 539 607 469 614 c 1
 466 617 464 624 464 630 c 0
 464 637 466 644 469 647 c 1
 513 646 559 645 580 645 c 0
 604 645 651 646 692 647 c 1
 695 644 696 637 696 630 c 0
 696 624 695 617 692 614 c 1
 622 607 605 601 605 512 c 2
 605 21 l 2
 605 2 596 -10 582 -10 c 0xb8
 566 -10 553 -1 542 14 c 2
 193 455 l 2
 176 477 165 488 159 488 c 0
 151 488 151 473 151 439 c 2
 151 133 l 2
 151 42 168 38 238 31 c 1
 241 28 242 21 242 14 c 0
 242 8 241 3 238 0 c 1
 224 0 210 0 196 0 c 0
 168 0 142 0 127 0 c 0
 111 0 86 0 58 0 c 0
 44 0 29 0 15 0 c 1
 12 3 10 8 10 14 c 0
 10 21 12 28 15 31 c 1
 85 38 102 44 102 133 c 2
 102 550 l 1
 96 576 66 611 23 614 c 1
 20 617 18 624 18 630 c 0
 18 637 20 644 23 647 c 1
 158 645 l 1
 501 210 l 2
 530 173 545 155 549 155 c 0
 556 155 556 166 556 185 c 2
 554 514 l 2x78
EndSplineSet
Validated: 1
EndChar

StartChar: R
Encoding: 82 82 13
Width: 607
Flags: W
HStem: -10 31<539.651 586.526> -2 33<12.0058 86.75 206.25 279.997> 291 34<189 284.483> 618 34<12.3594 82.8593 178.224 346.32>
VStem: 104 85<43.3809 291 325 601.336> 405 92<398.367 563.649>
DStem2: 364 308 306 253 0.514496 -0.857493<0.00683212 312.16>
LayerCount: 3
Fore
SplineSet
272 618 m 0x3c
 201 618 189 583 189 554 c 2
 189 325 l 1
 237 325 l 2
 334 325 405 353 405 478 c 0
 405 596 333 618 272 618 c 0x3c
189 122 m 2
 189 39 206 34 276 31 c 1
 279 28 280 21 280 14 c 0
 280 8 279 1 276 -2 c 1
 232 -1 185 0 147 0 c 0
 108 0 62 -1 17 -2 c 1
 14 1 12 8 12 14 c 0
 12 21 14 28 17 31 c 1x7c
 87 34 104 39 104 122 c 2
 104 523 l 2
 104 606 87 611 17 614 c 1
 14 617 12 624 12 630 c 0
 12 637 14 644 17 647 c 1
 64 646 111 645 146 645 c 0
 182 645 224 652 271 652 c 0
 334 652 396 649 444 604 c 0
 480 570 497 529 497 479 c 0
 497 374 407 322 364 308 c 1
 490 98 l 2
 516 55 541 21 586 21 c 1
 588 17 589 12 589 7 c 0
 589 4 589 0 587 -3 c 1
 577 -8 560 -10 545 -10 c 0xbc
 485 -10 442 32 413 79 c 2
 306 253 l 2
 292 276 273 291 189 291 c 1
 189 122 l 2
EndSplineSet
Validated: 1
EndChar

StartChar: S
Encoding: 83 83 14
Width: 471
Flags: W
HStem: -10 36<147.65 309.576> 624 34<177.636 305.336>
VStem: 27 33<118.311 169.901> 51 71<451.955 567.919> 360 84<101.184 225.247> 380 32<495.442 538.131>
LayerCount: 3
Fore
SplineSet
392 633 m 1xd8
 402 580 409 550 412 502 c 1
 406 497 398 495 390 495 c 0
 386 495 383 495 380 496 c 1
 360 562 329 624 232 624 c 0
 173 624 122 568 122 512 c 0xd4
 122 428 222 390 282 368 c 0
 364 337 444 290 444 184 c 0
 444 120 408 59 350 23 c 0
 315 1 272 -10 227 -10 c 0
 138 -10 110 13 47 13 c 1
 35 62 31 88 27 165 c 1
 33 168 39 170 46 170 c 0
 51 170 55 169 60 168 c 1xe8
 82 68 142 26 235 26 c 0
 315 26 360 68 360 149 c 0
 360 247 286 275 226 298 c 0
 138 332 51 380 51 485 c 0
 51 591 140 658 241 658 c 0
 339 658 334 641 392 633 c 1xd8
EndSplineSet
Validated: 1
EndChar

StartChar: uniA64A
Encoding: 42570 42570 15
Width: 754
GlyphClass: 2
Flags: HMW
AnchorPoint: "Diacritic" 424 1114 basechar 0
LayerCount: 3
Fore
SplineSet
199 986 m 1
 201 989 202 992 202 996 c 0
 202 1004 195 1011 186 1011 c 0
 176 1011 170 1003 170 995 c 0
 170 989 173 984 177 981 c 1
 181 980 184 979 187 978 c 1
 190 981 194 983 199 986 c 1
693 911 m 1
 704 926 709 945 709 964 c 0
 709 1003 686 1042 647 1042 c 0
 644 1042 640 1042 637 1041 c 1
 623 991 566 1011 520 982 c 0
 476 955 461 835 459 826 c 2
 416 600 l 1
 380 600 353 646 335 710 c 0
 335 713 335 714 336 715 c 0
 349 724 355 740 355 755 c 0
 355 772 348 788 335 794 c 0
 332 795 332 796 332 799 c 0
 332 801 332 804 332 806 c 0
 332 831 313 853 289 853 c 0
 288 853 288 853 287 853 c 0
 283 866 282 878 282 889 c 0
 282 931 305 962 343 975 c 1
 334 993 311 1000 286 1000 c 0
 250 1000 207 985 188 970 c 1
 168 976 139 981 111 981 c 0
 72 981 35 971 33 938 c 1
 102 925 131 865 153 812 c 0
 154 810 154 809 151 807 c 0
 138 800 132 785 132 771 c 0
 132 755 139 740 154 737 c 0
 158 737 158 735 156 731 c 0
 154 727 153 722 153 717 c 0
 153 695 177 671 200 671 c 0
 202 671 204 672 206 672 c 0
 208 672 209 672 210 670 c 0
 224 622 232 580 232 548 c 0
 232 527 229 510 221 500 c 1
 237 487 258 481 280 481 c 0
 308 481 336 491 356 508 c 0
 357 509 359 509 360 508 c 0
 368 503 387 498 395 498 c 0
 398 498 398 496 398 493 c 2
 368 321 l 2
 367 317 364 316 362 318 c 0
 337 337 305 345 272 345 c 0
 194 345 109 294 95 202 c 1
 84 195 77 179 77 162 c 0
 77 147 83 132 95 125 c 1
 115 43 177 3 249 3 c 0
 287 3 327 14 365 36 c 0
 367 37 369 37 370 36 c 0
 417 13 462 3 503 3 c 0
 588 3 656 47 685 120 c 1
 704 128 715 149 715 168 c 0
 715 180 710 191 701 197 c 1
 701 200 702 203 702 206 c 0
 702 272 625 335 539 335 c 0
 513 335 486 329 460 316 c 0
 456 313 453 316 454 321 c 2
 486 492 l 1
 518 497 535 529 535 559 c 0
 535 580 527 601 508 611 c 0
 507 612 507 613 507 616 c 2
 535 771 l 2
 540 803 554 817 567 817 c 0
 581 817 595 800 595 769 c 0
 595 692 620 643 659 635 c 1
 659 640 658 645 658 650 c 0
 658 723 706 750 706 821 c 0
 706 851 695 881 680 891 c 0
 672 897 685 903 688 906 c 0
 689 908 691 910 693 911 c 1
648 650 m 1
 623 661 605 720 605 769 c 0
 605 815 587 835 570 835 c 0
 551 835 531 811 524 771 c 2
 496 611 l 1
 489 602 464 596 445 596 c 0
 438 596 432 597 428 599 c 1
 470 825 l 2
 481 885 494 944 526 974 c 0
 550 996 620 980 646 1031 c 0
 647 1031 648 1031 649 1031 c 0
 679 1031 698 1002 698 969 c 0
 698 940 683 909 648 895 c 1
 680 884 695 857 695 824 c 0
 695 753 648 720 648 650 c 1
325 978 m 1
 285 960 269 921 269 884 c 0
 269 873 270 863 273 853 c 1
 246 829 217 816 182 816 c 0
 175 816 168 816 161 817 c 1
 147 864 105 937 46 945 c 1
 46 964 67 972 95 972 c 0
 129 972 171 960 196 941 c 1
 207 972 257 991 292 991 c 0
 308 991 321 987 325 978 c 1
284 843 m 0
 302 843 322 829 322 811 c 0
 322 784 282 756 256 746 c 0
 235 738 214 733 195 733 c 0
 172 733 144 744 144 772 c 0
 144 788 154 802 165 806 c 1
 171 804 178 803 186 803 c 0
 219 803 264 821 281 843 c 0
 282 843 283 843 284 843 c 0
326 787 m 1
 339 780 344 770 344 760 c 0
 344 744 334 727 322 715 c 1
 322 673 300 653 273 653 c 0
 255 653 236 662 220 680 c 1
 217 680 214 679 211 679 c 0
 187 679 164 695 164 715 c 0
 164 719 165 724 167 728 c 1
 178 726 188 725 199 725 c 0
 254 725 303 752 326 787 c 1
523 558 m 0
 523 513 487 498 446 498 c 0
 413 498 377 508 356 521 c 1
 336 502 309 490 282 490 c 0
 266 490 250 494 235 503 c 1
 241 517 243 535 243 553 c 0
 243 588 234 628 221 662 c 1
 223 662 224 664 225 664 c 0
 235 651 254 643 272 643 c 0
 298 643 324 659 328 698 c 1
 330 698 330 698 331 698 c 0
 355 608 391 587 436 587 c 0
 461 587 484 592 501 601 c 1
 518 596 523 577 523 558 c 0
690 202 m 0
 681 196 661 193 642 193 c 0
 620 193 597 197 587 204 c 1
 583 243 552 284 497 284 c 0
 483 284 467 281 449 275 c 1
 449 284 450 292 450 296 c 1
 477 316 509 325 540 325 c 0
 616 325 690 274 690 205 c 0
 690 204 690 203 690 202 c 0
628 113 m 0
 600 113 561 131 561 159 c 0
 561 176 573 188 585 194 c 1
 600 188 621 184 642 184 c 0
 660 184 678 187 691 192 c 1
 701 184 706 178 706 168 c 0
 706 132 664 113 628 113 c 0
494 175 m 1
 484 155 469 146 452 146 c 0
 430 146 406 162 389 188 c 1
 368 166 340 151 317 151 c 0
 296 151 279 162 272 188 c 1
 276 187 279 187 283 187 c 0
 348 187 371 281 381 337 c 2
 410 492 l 1
 417 490 430 489 443 489 c 0
 453 489 464 490 473 492 c 1
 446 338 l 2
 443 320 439 293 439 267 c 0
 439 224 450 182 494 175 c 1
577 199 m 1
 561 192 553 176 553 161 c 0
 553 149 558 137 567 130 c 1
 552 97 520 83 485 83 c 0
 451 83 414 96 386 120 c 0
 385 122 380 123 378 120 c 0
 362 96 320 73 281 73 c 0
 253 73 227 85 214 119 c 0
 213 122 217 124 219 125 c 0
 228 133 233 147 233 161 c 0
 233 176 227 190 214 199 c 0
 214 200 214 201 214 202 c 0
 214 246 268 284 315 284 c 0
 323 284 352 281 352 272 c 0
 352 226 299 199 266 199 c 0
 263 199 259 200 255 200 c 1
 256 168 282 139 319 139 c 0
 335 139 352 144 370 155 c 1
 374 161 385 170 391 164 c 1
 394 163 396 160 398 158 c 0
 418 142 440 134 459 134 c 0
 487 134 509 151 509 183 c 0
 509 184 509 186 509 187 c 0
 469 192 451 218 451 258 c 0
 451 260 451 262 451 264 c 1
 466 270 481 272 494 272 c 0
 540 272 574 243 577 199 c 1
363 304 m 1
 363 299 359 288 357 284 c 1
 343 290 328 293 313 293 c 0
 262 293 211 259 204 208 c 1
 195 202 177 198 158 198 c 0
 138 198 117 202 106 210 c 1
 127 294 194 334 263 334 c 0
 297 334 333 324 363 304 c 1
668 109 m 1
 628 42 569 11 503 11 c 0
 460 11 414 25 369 50 c 1
 334 25 291 12 250 12 c 0
 185 12 125 45 110 113 c 1
 126 103 142 99 158 99 c 0
 175 99 192 104 206 112 c 1
 222 76 251 62 282 62 c 0
 318 62 357 82 381 107 c 1
 414 85 452 73 486 73 c 0
 524 73 557 87 574 120 c 1
 592 109 609 102 630 102 c 0
 641 102 654 104 668 109 c 1
225 162 m 0
 225 124 184 109 158 109 c 0
 134 109 86 128 86 162 c 0
 86 178 95 193 106 198 c 1
 120 192 138 189 157 189 c 0
 174 189 191 192 203 197 c 1
 215 191 225 177 225 162 c 0
638 729 m 0
 642 762 650 783 650 815 c 0
 650 855 610 886 572 886 c 0
 553 886 531 880 516 862 c 1
 524 895 535 929 560 944 c 0
 588 960 613 950 644 966 c 0
 649 969 649 970 644 969 c 0
 615 957 584 967 556 951 c 1
 521 933 510 874 504 836 c 0
 503 831 510 828 512 833 c 0
 523 869 552 878 574 878 c 0
 606 878 642 856 643 810 c 0
 643 784 636 763 636 734 c 0
 636 733 636 731 636 729 c 0
 636 724 638 724 638 729 c 0
268 960 m 0
 273 962 272 965 267 962 c 0
 236 949 213 913 212 869 c 1
 192 903 156 933 112 945 c 0
 107 946 106 944 111 943 c 0
 158 927 193 889 209 851 c 0
 212 846 219 847 219 852 c 0
 219 853 219 854 219 856 c 0
 219 903 238 944 268 960 c 0
389 554 m 0
 358 560 321 580 299 624 c 0
 296 629 288 624 290 619 c 0
 296 602 300 585 300 569 c 0
 300 549 295 531 283 521 c 0
 278 517 278 515 283 519 c 0
 300 530 308 552 308 577 c 0
 308 583 307 589 306 596 c 1
 330 567 358 554 387 552 c 0
 392 552 393 553 389 554 c 0
459 165 m 0
 464 165 465 166 460 167 c 0
 426 173 406 221 403 259 c 0
 403 264 397 265 396 261 c 0
 385 226 351 177 321 175 c 0
 316 175 316 172 321 172 c 0
 322 172 322 172 323 172 c 0
 351 172 382 209 397 242 c 1
 403 203 424 168 459 165 c 0
571 203 m 1
 567 241 536 266 495 266 c 0
 483 266 470 264 457 259 c 0
 457 258 457 257 457 256 c 0
 457 220 476 198 513 194 c 0
 515 194 516 193 516 190 c 0
 516 188 516 186 516 184 c 0
 516 146 491 126 460 126 c 0
 442 126 421 133 402 146 c 1
 402 138 393 131 385 131 c 0
 377 131 370 138 368 146 c 1
 351 136 334 131 319 131 c 0
 277 131 247 166 247 202 c 0
 247 205 247 208 251 208 c 0
 256 207 261 207 266 207 c 0
 305 207 331 230 343 269 c 1
 334 274 323 276 312 276 c 0
 271 276 221 243 221 204 c 2
 221 204 221 203 221 202 c 0
 234 192 241 176 241 160 c 0
 241 145 235 130 223 122 c 1
 232 92 255 80 281 80 c 0
 316 80 357 102 373 125 c 1
 375 130 387 129 391 125 c 0
 418 103 455 89 488 89 c 0
 519 89 546 100 560 128 c 1
 551 136 546 149 546 161 c 0
 546 177 554 194 571 203 c 1
351 10 m 0
 351 0 358 -4 365 -4 c 0
 373 -4 382 1 382 12 c 0
 382 15 381 18 380 20 c 1
 375 22 370 25 365 27 c 1
 362 25 359 23 355 22 c 1
 353 18 351 14 351 10 c 0
701 880 m 1
 703 879 705 878 707 878 c 0
 716 878 723 888 723 896 c 0
 723 905 716 912 707 912 c 0
 706 912 705 912 703 911 c 1
 700 906 696 900 691 896 c 0
 691 895 691 895 691 894 c 0
 695 890 698 885 701 880 c 1
729 895 m 0
 729 884 719 874 706 874 c 0
 705 874 705 874 704 874 c 1
 710 859 714 840 714 821 c 0
 714 749 665 723 665 649 c 0
 665 643 665 638 666 632 c 0
 666 629 665 628 663 628 c 0
 616 632 590 685 588 769 c 0
 587 791 578 803 567 803 c 0
 557 803 546 793 542 768 c 2
 515 617 l 1
 535 606 543 584 543 561 c 0
 543 527 525 492 492 485 c 1
 462 327 l 1
 487 338 513 343 538 343 c 0
 629 343 709 278 709 210 c 0
 709 206 708 203 708 200 c 1
 718 193 723 181 723 168 c 0
 723 147 710 123 690 114 c 1
 661 40 590 -6 501 -6 c 0
 466 -6 428 1 388 17 c 1
 389 15 389 13 389 11 c 0
 389 -1 380 -10 368 -10 c 0
 356 -10 344 -1 344 11 c 0
 344 13 344 15 345 16 c 1
 312 1 278 -7 247 -7 c 0
 173 -7 110 35 89 119 c 1
 75 128 68 145 68 163 c 0
 68 181 76 200 89 208 c 1
 104 302 191 354 273 354 c 0
 305 354 336 346 362 329 c 1
 390 489 l 1
 387 489 383 490 379 491 c 1
 380 488 381 485 381 482 c 0
 381 469 370 462 359 462 c 0
 348 462 337 468 337 482 c 0
 337 483 337 484 337 485 c 1
 320 476 300 471 280 471 c 0
 255 471 231 479 213 495 c 0
 210 498 210 499 213 501 c 0
 221 509 225 525 225 545 c 0
 225 576 217 618 204 664 c 1
 202 664 201 664 199 664 c 0
 173 664 145 690 145 718 c 0
 145 722 145 727 147 731 c 1
 133 736 125 754 125 772 c 0
 125 789 131 805 144 814 c 1
 122 864 95 921 30 930 c 0
 26 930 26 933 26 936 c 0
 26 975 69 988 114 988 c 0
 133 988 151 986 168 983 c 1
 165 986 164 990 164 994 c 0
 164 1007 173 1016 186 1016 c 0
 198 1016 208 1007 208 994 c 0
 208 993 208 991 208 990 c 1
 229 1000 259 1007 285 1007 c 0
 316 1007 343 998 352 974 c 0
 353 971 352 970 349 969 c 0
 313 957 289 927 289 886 c 0
 289 878 290 869 292 859 c 0
 293 859 293 859 294 859 c 0
 320 859 340 836 340 807 c 0
 340 805 340 803 340 800 c 1
 355 791 363 772 363 753 c 0
 363 736 357 720 343 709 c 1
 362 655 380 610 411 606 c 1
 451 828 l 1
 454 837 471 962 515 989 c 0
 560 1016 618 997 631 1047 c 1
 636 1048 641 1049 646 1049 c 0
 689 1049 717 1007 717 962 c 0
 717 947 714 931 706 917 c 1
 707 917 l 2
 719 917 729 907 729 895 c 0
345 489 m 1
 343 486 343 484 343 481 c 0
 343 473 352 467 360 467 c 0
 368 467 375 471 375 483 c 0
 375 487 374 491 371 494 c 1
 367 495 363 497 359 499 c 1
 355 495 350 492 345 489 c 1
385 136 m 0
 391 136 397 141 397 149 c 0
 397 151 388 157 386 159 c 1
 382 155 378 152 373 149 c 1
 373 141 379 136 385 136 c 0
EndSplineSet
Validated: 1
EndChar

StartChar: Y
Encoding: 89 89 16
Width: 577
Flags: W
HStem: -2 33<150.006 233.5 355.5 437.997> 614 33<0.0535011 59.5087 171.4 225.994 390.006 441.509 512.407 573.994>
VStem: 252 85<44.3649 325.991>
DStem2: 301 354 100 547 0.509909 -0.860228<-272.417 17.2266> 323 352 354 334 0.485643 0.874157<-13.9503 265.997>
LayerCount: 3
Fore
SplineSet
337 122 m 2
 337 39 354 34 434 31 c 1
 437 28 438 21 438 14 c 0
 438 8 437 1 434 -2 c 1
 384 -1 334 0 295 0 c 0
 256 0 204 -1 155 -2 c 1
 152 1 150 8 150 14 c 0
 150 21 152 28 155 31 c 1
 235 34 252 39 252 122 c 2
 252 249 l 2
 252 286 248 296 231 326 c 2
 100 547 l 2
 65 605 48 611 6 614 c 1
 3 617 0 625 0 632 c 0
 0 638 2 644 5 647 c 1
 35 646 68 645 107 645 c 0
 147 645 185 646 221 647 c 1
 224 644 226 637 226 630 c 0
 226 624 224 617 221 614 c 1
 186 612 171 608 171 594 c 0
 171 586 176 575 185 559 c 2
 301 354 l 2
 306 346 310 341 313 341 c 0
 316 341 319 345 323 352 c 2
 434 561 l 2
 440 573 443 582 443 590 c 0
 443 607 426 612 395 614 c 1
 392 617 390 624 390 630 c 0
 390 637 392 644 395 647 c 1
 427 646 463 645 486 645 c 0
 509 645 541 646 569 647 c 1
 572 644 574 637 574 630 c 0
 574 624 572 617 569 614 c 1
 524 610 502 601 474 550 c 2
 354 334 l 2
 338 304 337 288 337 258 c 2
 337 122 l 2
EndSplineSet
Validated: 1
EndChar

StartChar: bracketleft
Encoding: 91 91 17
Width: 297
Flags: W
HStem: -200 19<120 261> 903 19<120 261>
VStem: 63 57<-181 903>
LayerCount: 3
Fore
SplineSet
63 -200 m 1
 63 922 l 1
 261 922 l 1
 261 903 l 1
 120 903 l 1
 120 -181 l 1
 261 -181 l 1
 261 -200 l 1
 63 -200 l 1
EndSplineSet
Validated: 1
EndChar

StartChar: backslash
Encoding: 92 92 18
Width: 555
Flags: W
VStem: 6 55<958 1013> 396 55<-202 -147>
DStem2: 61 1013 6 1013 0.305629 -0.952151<0 1259.25>
LayerCount: 3
Fore
SplineSet
451 -202 m 1
 396 -202 l 1
 6 1013 l 1
 61 1013 l 1
 451 -202 l 1
EndSplineSet
Validated: 1
EndChar

StartChar: bracketright
Encoding: 93 93 19
Width: 297
Flags: W
HStem: -200 19<18 159> 903 19<18 159>
VStem: 159 57<-181 903>
LayerCount: 3
Fore
SplineSet
18 -200 m 1
 18 -181 l 1
 159 -181 l 1
 159 903 l 1
 18 903 l 1
 18 922 l 1
 216 922 l 1
 216 -200 l 1
 18 -200 l 1
EndSplineSet
Validated: 1
EndChar

StartChar: asciicircum
Encoding: 94 94 20
Width: 450
VWidth: 999
Flags: W
HStem: 346 304
VStem: 78 294
DStem2: 78 346 122 346 0.382889 0.923795<16.8471 284.079> 246 650 224 593 0.382889 -0.923795<44.2327 312.23>
LayerCount: 3
Fore
SplineSet
224 593 m 1
 122 346 l 1
 78 346 l 1
 204 650 l 1
 246 650 l 1
 372 346 l 1
 328 346 l 1
 224 593 l 1
EndSplineSet
Validated: 1
EndChar

StartChar: underscore
Encoding: 95 95 21
Width: 375
Flags: W
HStem: 0 96<17.0059 357.994>
VStem: 14 347<1.15037 94.7421>
LayerCount: 3
Fore
SplineSet
329 96 m 2
 356 96 361 74 361 47 c 0
 361 20 356 0 329 0 c 2
 46 0 l 2
 19 0 14 20 14 47 c 0
 14 74 19 96 46 96 c 2
 329 96 l 2
EndSplineSet
Validated: 1
EndChar

StartChar: grave
Encoding: 96 96 22
Width: 196
Flags: W
HStem: 506 211
VStem: 1 182
LayerCount: 3
Fore
SplineSet
147 506 m 1
 1 715 l 2
 0 716 1 716 1 717 c 0
 1 719 2 719 4 719 c 0
 5 719 6 719 7 719 c 2
 72 719 l 1
 183 514 l 2
 184 513 184 512 184 511 c 0
 184 508 183 506 180 506 c 2
 147 506 l 1
EndSplineSet
Validated: 1
EndChar

StartChar: a
Encoding: 97 97 23
Width: 464
Flags: W
HStem: 1 48<323 424.249> 1 41<129.718 227.488> 417 33<132.597 246.783>
VStem: 24 84<61.889 170.445> 44 74<321.838 389.807> 282 78<80.3242 244 275.049 383.119>
DStem2: 190 254 202 223 0.971457 0.237216<-61.8174 87.0019>
LayerCount: 3
Fore
SplineSet
282 244 m 1x74
 202 223 l 2
 128 204 108 158 108 113 c 0
 108 82 130 42 180 42 c 0
 208 42 242 65 268 86 c 0
 276 92 282 99 282 112 c 2
 282 244 l 1x74
118 375 m 0x6c
 118 353 126 355 126 337 c 0
 126 324 108 303 78 303 c 0
 56 303 44 315 44 339 c 0
 44 396 126 450 208 450 c 0
 282 450 360 423 360 281 c 2
 360 134 l 2
 360 88 360 49 390 49 c 0
 402 49 419 59 426 65 c 1
 438 58 442 50 444 38 c 1
 423 18 387 1 348 1 c 0xac
 298 1 288 28 282 59 c 1
 280 59 l 1
 260 43 l 2
 216 9 185 1 150 1 c 0
 80 1 24 27 24 109 c 0x74
 24 177 94 230 190 254 c 2
 276 275 l 2
 278 276 282 280 282 287 c 0
 282 400 234 417 200 417 c 0
 162 417 118 407 118 375 c 0x6c
EndSplineSet
Validated: 1
EndChar

StartChar: b
Encoding: 98 98 24
Width: 471
Flags: W
HStem: 0 34<185.883 292.19> 405 44<199.55 311.679> 651 30<7.63467 68.3801>
VStem: 78 79<57.054 377.15 409 645.885> 370 86<143.468 334.177>
LayerCount: 3
Fore
SplineSet
174 373 m 0
 161 362 157 352 157 331 c 2
 157 81 l 1
 177 56 198 34 229 34 c 0
 324 34 370 120 370 234 c 0
 370 331 320 405 259 405 c 0
 230 405 200 396 174 373 c 0
167 404 m 0
 198 432 236 449 279 449 c 0
 366 449 456 374 456 252 c 0
 456 93 337 0 235 0 c 0
 199 0 170 5 147 25 c 0
 141 29 137 31 134 31 c 0
 129 31 125 28 119 22 c 0
 112 13 102 4 96 -2 c 1
 84 -2 79 2 74 10 c 1
 77 24 78 42 78 81 c 2
 78 569 l 2
 78 653 66 648 14 651 c 1
 9 655 7 666 7 674 c 0
 7 677 7 679 8 681 c 1
 48 684 123 698 148 708 c 1
 157 708 161 705 161 698 c 2
 161 698 157 658 157 593 c 2
 157 409 l 2
 157 400 160 398 167 404 c 0
EndSplineSet
Validated: 1
EndChar

StartChar: c
Encoding: 99 99 25
Width: 407
Flags: W
HStem: -0 49<189.817 318.917> 416 33<181.553 284.443>
VStem: 32 86<133.239 320.572> 304 86<317.317 402.064>
LayerCount: 3
Fore
SplineSet
394 101 m 1
 344 19 290 -0 230 -0 c 0
 104 -0 32 89 32 218 c 0
 32 360 138 449 238 449 c 0
 334 449 390 409 390 354 c 0
 390 323 362 310 342 310 c 0
 320 310 304 319 304 346 c 0
 304 381 292 416 232 416 c 0
 166 416 118 350 118 240 c 0
 118 123 180 49 252 49 c 0
 296 49 338 71 372 115 c 1
 382 115 390 110 394 101 c 1
EndSplineSet
Validated: 1
EndChar

StartChar: d
Encoding: 100 100 26
Width: 507
Flags: W
HStem: 0 47<174.748 270.469> 40 27<434.783 493.987> 414 35<179.076 299.036> 651 30<267 327.38>
VStem: 31 86<118.084 320.695> 337 79<90.6055 383.206 432.001 647.204>
LayerCount: 3
Fore
SplineSet
337 134 m 2xbc
 337 324 l 2
 337 355 334 362 320 378 c 0
 300 401 275 414 239 414 c 0
 219 414 177 411 146 364 c 0
 131 343 117 303 117 231 c 0
 117 106 173 47 227 47 c 0
 252 47 284 63 321 95 c 0
 335 107 337 115 337 134 c 2xbc
327 62 m 0
 278 22 240 0 201 0 c 0xbc
 93 0 31 90 31 213 c 0
 31 287 57 346 100 389 c 1
 140 427 184 449 250 449 c 0
 283 449 324 432 328 432 c 0
 335 432 337 434 337 441 c 2
 337 569 l 2
 337 649 326 651 280 651 c 0
 273 651 l 1
 269 655 266 665 266 673 c 0
 266 676 267 679 267 681 c 1
 307 681 382 698 407 708 c 1
 416 708 420 705 420 698 c 2
 420 698 416 658 416 593 c 2
 416 140 l 2
 416 91 425 67 489 67 c 1
 492 64 494 58 494 53 c 0
 494 48 492 43 489 40 c 1x7c
 428 33 393 18 371 0 c 1
 368 -2 365 -2 362 -2 c 0
 359 -2 356 -2 352 0 c 1
 352 0 344 34 341 59 c 0
 341 66 332 66 327 62 c 0
EndSplineSet
Validated: 1
EndChar

StartChar: e
Encoding: 101 101 27
Width: 438
Flags: W
HStem: 0 49<198.304 328.136> 258 34<122 317.997> 414 33<180.425 283.355>
VStem: 35 84<140.942 258 292 316.625> 318 86<267.5 375.153>
LayerCount: 3
Fore
SplineSet
122 292 m 1
 303 295 l 2
 314 295 318 300 318 309 c 0
 318 393 273 414 235 414 c 0
 211 414 141 405 122 292 c 1
235 0 m 0
 105 0 35 87 35 212 c 0
 35 364 148 447 235 447 c 0
 374 447 404 357 404 273 c 0
 404 262 397 256 385 256 c 2
 119 258 l 1
 119 200 131 154 151 121 c 0
 182 70 224 49 260 49 c 0
 318 49 347 65 384 103 c 1
 396 102 402 97 405 87 c 1
 365 35 311 0 235 0 c 0
EndSplineSet
Validated: 1
EndChar

StartChar: g
Encoding: 103 103 28
Width: 503
Flags: W
HStem: -226 37<158.668 315.924> 0 61<132.565 372.635> 148 31<181.2 282.855> 420 31<173.909 275.228> 429 45<368.916 457.014>
VStem: 32 70<-144.932 -47.0721> 60 82<222.83 374.537> 68 54<67.7785 160.273> 320 80<222.951 378.205> 418 54<-119.4 -36.9344>
LayerCount: 3
Fore
SplineSet
320 291 m 0xf2c0
 320 374 286 420 222 420 c 0
 168 420 142 384 142 314 c 0
 142 250 152 179 236 179 c 0
 272 179 320 198 320 291 c 0xf2c0
132 2 m 1
 104 -33 102 -58 102 -92 c 0xe4c0
 102 -160 186 -189 222 -189 c 0
 312 -189 418 -151 418 -79 c 0
 418 -53 406 -39 366 -17 c 0
 338 -1 296 0 246 0 c 0
 232 0 204 -3 172 -3 c 0
 160 -3 144 -1 132 2 c 1
188 56 m 0
 212 56 260 61 282 61 c 0
 320 61 390 60 428 28 c 0
 458 4 472 -21 472 -53 c 0
 472 -161 326 -226 192 -226 c 0
 114 -226 32 -199 32 -112 c 0xecc0
 32 -69 60 -23 114 9 c 1
 88 22 68 50 68 86 c 0xe9c0
 68 120 84 163 112 187 c 1
 84 214 60 245 60 299 c 0
 60 391 142 451 232 451 c 0xf2c0
 290 451 324 431 336 423 c 1
 362 457 410 474 436 474 c 0
 462 474 482 458 482 437 c 0
 482 417 464 399 444 399 c 0
 434 399 420 409 416 417 c 1
 410 426 404 429 396 429 c 0
 384 429 364 415 356 405 c 1
 386 375 400 348 400 301 c 0
 400 203 318 148 230 148 c 0
 192 148 164 155 140 169 c 1
 128 152 122 131 122 111 c 0xe9c0
 122 68 158 56 188 56 c 0
EndSplineSet
Validated: 1
EndChar

StartChar: h
Encoding: 104 104 29
Width: 532
Flags: W
HStem: -2 33<15.003 75.75 178.875 232.994 312.006 365.637 470.435 527.997> 385 54<252.87 358.235> 641 30<19 79.3801>
VStem: 89 79<40.3962 331.419 358 635.885> 378 79<40.3691 365.456>
LayerCount: 3
Fore
SplineSet
168 286 m 2
 168 122 l 2
 168 39 177 35 228 31 c 1
 231 28 233 21 233 14 c 0
 233 7 231 1 228 -2 c 1
 200 -1 167 -0 129 -0 c 0
 89 -0 52 -1 19 -2 c 1
 16 1 15 7 15 14 c 0
 15 21 16 28 19 31 c 1
 77 35 89 39 89 122 c 2
 89 559 l 2
 89 643 77 638 25 641 c 1
 21 645 18 655 18 663 c 0
 18 666 19 669 19 671 c 1
 59 674 134 688 159 698 c 1
 168 698 172 695 172 688 c 2
 172 688 168 648 168 583 c 2
 168 358 l 2
 168 344 174 354 177 358 c 0
 238 426 298 439 347 439 c 0
 382 439 413 427 430 405 c 0
 454 374 457 326 457 271 c 2
 457 122 l 2
 457 40 468 36 524 31 c 1
 527 28 528 21 528 14 c 0
 528 7 527 1 524 -2 c 1
 491 -1 458 -0 418 -0 c 0
 378 -0 344 -1 316 -2 c 1
 314 1 312 7 312 14 c 0
 312 21 314 28 316 31 c 1
 368 36 378 40 378 122 c 2
 378 274 l 2
 378 304 376 331 366 351 c 0
 355 374 334 385 313 385 c 0
 274 385 223 365 185 328 c 0
 177 319 168 307 168 286 c 2
EndSplineSet
Validated: 1
EndChar

StartChar: i
Encoding: 105 105 30
Width: 283
Flags: W
HStem: -2 33<26.0058 89.25 194.75 257.994> 386 27<36.4015 87.0864> 547 100<101.012 179.458>
VStem: 90 100<558.156 635.282> 102 80<40.3963 377.607>
LayerCount: 3
Fore
SplineSet
90 599 m 0xf0
 90 623 118 647 142 647 c 0
 170 647 190 619 190 595 c 0
 190 574 166 547 138 547 c 0
 114 547 90 573 90 599 c 0xf0
182 122 m 2xe8
 182 39 192 35 254 31 c 1
 256 28 258 21 258 14 c 0
 258 7 256 1 254 -2 c 1
 220 -1 182 0 142 0 c 0
 102 0 64 -1 30 -2 c 1
 28 1 26 7 26 14 c 0
 26 21 28 28 30 31 c 1
 92 36 102 39 102 122 c 2
 102 317 l 2
 102 374 92 381 38 386 c 1
 36 392 34 407 36 413 c 1
 104 422 144 431 172 442 c 1
 180 442 186 439 186 435 c 2
 186 435 182 371 182 321 c 2
 182 122 l 2xe8
EndSplineSet
Validated: 1
EndChar

StartChar: j
Encoding: 106 106 31
Width: 247
Flags: W
HStem: -199 44<-7.5 81.3639> 409 28<38.9751 90.7351> 446 20G<155 182.5> 571 100<103.223 181.84>
VStem: 92 100<581.287 658.75> 106 79<-77.9958 392.587>
LayerCount: 3
Fore
SplineSet
92 623 m 0xf0
 92 647 120 671 144 671 c 0
 171 671 192 643 192 619 c 0
 192 598 168 571 140 571 c 0
 116 571 92 597 92 623 c 0xf0
106 340 m 2xe8
 106 397 95 404 41 409 c 1
 39 415 37 431 39 437 c 1
 108 446 148 455 176 466 c 1
 184 466 189 463 189 459 c 2
 189 459 185 395 185 345 c 2
 185 134 l 2
 185 -55 157 -127 110 -165 c 0
 73 -196 21 -199 0 -199 c 0
 -19 -199 -55 -185 -55 -156 c 0
 -55 -138 -34 -118 -23 -118 c 0
 -1 -118 11 -134 21 -144 c 0
 28 -151 41 -155 52 -155 c 0
 102 -155 106 -32 106 100 c 2
 106 340 l 2xe8
EndSplineSet
Validated: 1
EndChar

StartChar: k
Encoding: 107 107 32
Width: 526
Flags: W
HStem: -2 33<16.0058 75.5 177.625 223.994 446.582 509.994> 398 33<288.003 326.909 407.859 481.994> 641 30<18 78.3801>
VStem: 88 79<39.666 209 234 637.204>
DStem2: 287 239 242 171 0.622392 -0.782705<-15.1298 234.601>
LayerCount: 3
Fore
SplineSet
88 122 m 2
 88 559 l 2
 88 639 77 641 31 641 c 2
 24 641 l 1
 20 645 17 655 17 663 c 0
 17 666 18 669 18 671 c 1
 58 671 133 688 158 698 c 1
 167 698 171 695 171 688 c 2
 171 688 167 648 167 583 c 2
 167 234 l 1
 186 236 213 248 235 265 c 0
 261 284 292 318 315 347 c 0
 320 353 328 364 328 375 c 0
 328 386 320 398 292 398 c 1
 289 401 288 407 288 414 c 0
 288 421 289 428 292 431 c 1
 315 431 352 429 390 429 c 0
 426 429 454 431 477 431 c 1
 480 428 482 421 482 414 c 0
 482 407 480 401 477 398 c 1
 437 398 402 386 372 354 c 2
 284 263 l 2
 280 259 280 257 280 253 c 0
 280 248 283 243 287 239 c 2
 419 73 l 2
 446 39 471 35 505 31 c 1
 508 28 510 21 510 14 c 0
 510 7 508 1 505 -2 c 1
 485 -2 454 -0 423 -0 c 0
 403 -0 381 -2 361 -2 c 0
 358 -2 357 -0 357 3 c 0
 357 14 344 33 315 73 c 2
 242 171 l 2
 230 187 221 196 210 203 c 1
 200 207 186 209 167 209 c 1
 167 122 l 2
 167 39 178 35 219 31 c 1
 222 28 224 21 224 14 c 0
 224 7 222 1 219 -2 c 1
 196 -1 163 -0 128 -0 c 0
 88 -0 54 -1 21 -2 c 1
 18 1 16 7 16 14 c 0
 16 21 18 28 21 31 c 1
 77 35 88 39 88 122 c 2
EndSplineSet
Validated: 1
EndChar

StartChar: l
Encoding: 108 108 33
Width: 266
Flags: W
HStem: -2 33<17.003 80.5 185.5 248.997> 641 30<23.506 83.75>
VStem: 94 78<39.9611 634.264>
LayerCount: 3
Fore
SplineSet
94 122 m 2
 94 559 l 2
 94 634 88 637 30 641 c 1
 25 645 23 655 23 663 c 0
 23 666 23 669 24 671 c 1
 64 674 138 688 164 698 c 1
 172 698 176 695 176 688 c 2
 176 688 172 648 172 583 c 2
 172 122 l 2
 172 39 184 34 244 31 c 1
 248 28 249 21 249 14 c 0
 249 7 248 1 244 -2 c 1
 212 -1 174 -0 134 -0 c 0
 94 -0 56 -1 22 -2 c 1
 18 1 17 7 17 14 c 0
 17 21 18 28 22 31 c 1
 82 34 94 39 94 122 c 2
EndSplineSet
Validated: 1
EndChar

StartChar: n
Encoding: 110 110 34
Width: 566
Flags: W
HStem: -2 33<30.003 90.5404 195.226 247.997 321.003 374.637 479.435 536.997> 385 54<264.655 366.194> 385 28<37.4015 90.4631>
VStem: 104 79<40.3691 331.419 370.116 376.9> 387 79<40.3691 363.48>
LayerCount: 3
Fore
SplineSet
192 358 m 0xb8
 251 426 307 439 356 439 c 0
 391 439 422 427 439 405 c 0
 462 374 466 326 466 271 c 2
 466 122 l 2
 466 40 477 36 533 31 c 1
 536 28 537 21 537 14 c 0
 537 7 536 1 533 -2 c 1
 503 -1 467 0 427 0 c 0
 387 0 355 -1 325 -2 c 1
 322 1 321 7 321 14 c 0
 321 21 322 28 325 31 c 1
 377 36 387 40 387 122 c 2
 387 274 l 2
 387 304 385 331 375 351 c 0
 363 374 342 385 322 385 c 0xd8
 283 385 238 365 200 328 c 0
 192 319 183 307 183 286 c 2
 183 122 l 2
 183 40 193 36 244 31 c 1
 247 28 248 21 248 14 c 0
 248 7 247 1 244 -2 c 1
 214 -1 184 0 144 0 c 0
 104 0 64 -1 34 -2 c 1
 31 1 30 7 30 14 c 0
 30 21 31 28 34 31 c 1
 94 36 104 40 104 122 c 2
 104 317 l 2
 104 375 93 380 39 385 c 1
 37 391 35 407 37 413 c 1
 106 422 132 431 160 442 c 1
 168 442 170 438 172 434 c 0
 177 423 179 385 180 358 c 0
 180 348 186 351 192 358 c 0xb8
EndSplineSet
Validated: 1
EndChar

StartChar: r
Encoding: 114 114 35
Width: 375
Flags: W
HStem: -2 33<22.0058 88.2353 193.674 265.997> 377 62<241.275 323.969> 385 28<34.4015 89.621>
VStem: 101 79<40.3022 324.567 355.498 378.925>
LayerCount: 3
Fore
SplineSet
177 358 m 0xb0
 177 353 182 345 188 356 c 0
 211 395 252 439 299 439 c 0
 341 439 359 410 359 391 c 0
 359 366 336 341 312 341 c 0
 294 341 283 354 276 364 c 0
 268 374 259 377 250 377 c 0xd0
 238 377 215 344 204 328 c 0
 192 310 180 287 180 261 c 2
 180 122 l 2
 180 39 192 31 262 31 c 1
 265 28 266 21 266 14 c 0
 266 7 265 1 262 -2 c 1
 227 -2 181 0 141 0 c 0
 101 0 62 -2 27 -2 c 1
 24 1 22 7 22 14 c 0
 22 21 24 28 27 31 c 1
 89 31 101 39 101 122 c 2
 101 317 l 2
 101 375 90 385 36 385 c 1
 34 391 32 407 34 413 c 1
 103 422 129 431 157 442 c 1
 165 442 167 438 169 434 c 0
 173 423 177 398 177 358 c 0xb0
EndSplineSet
Validated: 1
EndChar

StartChar: s
Encoding: 115 115 36
Width: 368
Flags: W
HStem: 0 33<119.567 234.283> 416 33<147.287 245.66>
VStem: 39 31<94.844 152.964> 53 71<299.261 396.105> 265 76<58.2659 156.32> 287 32<319.039 370.965>
LayerCount: 3
Fore
SplineSet
39 148 m 1xe8
 42 151 49 153 56 153 c 0
 62 153 67 151 70 149 c 1
 83 93 96 33 180 33 c 0
 217 33 265 54 265 103 c 0xe8
 265 146 246 167 163 201 c 0
 86 233 53 264 53 337 c 0
 53 401 120 449 194 449 c 0
 246 449 294 435 325 430 c 1
 325 397 319 360 319 324 c 1
 316 320 308 319 301 319 c 0
 295 319 290 320 287 323 c 1
 274 408 216 416 194 416 c 0
 160 416 124 393 124 352 c 0xd4
 124 297 164 281 224 259 c 0
 292 234 341 194 341 126 c 0
 341 27 238 0 182 0 c 0
 145 0 118 4 91 11 c 0
 84 13 78 13 71 13 c 0
 66 13 56 12 46 10 c 1
 46 52 39 99 39 148 c 1xe8
EndSplineSet
Validated: 1
EndChar

StartChar: uniA64C
Encoding: 42572 42572 38
Width: 1037
GlyphClass: 2
Flags: HW
HStem: -27.6384 7.88838<326.84 370.53 665.142 710.45> -11.0062 139.704<311.776 370.559 663.441 723.203> -4 6<395.146 435.218 599.843 639.947> 10.7201 47.2799<406.723 471.699 566.959 586.393> 137.525 7.52763<329.09 368.418 666.826 706.219> 345.404 7.43835<401.154 472.025 565.641 636.319> 353.87 92.1304<92.5759 129 143 186.1 846.775 895 906.779 942.826> 379 5<509.753 528.247> 457.49 40.2547<72.2264 200.108 837.94 964.309> 510.972 119.632<73.4428 212.742 820.523 961.833> 731 5<292.027 310.219 724.694 743.341> 775.718 7.00153<297.652 314.914> 794.498 43.3408<286.139 327.771 705.969 748.965> 847.405 7.83734<263.561 291.395 743.391 771.54> 912.648 6.71216<263.677 291.831 743.088 771.795> 929.393 32.9133<242.545 315.304 719.848 793.829> 955.982 37.3344<281.123 413.877 624.026 753.137> 970.608 36.5023<218.676 387.792 648.289 820.496> 1003.87 7.45227<361.81 428.3 605.799 674.055> 1015.63 7.76923<247.043 327.157 706.565 788.118>
VStem: 28.0882 7.40376<447.629 498.057 561.393 623.008> 46.1824 188.913<472.464 497.05 537.592 629.869> 46.1824 82.8176<416.751 446> 54 6<365.118 411.548 655 719.028> 69 70<261.542 263.635 385.723 393 674.348 825.53> 143 66.28<235.111 318.245 696.719 864.237> 217.663 6.93036<318.312 411.532 655 828.482> 244.765 8.00058<446.288 498.755> 249.313 8.11876<556.926 611.551 823.266 849.349> 275 5<747.865 766.29> 298.289 72.813<5.36905 111.443> 306 8<868.725 898.28> 325 32.2487<848.403 919.372> 337 49.0984<749.769 796> 367.529 25.1723<849.404 899.948> 399.038 53.5284<754.963 913.236> 426.343 7.73874<148.658 210.348 677.074 714.974> 442 71.6581<118.332 255.835> 454.759 6.31235<942.717 984.321> 461.446 7.51047<793.43 859.802> 493 5<348.681 367.341> 524.159 68.8405<118.683 256.977> 540 5<348.643 367.341> 566.612 6.29108<795.456 856.684> 574.134 5.68665<943.226 982.36> 581.433 57.5284<754.463 911.921> 603.328 6.82343<144.79 215.039 677.036 708.341> 644.809 25.6625<802.345 899.992> 662.898 73.3134<4.80185 103.448> 671 6.34863<301.324 318.262> 680.452 28.5483<848.503 916.423> 722 7<869.591 897.101> 755 5<748.027 766.124> 778.07 6.61658<559.578 608.447 825.431 847.647> 799.083 189.073<451.798 495.306 536.593 629.279> 810.533 6.0481<324.093 410.667 655.331 827.3> 825 71<239.155 239.241 385.723 393 673.769 861.945> 902.44 62.5603<261.542 263.635 385.723 392 674.456 825.512> 974 7<359.945 412.442 654.313 727.01> 999.073 8.00092<447.125 499.921 558.998 623.996>
AnchorPoint: "Diacritic" 520 1114 basechar 0
LayerCount: 3
Fore
SplineSet
811 746 m 0xadfe381408a04d10
 811 837 807 913 756 913 c 0
 739 913 729 899 729 880 c 0
 729 869 741 855 758 855 c 0
 763 855 769 857 775 860 c 1
 781 854 783 846 783 838 c 0
 783 816 767 791 745 781 c 1
 754 776 760 767 760 757 c 0
 760 744 748 731 734 731 c 0
 724 731 715 738 710 747 c 1
 693 705 657 670 606 670 c 0
 604 670 603 671 603 674 c 0
 603 677 603 680 603 683 c 0
 603 738 567 763 567 824 c 0
 567 848 572 878 588 918 c 1
 579 933 574 949 574 965 c 0
 574 985 581 1004 596 1018 c 1
 609 1013 623 1011 636 1011 c 0
 672 1011 710 1023 753 1023 c 0
 757 1023 762 1023 766 1023 c 0
 932 1023 981 826 981 657 c 1
 1000 642 1009 617 1009 592 c 0
 1009 570 1002 549 990 532 c 1
 1001 513 1007 492 1007 473 c 0
 1007 449 999 427 981 409 c 1
 981 224 872 -4 734 -4 c 1
 726 -20 707 -28 688 -28 c 0
 668 -28 648 -19 638 -4 c 1
 587 -4 548 5 518 33 c 1
 487 5 449 -4 397 -4 c 1
 388 -19 368 -28 348 -28 c 0
 329 -28 310 -20 301 -4 c 1
 164 -4 54 224 54 409 c 1
 37 427 28 449 28 472 c 0
 28 492 34 512 46 532 c 1
 33 549 27 571 27 593 c 0
 27 618 36 642 54 657 c 1
 54 826 103 1023 269 1023 c 0
 273 1023 278 1023 282 1023 c 0
 325 1023 362 1011 398 1011 c 0
 412 1011 425 1013 438 1018 c 1
 453 1004 461 983 461 963 c 0
 461 947 457 932 448 918 c 1
 463 879 469 849 469 825 c 0
 469 763 433 738 433 683 c 0
 433 680 433 677 433 674 c 0
 433 671 432 670 429 670 c 0
 379 670 342 705 325 747 c 1
 321 738 311 731 301 731 c 0
 288 731 275 744 275 757 c 0
 275 767 282 776 290 780 c 1
 268 790 251 815 251 837 c 0
 251 845 254 854 260 860 c 1
 266 857 272 855 277 855 c 0
 294 855 306 869 306 880 c 0
 306 899 296 913 279 913 c 0
 228 913 225 834 225 739 c 0
 225 713 225 685 225 657 c 1
 246 640 257 611 257 583 c 0xadfe392d0bba5d30
 257 563 252 544 239 529 c 1
 247 508 253 488 253 470 c 0
 253 447 245 427 225 409 c 1
 225 294 236 141 303 122 c 1
 313 138 331 145 348 145 c 0
 367 145 386 136 396 120 c 1
 417 124 426 148 426 177 c 0
 426 225 401 287 358 299 c 1
 358 340 394 353 435 353 c 0
 457 353 479 349 496 345 c 1
 494 349 493 353 493 358 c 0
 493 372 504 384 519 384 c 0
 534 384 545 372 545 358 c 0
 545 353 544 349 542 345 c 1
 559 349 581 353 602 353 c 0
 641 353 677 342 677 305 c 0
 677 303 677 301 677 299 c 1
 635 287 608 225 608 177 c 0
 608 148 618 124 639 120 c 1
 649 136 669 145 688 145 c 0
 705 145 723 138 733 122 c 1
 799 141 810 294 810 409 c 1
 790 427 782 447 782 469 c 0
 782 488 788 508 797 529 c 1
 784 544 778 563 778 583 c 0
 778 611 790 640 810 657 c 1
 810 687 811 717 811 746 c 0xadfe381408a04d10
519 379 m 0
 508 379 498 369 498 358 c 0
 498 352 501 346 506 342 c 1
 511 340 515 339 519 337 c 1
 523 339 527 341 532 342 c 1
 537 346 540 352 540 358 c 0
 540 369 530 379 519 379 c 0
519 146 m 1
 530 102 567 58 631 58 c 0
 637 58 637 67 631 67 c 0
 559 67 524 131 524 187 c 0
 524 230 545 272 585 289 c 1
 593 291 589 294 583 291 c 0
 550 274 528 243 519 209 c 1
 510 243 488 274 455 291 c 0
 449 294 446 292 453 289 c 0
 493 271 514 228 514 185 c 0
 514 130 480 67 407 67 c 0
 401 67 401 58 407 58 c 0x9cfe180404400c10
 471 58 508 101 519 146 c 1
266 72 m 0
 226 79 149 195 149 313 c 0
 149 320 139 320 139 313 c 0x8cfe188400000c10
 139 190 224 69 263 63 c 1
 269 61 272 71 266 72 c 0
202 467 m 1
 204 470 203 473 198 471 c 0
 182 462 160 457 137 457 c 0
 113 457 90 462 76 471 c 0
 72 474 69 472 74 467 c 0
 88 455 107 446 129 446 c 1
 130 425 134 398 135 386 c 0
 135 380 142 380 142 386 c 0
 142 389 141 393 141 397 c 0
 141 411 143 430 143 446 c 1x8efe1a4400000c10
 165 447 187 455 202 467 c 1
359 930 m 1
 382 912 393 870 393 839 c 0x8cff5844b0000c10
 393 810 386 786 386 763 c 0
 386 759 386 754 387 750 c 1
 389 745 391 745 390 750 c 0
 389 754 389 757 389 761 c 0
 389 786 399 814 399 847 c 0
 399 895 378 931 342 954 c 1
 352 952 362 952 371 952 c 0
 390 952 406 955 413 965 c 0
 417 970 414 970 411 965 c 0
 406 958 394 956 380 956 c 0x8cfe980450000c10
 363 956 343 959 325 962 c 1
 312 968 298 971 283 971 c 0
 151 971 135 808 135 697 c 0
 135 689 135 681 135 674 c 0
 135 669 143 669 143 674 c 0
 143 780 147 951 271 962 c 0
 274 962 277 962 279 962 c 0
 303 962 323 955 341 944 c 1
 352 931 357 911 357 892 c 0
 357 864 346 837 327 832 c 0
 322 831 322 827 327 828 c 0
 352 834 368 863 368 894 c 0x8cff5844b0000c10
 368 906 365 919 359 930 c 1
899 313 m 0
 899 320 889 320 889 313 c 0
 878 195 812 79 772 72 c 0
 766 71 768 61 775 63 c 0
 814 69 888 190 899 313 c 0
964 467 m 0
 969 472 966 474 961 471 c 0
 947 462 924 457 900 457 c 0
 878 457 856 462 840 471 c 0
 835 473 834 470 836 467 c 1
 851 455 873 447 895 446 c 1
 895 429 896 409 896 395 c 0
 896 391 896 388 896 386 c 0
 896 380 902 380 902 386 c 0
 904 398 907 425 909 446 c 1x8efe180400000c90
 931 447 950 455 964 467 c 0
696 954 m 1
 660 931 639 895 639 847 c 0
 639 814 649 786 649 761 c 0
 649 757 649 754 648 750 c 0
 647 745 649 745 650 750 c 0
 651 755 651 760 651 765 c 0
 651 787 645 811 645 839 c 0
 645 870 656 912 679 930 c 1
 673 919 670 906 670 894 c 0
 670 863 686 834 711 828 c 0
 715 827 715 831 711 832 c 0
 691 837 680 864 680 891 c 0
 680 911 686 931 697 944 c 1
 715 955 735 962 759 962 c 0
 761 962 764 962 767 962 c 0
 891 951 895 780 895 674 c 0
 895 669 902 669 902 674 c 0
 902 684 902 694 902 705 c 0
 902 815 884 971 755 971 c 0x8cff580400052c50
 740 971 726 968 713 962 c 1
 694 959 674 956 658 956 c 0x8cfe980400052c50
 643 956 632 958 627 965 c 0
 623 970 621 970 625 965 c 0
 631 955 647 952 667 952 c 0
 676 952 686 952 696 954 c 1
300 11 m 1
 175 18 70 239 69 393 c 1x8cfe188400000c10
 86 359 112 343 138 343 c 0
 165 343 193 361 209 395 c 1
 209 281 224 122 299 104 c 1
 291 91 287 74 287 57 c 0
 287 38 292 20 300 11 c 1
298 62 m 0xccfe180600000c10
 298 99 320 129 351 129 c 0
 365 129 378 122 385 107 c 1
 375 94 371 76 371 59 c 0
 371 41 376 22 385 11 c 1
 379 -3 364 -11 348 -11 c 0
 313 -11 298 24 298 62 c 0xccfe180600000c10
222 521 m 1
 230 507 235 491 235 474 c 0
 235 453 227 432 207 413 c 1
 195 373 167 354 139 354 c 0
 111 354 84 374 73 411 c 1
 55 428 46 451 46 473 c 0x8efe1c0400000c10
 46 492 52 510 64 524 c 1
 85 506 116 498 145 498 c 0
 176 498 205 506 222 521 c 1
660 307 m 1
 626 291 593 236 593 181 c 0
 593 139 610 113 638 103 c 1
 647 94 653 76 653 57 c 0
 653 41 649 25 638 12 c 1
 632 11 625 11 619 11 c 0
 581 11 544 26 518 59 c 1
 491 26 456 11 416 11 c 0
 410 11 403 11 396 12 c 1
 385 23 381 40 381 56 c 0
 381 77 387 97 394 106 c 1
 429 113 442 140 442 178 c 0x9cfe180404400c10
 442 232 417 288 373 307 c 1
 375 330 398 338 425 338 c 0
 458 338 497 326 519 310 c 1
 541 326 580 340 611 340 c 0
 637 340 658 331 660 307 c 1
146 511 m 0
 87 511 43 544 43 593 c 0
 43 618 51 634 69 646 c 1x8cfe188400000c10
 85 635 111 631 137 631 c 0
 165 631 193 636 210 646 c 1
 231 632 240 614 240 584 c 0
 240 536 200 511 146 511 c 0
736 61 m 0x8cfe180400008c10
 736 23 721 -12 686 -12 c 0
 670 -12 655 -4 649 10 c 1
 658 21 663 40 663 58 c 0
 663 75 659 93 649 106 c 1
 656 120 669 127 684 127 c 0
 699 127 717 119 727 102 c 0
 733 92 736 77 736 61 c 0x8cfe180400008c10
965 392 m 1x8cfe180400000cd0
 964 237 859 17 734 10 c 1
 742 19 747 37 747 56 c 0
 747 73 743 90 735 103 c 1
 810 120 825 280 825 393 c 1
 841 360 868 342 896 342 c 0
 922 342 948 358 965 392 c 1x8cfe180400000cd0
69 657 m 1x8cff18c480000c10
 69 854 139 1007 277 1007 c 0x8cff58c480000c10
 326 1007 360 993 398 993 c 0
 410 993 422 995 435 998 c 1
 442 989 445 978 445 966 c 0
 445 950 439 934 427 922 c 1
 446 883 453 853 453 829 c 0
 453 773 418 743 417 687 c 1
 360 699 341 752 337 796 c 1x8cfe98c450000c10
 332 795 326 794 321 794 c 0
 292 794 268 811 268 836 c 0
 268 837 268 838 268 839 c 1
 272 838 276 838 280 838 c 0
 308 838 325 861 325 881 c 0
 325 915 303 929 279 929 c 0
 215 929 208 843 208 761 c 0
 208 729 209 698 209 674 c 0
 209 668 209 662 209 657 c 1
 191 647 167 641 141 641 c 0
 117 641 92 646 69 657 c 1x8cff18c480000c10
970 522 m 1
 982 508 988 490 988 471 c 0
 988 449 979 426 961 409 c 1
 950 372 923 353 895 353 c 0
 867 353 839 372 827 412 c 1
 807 430 799 452 799 473 c 0x8cfe180400000e10
 799 489 804 505 813 520 c 1
 829 505 859 496 889 496 c 0
 919 496 949 504 970 522 c 1
991 592 m 0
 991 543 947 510 888 510 c 0
 834 510 794 535 794 583 c 0
 794 612 803 631 824 645 c 1
 841 635 869 630 897 630 c 0
 923 630 949 634 965 645 c 1x8cfe180400000c50
 983 633 991 617 991 592 c 0
826 760 m 0
 826 841 819 928 757 928 c 0
 732 928 709 915 709 880 c 0
 709 860 726 837 754 837 c 0
 758 837 762 837 766 838 c 1
 766 837 766 836 766 835 c 0
 766 810 742 793 713 793 c 0
 708 793 702 794 697 795 c 1
 693 751 674 698 617 686 c 1
 616 742 581 772 581 828 c 0
 581 852 588 882 607 921 c 1
 595 932 589 949 589 965 c 0
 589 977 592 988 599 997 c 1
 612 994 624 992 636 992 c 0
 673 992 707 1005 754 1005 c 0
 895 1005 965 856 965 656 c 1
 942 645 917 640 894 640 c 0
 868 640 844 646 825 656 c 1x8cfe180400042cd0
 825 660 825 663 825 667 c 0
 825 692 826 726 826 760 c 0
286 1016 m 0
 110 1016 60 824 60 655 c 1
 42 641 34 617 34 593 c 0
 34 572 40 551 53 535 c 0
 54 533 56 531 54 530 c 1
 42 512 35 491 35 472 c 0
 35 450 44 428 60 412 c 1
 60 230 169 7 305 2 c 1
 312 -12 331 -20 349 -20 c 0
 368 -20 386 -12 392 2 c 1
 444 2 484 12 515 41 c 0
 517 42 519 42 520 41 c 0
 551 12 590 2 642 2 c 1
 649 -13 668 -21 686 -21 c 0
 704 -21 722 -14 729 2 c 1
 865 7 974 230 974 412 c 1
 990 428 999 450 999 473 c 0
 999 492 993 512 981 530 c 0
 980 531 981 533 982 535 c 0
 995 550 1001 571 1001 592 c 0
 1001 616 992 641 974 655 c 1
 974 824 925 1016 749 1016 c 0
 706 1016 669 1004 634 1004 c 0
 621 1004 610 1005 598 1009 c 1
 586 997 580 980 580 963 c 0
 580 947 585 932 594 919 c 1
 578 880 573 850 573 825 c 0
 573 762 610 736 610 683 c 0
 610 681 610 679 610 677 c 1
 665 685 702 726 712 782 c 0
 712 786 723 783 727 783 c 0
 754 783 776 813 776 837 c 0
 776 843 775 848 773 852 c 1
 767 849 761 847 755 847 c 0
 736 847 722 866 722 880 c 0
 722 903 734 920 756 920 c 0
 812 920 817 839 817 746 c 0
 817 717 816 686 816 655 c 1
 796 639 785 611 785 584 c 0
 785 564 791 544 804 530 c 1
 795 511 789 491 789 472 c 0
 789 449 797 428 816 412 c 1
 816 292 808 136 733 113 c 0
 730 112 729 113 728 116 c 0
 720 131 703 138 686 138 c 0
 669 138 651 129 643 114 c 1
 613 116 601 144 601 177 c 0
 601 227 628 288 671 302 c 1
 671 303 l 0
 671 335 639 345 604 345 c 0
 571 345 535 336 521 328 c 0
 520 327 518 327 517 328 c 0
 503 336 466 345 433 345 c 0
 397 345 364 335 364 303 c 0
 364 302 l 1
 407 288 434 226 434 177 c 0
 434 143 421 115 391 114 c 1
 383 129 366 138 349 138 c 0
 332 138 316 131 308 116 c 0
 306 113 305 112 303 113 c 0
 228 133 218 292 218 412 c 1
 237 428 245 449 245 472 c 0xacfe39350b1a5d30
 245 491 239 511 230 530 c 1
 243 544 249 564 249 584 c 0
 249 611 238 639 218 655 c 1
 218 681 218 708 218 733 c 0
 218 833 221 919 278 919 c 0
 301 919 314 904 314 880 c 0
 314 866 300 847 280 847 c 0
 275 847 268 849 262 852 c 1
 260 848 259 843 259 837 c 0
 259 813 281 783 309 783 c 0
 313 783 323 786 323 782 c 0
 333 726 370 685 425 677 c 1
 425 678 425 680 425 681 c 0
 425 735 461 761 461 824 c 0
 461 848 456 879 440 919 c 1
 450 932 455 948 455 964 c 0
 455 981 449 997 438 1009 c 1
 426 1005 414 1004 402 1004 c 0xacfe382d03000c10
 367 1004 330 1016 286 1016 c 0
737 778 m 1
 728 775 723 776 718 770 c 1
 716 764 715 759 713 754 c 1
 715 744 724 736 734 736 c 0
 745 736 755 746 755 757 c 0
 755 767 747 776 737 778 c 1
297 778 m 1
 288 776 280 767 280 757 c 0
 280 746 290 736 301 736 c 0
 311 736 320 744 322 754 c 1
 320 759 319 764 317 770 c 1
 315 772 313 774 310 776 c 1
 306 776 302 776 297 778 c 1
EndSplineSet
Validated: 1
EndChar

StartChar: y
Encoding: 121 121 39
Width: 533
Flags: W
HStem: -220 80<63.0992 158.973> 410 33<7.00299 55.875 161.827 209.994 332.006 385.417 451.307 502.997>
DStem2: 173 345 90 335 0.397705 -0.917513<-41.4371 243.779> 218 -22 240 -62 0.39682 0.917897<-98.691 21.0397 155.395 438.471>
LayerCount: 3
Fore
SplineSet
200 -148 m 0
 164 -212 124 -220 102 -220 c 0
 76 -220 56 -204 56 -183 c 0
 56 -170 70 -140 100 -140 c 0
 110 -140 114 -143 128 -143 c 0
 154 -143 168 -134 178 -114 c 1
 194 -83 206 -55 218 -22 c 0
 220 -16 221 -8 221 0 c 0
 221 26 210 57 204 72 c 2
 90 335 l 2
 64 396 51 405 12 410 c 1
 8 413 7 420 7 427 c 0
 7 433 8 440 12 443 c 1
 32 443 58 441 92 441 c 0
 128 441 168 443 206 443 c 1
 208 440 210 433 210 427 c 0
 210 420 208 413 206 410 c 1
 172 410 160 400 160 385 c 0
 160 375 165 362 173 345 c 2
 261 137 l 2
 266 127 270 123 274 123 c 0
 278 123 282 128 285 136 c 2
 384 365 l 2
 387 372 389 377 389 382 c 0
 389 403 362 410 336 410 c 1
 334 413 332 420 332 427 c 0
 332 433 334 440 336 443 c 1
 366 443 398 441 428 441 c 0
 456 441 478 443 498 443 c 1
 502 440 503 433 503 427 c 0
 503 420 502 413 498 410 c 1
 452 404 437 388 418 346 c 0
 365 234 320 131 240 -62 c 0
 228 -92 215 -120 200 -148 c 0
EndSplineSet
Validated: 1
EndChar

StartChar: braceleft
Encoding: 123 123 40
Width: 320
Flags: W
HStem: -242 20<258.485 296> 343 20<15 50.6535> 932 20<258.485 296>
VStem: 115 65<-113.81 252.053 449.296 820.952>
LayerCount: 3
Fore
SplineSet
115 56 m 0
 115 247 84 343 21 343 c 0
 19 343 17 343 15 343 c 1
 15 363 l 1
 17 363 19 363 21 363 c 0
 84 363 115 459 115 652 c 0
 115 852 175 952 296 952 c 1
 296 932 l 1
 219 932 180 850 180 686 c 2
 180 646 l 2
 180 484 153 387 99 353 c 1
 153 312 180 213 180 56 c 2
 180 17 l 2
 180 -142 219 -222 296 -222 c 1
 296 -242 l 1
 175 -242 115 -143 115 56 c 0
EndSplineSet
Validated: 1
EndChar

StartChar: bar
Encoding: 124 124 41
Width: 161
Flags: W
VStem: 54 56<-306 1032>
LayerCount: 3
Fore
SplineSet
110 -306 m 1
 54 -324 l 1
 54 1032 l 1
 110 1051 l 1
 110 -306 l 1
EndSplineSet
Validated: 1
EndChar

StartChar: braceright
Encoding: 125 125 42
Width: 302
Flags: W
HStem: -242 20<6 43.5152> 343 20<251.346 287> 932 20<6 43.5152>
VStem: 122 65<-113.81 252.053 449.296 820.952>
LayerCount: 3
Fore
SplineSet
6 -242 m 1
 6 -222 l 1
 83 -222 122 -142 122 17 c 2
 122 56 l 2
 122 213 149 312 203 353 c 1
 149 387 122 484 122 646 c 2
 122 686 l 2
 122 850 83 932 6 932 c 1
 6 952 l 1
 127 952 187 852 187 652 c 0
 187 459 218 363 281 363 c 0
 283 363 285 363 287 363 c 1
 287 343 l 1
 285 343 283 343 281 343 c 0
 218 343 187 247 187 56 c 0
 187 -143 127 -242 6 -242 c 1
EndSplineSet
Validated: 1
EndChar

StartChar: asciitilde
Encoding: 126 126 43
Width: 1229
Flags: W
HStem: 60 62<472.499 751.489> 1107 59<481.133 754.205>
VStem: 61 62<472.569 750.52> 1109 59<477.701 753.53>
DStem2: 245 291 288 247 0.706598 0.707616<0 982.128>
LayerCount: 3
Fore
SplineSet
1168 613 m 0
 1168 309 920 60 614 60 c 0
 310 60 61 308 61 614 c 0
 61 918 310 1166 613 1166 c 1
 617 1166 l 2
 920 1166 1168 917 1168 613 c 0
939 986 m 1
 853 1061 739 1107 616 1107 c 0
 344 1107 123 886 123 615 c 0
 123 490 168 377 245 291 c 1
 939 986 l 1
1109 615 m 0
 1109 741 1061 855 982 943 c 1
 964 924 618 587 288 247 c 1
 374 168 490 122 616 122 c 0
 887 122 1109 343 1109 615 c 0
EndSplineSet
Validated: 1
EndChar

StartChar: uni0410
Encoding: 1040 1040 44
Width: 677
Flags: HW
HStem: -11.9783 5.78026<371.811 430.147 490.979 507.076 571.877 606.271> -9 5<170.293 183.707 265.833 290.963> 259 82.725<466.284 536.585> 300.312 21.6875<224.473 278.275> 332.449 91.3553<202.894 314.506> 351 37<435.873 552.106> 398 58<418.891 567.615> 468 312<421.441 552.928> 727.265 5.98578<279.684 324.458> 790.084 60.9963<423.548 566.325> 837.062 4.99121<344.044 371.074> 852.042 27.086<319.363 377.495> 858 1<289 290.954> 860.178 40.822<442.537 567.622> 868.015 36.7819<236.949 337.258> 889.18 33.854<303.683 376.912> 913 4.94208<272.038 307.761> 931.662 6.69<350.735 389.908> 949 3.62048<435 444.439> 984.767 3.48511<572.327 587.047> 989.505 3.48834<429.023 444.054> 995.882 5.87976<491.868 524.855>
VStem: 112.371 7.73006<309.592 360.07> 128.089 6.89313<400.193 434.627> 161 5<0.28125 10.0343> 166 4<204.585 215> 173 5<472.78 488.403> 178.519 6.79257<858.314 898.98> 188 5<0.260887 9.80357> 199 41.7874<95.6945 142.322> 207 31<215.677 248.414> 217.768 5.08179<783.068 809.234> 236.282 30.1758<784.67 824.352> 248 6<191.572 234.503> 273.825 25.6029<784.182 830.441> 310.337 6.69888<777.428 811.743> 318.165 6.04044<292.998 324.751> 381 28<650.132 650.184 651.013 674.271> 388.75 6.66766<343.415 390.051> 397.189 6.97855<403.984 408.186 768.4 810.775> 404 5<597.165 601 638 652.311> 405.808 80.1918<317.485 346.233> 409.803 5.62494<194.694 313> 414.775 4.34085<963.094 979.901> 420 134<474.883 509 740 770.673> 425 4<279.625 283> 483 5<-2.84025 6.57167> 510 5<-2.84025 6.85793> 553 3<287.334 290> 565 7<196.989 314.744 487.392 764.728> 598.082 2.85779<958.848 972.243> 598.938 6.38196<358.773 401.791 431.974 450.903 808.843 813.278> 607.601 5.84827<876.172 911.589>
AnchorPoint: "Diacritic" 510 1114 basechar 0
LayerCount: 3
Fore
SplineSet
499 14 m 1x00007f38380348
 495 12 488 11 488 4 c 0
 488 -2 493 -7 499 -7 c 0
 505 -7 510 -2 510 4 c 0
 510 6 509 8 509 9 c 1
 505 11 502 12 499 14 c 1x00007f38380348
177 18 m 1
 172 15 166 14 166 7 c 0
 166 1 171 -4 177 -4 c 0x40007fb8380048
 183 -4 188 1 188 7 c 0
 188 9 188 11 187 13 c 1
 183 14 180 16 177 18 c 1
580 985 m 0
 569 985 562 975 562 967 c 0
 562 960 565 954 571 950 c 1
 576 948 580 946 588 949 c 1
 595 953 598 959 598 965 c 0x00007f38380068
 598 975 590 985 580 985 c 0
579 988 m 0
 589 988 601 982 601 968 c 0x40a0ffb9391368
 601 957 596 946 584 944 c 1
 603 933 613 915 613 894 c 0
 613 877 607 859 591 842 c 1
 599 832 603 821 603 811 c 0
 603 793 592 775 572 763 c 1
 572 489 l 1
 589 481 603 462 603 442 c 0
 603 434 601 426 596 418 c 1
 602 405 605 392 605 379 c 0
 605 351 591 326 570 311 c 1
 570 192 577 76 647 10 c 0
 648 10 648 9 648 8 c 0
 648 7 647 6 645 5 c 0
 630 -5 611 -10 590 -10 c 0
 567 -10 541 -5 514 7 c 1
 515 5 515 4 515 2 c 0
 515 -6 508 -12 499 -12 c 0
 491 -12 483 -6 483 2 c 0
 483 4 483 5 484 7 c 1
 456 -5 426 -12 398 -12 c 0x80a0ff38380358
 373 -12 351 -6 337 7 c 0
 337 7 337 8 336 8 c 1
 336 7 l 0
 323 -3 302 -8 278 -8 c 0
 250 -8 218 -2 193 10 c 1
 193 9 193 7 193 6 c 0
 193 -2 186 -9 177 -9 c 0
 168 -9 161 -2 161 6 c 0
 161 7 161 9 162 10 c 1
 138 -1 111 -7 87 -7 c 0
 65 -7 45 -2 31 10 c 0
 30 10 29 12 29 12 c 0
 29 14 30 14 31 15 c 0
 109 77 150 162 155 252 c 1
 128 271 112 305 112 336 c 0
 112 357 120 378 135 391 c 1
 130 399 128 408 128 417 c 0
 128 442 144 469 173 473 c 1
 173 474 173 475 173 476 c 0
 173 543 252 627 316 676 c 0
 357 709 397 737 397 793 c 0
 397 814 383 837 358 837 c 0
 337 837 317 822 317 794 c 0
 317 773 331 755 350 745 c 0
 353 744 353 741 350 740 c 0
 334 731 316 727 300 727 c 0
 256 727 218 756 218 795 c 0
 218 799 218 803 219 807 c 1
 190 831 179 857 179 880 c 0
 179 917 208 948 240 950 c 1
 245 930 267 918 288 918 c 0
 322 918 342 938 370 938 c 0
 380 938 392 936 407 928 c 1
 411 938 419 946 430 950 c 1
 421 954 415 963 415 973 c 0x40a0ffb9391358
 415 985 427 993 438 993 c 0
 448 993 457 987 458 975 c 1
 469 992 488 1002 508 1002 c 0
 527 1002 546 992 558 972 c 1
 559 983 569 988 579 988 c 0
109 22 m 0
 112 25 113 28 113 31 c 0
 113 36 109 42 104 42 c 0
 102 42 99 41 97 39 c 0
 86 32 101 16 109 22 c 0
259 25 m 1
 266 18 277 21 277 30 c 0
 277 36 273 41 267 41 c 0
 259 41 254 33 259 25 c 1
243 48 m 0
 220 68 201 103 199 141 c 0x00007f3c380048
 199 147 192 149 189 142 c 0
 177 106 155 65 127 47 c 0
 119 42 123 41 129 44 c 0
 150 55 166 69 181 96 c 0
 186 104 189 111 192 118 c 1
 199 82 218 61 241 44 c 0
 248 39 249 42 243 48 c 0
404 25 m 1x00007f38388048
 411 18 422 20 422 30 c 0
 422 35 417 42 412 42 c 0
 405 42 399 33 404 25 c 1x00007f38388048
278 296 m 0
 284 297 282 304 275 302 c 0
 267 301 259 300 252 300 c 0
 208 300 184 318 160 339 c 0
 155 344 150 340 155 336 c 0
 170 320 186 305 207 296 c 1
 201 273 200 258 200 235 c 0
 200 229 200 223 200 216 c 0
 200 209 207 209 207 216 c 0x10007f3a380048
 209 251 210 265 216 294 c 1
 224 291 232 290 241 290 c 0
 253 290 265 293 278 296 c 0
565 25 m 1
 572 18 583 21 583 30 c 0
 583 36 579 41 573 41 c 0
 565 41 560 33 565 25 c 1
552 52 m 0
 519 89 505 162 498 226 c 0
 497 232 486 231 486 225 c 0x00007f38384048
 481 162 469 90 438 55 c 0
 433 50 433 45 438 50 c 0
 465 77 486 131 493 184 c 1
 503 131 521 80 549 48 c 0
 554 43 557 47 552 52 c 0
557 366 m 0
 562 371 558 374 553 370 c 0
 537 356 514 351 492 351 c 1
 471 353 451 356 436 369 c 0
 431 374 428 371 433 366 c 0
 446 351 465 344 486 342 c 1
 486 290 l 2
 486 283 497 283 497 290 c 2
 497 342 l 1
 499 342 501 342 503 342 c 0x24007f383840c8
 524 342 542 351 557 366 c 0
404 601 m 1x00007f38388048
 404 638 l 1
 370 578 293 527 279 440 c 1
 328 472 383 542 404 601 c 1x00007f38388048
381 666 m 0x00007f383c0048
 386 672 377 680 372 674 c 0
 315 599 266 586 227 479 c 0
 225 472 235 467 237 474 c 0
 275 581 323 594 381 666 c 0x00007f383c0048
495 509 m 2
 495 740 l 2
 495 747 484 747 484 740 c 2
 484 509 l 2
 484 501 495 501 495 509 c 2
274 797 m 0
 274 845 316 879 361 879 c 0
 367 879 372 878 376 877 c 0
 382 875 380 885 374 887 c 0
 370 889 365 889 359 889 c 0x01117f38b80048
 323 889 315 868 276 868 c 0
 259 868 243 873 231 890 c 0
 226 896 225 894 229 886 c 0
 237 866 260 859 284 859 c 0
 286 859 287 859 289 859 c 0
 290 859 290 859 291 859 c 1
 290 859 290 858 289 858 c 0
 274 847 266 827 266 808 c 0
 266 795 270 783 278 776 c 0
 284 769 283 773 278 780 c 0x010a7f38b80048
 275 784 274 790 274 797 c 0
568 889 m 0
 557 900 533 911 513 912 c 1
 511 950 l 2
 511 956 505 956 505 950 c 2
 503 912 l 1
 478 911 457 903 443 889 c 0
 438 884 438 879 444 882 c 0
 466 896 483 901 508 901 c 0x00047f38380048
 527 901 551 892 565 882 c 1
 572 879 573 884 568 889 c 0
312 12 m 1
 300 9 287 7 275 7 c 0
 237 7 201 21 177 38 c 1
 152 22 117 8 85 8 c 0
 74 8 64 10 54 14 c 1
 107 54 155 128 166 217 c 0
 167 217 168 215 170 215 c 1
 171 193 183 173 196 164 c 1
 219 175 232 190 240 215 c 0
 241 215 240 219 241 219 c 1
 241 215 241 211 241 208 c 0x00007f7c380048
 241 132 269 59 312 12 c 1
305 297 m 0
 296 268 272 256 238 243 c 1
 237 222 220 186 197 175 c 1
 179 192 173 227 171 259 c 1x20007f3a380048
 149 279 132 304 132 338 c 0
 132 340 132 342 132 344 c 0
 132 358 143 375 154 375 c 0
 157 375 159 374 162 371 c 0
 177 356 193 344 220 334 c 0
 252 323 280 322 302 322 c 1x10007f3a380048
 308 312 308 309 305 297 c 0
621 10 m 1
 609 6 597 4 585 4 c 0
 554 4 523 17 499 32 c 1
 469 17 438 3 404 3 c 0
 390 3 375 5 360 11 c 1
 422 91 425 181 425 262 c 0
 425 269 425 276 425 283 c 1
 427 283 428 284 429 284 c 0
 436 265 462 250 489 250 c 0
 519 250 541 261 553 290 c 0
 554 290 554 290 556 290 c 1x00007f383804c8
 556 194 558 98 621 10 c 1
408 479 m 2
 408 459 407 444 397 425 c 0
 379 390 357 365 328 345 c 0
 315 336 299 332 282 332 c 0
 225 332 172 367 151 401 c 0
 147 407 145 413 145 419 c 0
 145 441 166 459 182 459 c 0
 183 459 183 459 184 459 c 0
 199 447 232 424 265 424 c 0x08007f38380048
 275 424 285 425 291 429 c 0
 341 457 382 521 408 571 c 1
 408 479 l 2
588 380 m 0
 586 354 577 333 553 317 c 1
 546 281 522 259 489 259 c 0
 456 259 434 283 427 317 c 1
 416 327 406 350 406 375 c 0
 406 387 408 399 414 411 c 1
 428 398 463 388 497 388 c 0x24007f383840c8
 530 388 559 395 580 409 c 1
 586 399 588 391 588 380 c 0
411 649 m 2
 409 600 l 1
 387 540 323 449 274 434 c 1
 283 533 374 584 404 650 c 0x00007f38388048
 406 654 411 653 411 649 c 2
409 667 m 1x01007f383c0048
 359 578 283 552 264 433 c 1
 237 437 207 452 188 468 c 1
 188 543 267 616 326 662 c 0
 363 692 392 717 409 763 c 1x01007f38388048
 409 667 l 1x01007f383c0048
586 445 m 1
 585 425 579 419 568 414 c 0
 547 404 521 398 497 398 c 0
 461 398 431 411 409 426 c 1
 414 436 418 453 418 467 c 0
 418 468 418 470 418 471 c 1
 440 460 462 456 492 456 c 0x02007f38388048
 519 456 538 461 559 476 c 1
 574 473 586 461 586 448 c 0
 586 447 586 446 586 445 c 1
554 484 m 1x01007f38380848
 531 472 516 468 491 468 c 0
 462 468 446 471 420 484 c 1
 420 757 l 1
 435 772 462 780 491 780 c 0
 516 780 533 773 554 758 c 1
 554 484 l 1x01007f38380848
285 905 m 0x00027f38b80048
 319 905 346 923 374 923 c 0
 385 923 396 920 407 912 c 1
 404 904 403 895 403 886 c 0
 403 871 407 855 417 842 c 1
 413 838 408 832 406 826 c 1
 398 838 380 852 359 852 c 0x00117f38b80048
 328 852 299 831 299 795 c 0
 299 775 310 757 323 746 c 1
 315 743 307 741 300 741 c 0
 266 741 236 769 236 799 c 0
 236 806 238 813 241 820 c 1
 209 830 196 854 196 878 c 0
 196 902 209 925 230 933 c 1
 237 917 259 905 285 905 c 0x00027f38b80048
494 851 m 0x00407f38380848
 531 851 585 845 585 812 c 0
 585 791 572 778 554 771 c 1
 540 780 516 790 489 790 c 0
 462 790 438 782 420 772 c 1
 414 780 410 792 410 802 c 0
 410 805 411 808 412 811 c 0
 423 842 459 851 494 851 c 0x00407f38380848
573 847 m 1
 551 855 523 860 495 860 c 0
 470 860 445 856 425 848 c 1x00047f38380448
 417 858 413 873 413 888 c 0
 413 914 426 941 459 941 c 0
 459 941 460 941 461 941 c 0
 470 973 489 987 507 987 c 0
 527 987 547 970 552 943 c 1
 585 934 597 914 597 894 c 0
 597 876 587 857 573 847 c 1
358 842 m 0x84a0ffb97aa058
 388 842 404 821 404 795 c 0x84a0ff39390048
 404 740 365 706 321 671 c 0
 256 621 178 543 178 467 c 1
 151 464 135 439 135 417 c 0
 135 408 138 399 143 393 c 0
 144 392 144 390 143 388 c 0
 127 376 120 356 120 336 c 0
 120 305 135 272 161 254 c 1
 156 164 116 77 38 12 c 1
 51 3 67 -1 86 -1 c 0
 115 -1 150 9 177 25 c 1
 204 8 245 -2 279 -2 c 0
 299 -2 317 2 328 10 c 1
 268 71 249 157 248 237 c 1
 283 247 318 276 318 310 c 0
 318 315 317 320 316 325 c 1
 344 340 387 382 397 411 c 0
 398 414 403 412 402 408 c 0
 398 392 395 379 395 367 c 0
 395 347 401 331 414 313 c 1
 415 295 415 276 415 259 c 0
 415 158 399 66 344 10 c 1
 357 -1 376 -6 398 -6 c 0
 427 -6 459 2 488 13 c 1
 491 16 495 18 499 18 c 0
 504 18 508 16 511 13 c 1
 539 2 566 -5 591 -5 c 0
 609 -5 625 -1 639 7 c 1
 572 76 564 192 564 313 c 1
 584 326 599 352 599 381 c 0
 599 393 596 406 590 418 c 1
 595 425 597 433 597 441 c 0
 597 460 582 480 565 487 c 1
 565 766 l 1
 585 777 596 794 596 811 c 0
 596 821 592 831 584 839 c 0
 583 841 583 843 584 844 c 0
 600 860 608 878 608 894 c 0
 608 920 590 942 561 949 c 1
 554 981 531 996 508 996 c 0
 485 996 462 980 454 949 c 1
 435 949 414 939 409 921 c 1
 394 929 382 932 371 932 c 0
 343 932 323 913 291 913 c 0
 268 913 242 923 236 945 c 1
 210 939 185 912 185 879 c 0
 185 857 196 833 224 811 c 1
 223 807 223 803 223 799 c 0
 223 761 260 733 302 733 c 0
 316 733 330 736 343 742 c 1
 325 754 310 772 310 794 c 0
 310 824 333 842 358 842 c 0x84a0ffb97aa058
437 990 m 0
 425 990 419 980 419 971 c 0x00007f38381048
 419 962 426 953 437 953 c 1
 443 954 447 955 451 958 c 1
 452 963 454 967 456 971 c 1
 456 980 447 990 437 990 c 0
336 11 m 1
 337 12 l 0
 396 68 410 162 410 266 c 0
 410 281 410 296 409 311 c 1
 396 330 389 345 389 365 c 0
 389 371 390 378 391 386 c 1
 375 361 345 336 322 322 c 1
 324 316 324 311 324 306 c 0
 324 270 290 244 254 234 c 1x10007f387aa048
 256 156 273 71 336 12 c 0
 336 12 336 12 336 11 c 1
EndSplineSet
Validated: 1
EndChar

StartChar: uni0411
Encoding: 1041 1041 45
Width: 758
Flags: HW
HStem: -6 5<89.5007 143.745 644.88 681.573> -1 7<240.082 251.099 358.238 400.515> 9 6<428.341 481.204> 11 43<137.001 170.224 572.084 674.834> 18 5<278.418 334> 37 54<254.319 304.938> 58 61<609.109 653.136> 58 34<571.008 630.042> 108 20<581.999 590.643> 167 6<420.08 440.316> 186 32<529.132 648.733> 186 7<353.977 393.8> 214 26<222 227.687> 233 62<509.141 644.856> 288 37<158.523 288.841> 340 74<176.539 303.796> 457 53<392.121 555.183> 519 7<499.411 595.394> 755 76<167.968 305.853> 778 15<441.883 478> 805 4<425.294 449.664> 833 7<367.705 403.075> 846 41<141.065 311.273> 877 54<489.147 573.952> 942 5<539.432 605.757> 949 32<209.65 219.999> 986 5<124.387 152.875> 989 6<427.091 457.755> 992 7<197.607 235.324 366.129 404.609>
VStem: 41 6<20.1566 37.558> 79 6<650.28 695.774 839.478 889.49> 88 8<298.02 347.617> 96 21<639.999 697.453 859.094 868.155> 99 7<387.822 425.499 754.559 797.054 931.172 965.209> 122 15<665.902 696.275> 131 7<203.632 248> 149 6<234 238.997 472.658 535> 168 57<655.318 692> 236 55<642 692> 304 6<580 717.845> 334 6<763.968 807.709> 341 7<384.432 425.046> 355 7<302.009 341.974> 366 63<29.1434 161> 380 46<863.899 959.035> 401 6<786.153 807.157> 422 5<705.372 729.484> 444 41<54.8564 124.016> 453 7<810.895 824.373> 461 7<209.326 246.762> 469 6<269.713 299.856> 472 39<795.417 845.886> 521 6<11.9029 27.7545> 524 4<809.918 823.345> 530 29<610 714.143> 541 65<748.04 849.683> 570 5<582.375 638.457> 592 85<140.916 195> 616 7<422.631 472.04 800.602 835.078> 624 6<871.718 913.641> 646 4<321.188 340.254> 670 5<257.734 285.904> 691 7<160.487 214.478> 710 6<15.396 46.2784>
DStem2: 461 902 422 974 0.354637 -0.935004<401.312 468.124>
AnchorPoint: "Diacritic" 390 1114 basechar 0
LayerCount: 3
Fore
SplineSet
305 91 m 1x0441c4c62fe00003
 305 93 304 93 303 95 c 1
 283 101 269 111 255 123 c 0
 243 134 238 147 233 159 c 1
 230 170 225 172 222 173 c 0
 219 173 214 168 212 154 c 1
 209 141 205 125 189 104 c 0
 174 85 158 72 142 63 c 0
 141 63 137 60 137 58 c 0x0141c4c62fe00003
 137 56 138 56 141 56 c 1
 157 64 175 75 194 97 c 0
 211 118 219 131 223 150 c 1
 225 147 l 1
 230 134 236 129 249 117 c 0
 261 106 278 97 302 91 c 0
 303 91 304 90 305 91 c 1x0441c4c62fe00003
229 275 m 1
 259 275 298 301 311 317 c 0
 314 320 311 322 306 320 c 1
 299 312 287 305 270 295 c 1x0045c4c60fe00003
 254 288 239 288 224 288 c 0
 197 288 170 295 143 317 c 0
 142 318 133 326 139 313 c 1
 154 301 165 292 177 286 c 1
 190 281 202 275 217 275 c 1
 222 240 l 2x004bc4c60fe00003
 223 240 224 240 228 241 c 1
 229 275 l 1
653 58 m 0x1241c4c60fe10003
 656 59 653 63 651 61 c 0
 648 59 643 58 636 58 c 0x1241c4c60fe10003
 602 58 531 84 493 129 c 0
 491 131 480 124 481 120 c 0
 483 111 485 99 485 89 c 0
 485 75 483 63 477 59 c 0
 474 56 477 52 480 55 c 0
 488 64 495 82 495 101 c 2
 495 108 l 1x00c1c4c60fe10003
 531 70 596 54 631 54 c 0
 641 54 649 56 653 58 c 0x1241c4c60fe10003
583 128 m 1x00e1c4c60fe0000b
 592 128 592 145 592 161 c 0x00e1c4c60fe00043
 592 166 590 170 589 175 c 1
 612 175 635 181 646 194 c 0
 647 195 651 200 649 202 c 0
 648 203 645 198 642 197 c 1
 632 187 612 186 586 186 c 0
 566 186 544 190 515 211 c 0
 513 213 512 213 509 211 c 0
 509 210 509 209 512 206 c 0
 525 192 538 189 549 182 c 1
 560 177 566 175 578 175 c 1
 581 170 582 160 582 149 c 1
 579 141 582 136 582 134 c 0
 581 131 581 130 583 128 c 1x00e1c4c60fe0000b
566 345 m 0
 546 409 490 436 449 452 c 1
 462 448 474 447 485 447 c 0
 514 447 543 456 555 470 c 0
 559 474 557 478 554 474 c 0
 544 465 520 459 506 457 c 1
 485 457 423 463 384 482 c 1
 324 509 283 532 232 558 c 0
 170 589 122 636 122 682 c 0
 122 685 122 689 123 693 c 0
 126 699 121 702 120 696 c 0
 118 690 117 684 117 678 c 0x0041c4c6afe10003
 117 631 167 582 228 552 c 0
 281 525 318 505 377 476 c 1
 401 463 422 455 441 445 c 0
 475 429 542 399 562 344 c 0
 565 338 567 339 566 345 c 0
236 642 m 1
 236 692 l 2
 236 698 225 698 225 692 c 2
 225 645 l 1
 236 642 l 1
128 858 m 1
 150 874 177 887 211 887 c 0x0041c6c60fe00003
 220 887 234 886 249 881 c 0
 261 877 271 876 273 876 c 2
 278 876 l 2
 299 876 315 887 324 900 c 0
 327 903 331 907 320 900 c 1
 316 895 308 889 297 885 c 0
 292 884 284 884 273 884 c 0
 269 884 259 887 246 891 c 0
 235 895 225 896 217 897 c 1
 217 914 217 930 220 944 c 0
 220 945 218 948 216 949 c 1
 213 949 213 950 212 946 c 0
 209 934 207 918 207 897 c 1
 194 897 182 895 168 890 c 0
 154 886 141 879 123 865 c 0
 123 864 125 860 128 858 c 1
530 698 m 0x0041d5c60fe00a03
 530 736 541 763 541 799 c 0
 541 827 531 852 514 871 c 1
 521 868 528 867 535 867 c 0
 540 867 544 867 549 869 c 1
 563 869 573 877 581 886 c 1
 590 894 589 897 577 889 c 1
 570 882 559 879 549 877 c 1
 531 877 514 881 500 889 c 1
 490 900 477 907 464 913 c 1
 459 917 456 905 461 902 c 0
 479 892 495 880 504 865 c 1
 506 864 l 1
 510 855 511 845 511 835 c 0
 511 823 509 810 504 796 c 0
 501 786 486 778 470 778 c 0
 467 778 463 778 460 779 c 0
 449 783 448 778 459 776 c 1
 466 773 472 772 478 772 c 0
 506 772 524 799 524 824 c 1
 528 810 528 798 528 782 c 1x0041d5c60fe0d503
 525 758 521 741 521 720 c 0
 521 699 526 675 531 661 c 0
 535 648 541 649 536 662 c 0
 533 672 530 684 530 698 c 0x0041d5c60fe00a03
113 11 m 0x1041c4c60fe00003
 97 11 61 13 61 30 c 0
 61 35 64 40 67 43 c 0
 111 89 138 155 149 237 c 0
 149 240 153 239 155 239 c 0
 158 239 160 235 160 234 c 0
 171 212 199 199 227 199 c 0
 249 199 271 208 282 229 c 0
 283 232 289 236 294 236 c 0
 297 236 298 236 299 234 c 0
 318 204 319 186 334 162 c 0
 335 160 346 155 346 152 c 1
 350 141 352 129 352 116 c 0
 352 89 343 61 329 43 c 0
 327 41 325 39 322 39 c 0
 315 38 308 37 301 37 c 0x0441c4c60fe00003
 283 37 265 41 249 49 c 0
 241 53 235 53 228 48 c 0
 206 32 160 11 113 11 c 0x1041c4c60fe00003
429 89 m 0x0041c4c60ff00003
 429 54 412 17 377 17 c 0
 367 17 357 20 348 28 c 0
 345 32 343 37 346 41 c 0
 358 57 366 77 366 105 c 0
 366 120 364 137 358 156 c 0
 358 158 357 159 357 161 c 0
 357 170 365 174 375 174 c 0
 383 174 393 171 399 167 c 0
 405 164 416 154 418 145 c 1
 426 123 429 105 429 89 c 0x0041c4c60ff00003
169 246 m 0
 139 257 106 285 106 319 c 0
 106 329 113 357 127 357 c 0
 129 357 131 356 134 354 c 0
 165 334 197 325 227 325 c 0
 263 325 295 337 319 355 c 1
 321 358 330 358 332 354 c 0
 339 343 343 332 343 322 c 0
 343 308 336 295 327 285 c 0
 310 265 298 258 275 243 c 0
 271 241 270 239 269 235 c 0
 262 221 244 214 226 214 c 0x004bc4c64fe00003
 206 214 184 222 174 241 c 0
 174 242 170 246 169 246 c 0
305 425 m 0
 307 426 310 427 312 427 c 0
 323 427 329 412 329 403 c 0
 329 386 315 369 303 360 c 0
 284 346 259 340 232 340 c 0
 196 340 160 352 139 370 c 0
 127 381 117 395 117 410 c 0x0041c4c68fe00003
 117 423 125 437 147 450 c 0
 150 452 154 451 157 449 c 0
 188 424 222 414 252 414 c 0
 272 414 291 418 305 425 c 0
696 37 m 0x0441c4c60fe30003
 697 34 697 32 697 30 c 0
 697 12 675 11 667 11 c 0
 611 11 592 30 554 59 c 0
 549 63 544 65 539 61 c 0
 527 54 495 27 456 27 c 0
 447 27 438 28 429 31 c 0x1041c4c60ff00003
 428 31 426 32 427 33 c 0
 438 47 444 70 444 93 c 0
 444 116 438 139 427 154 c 1
 448 154 480 177 481 186 c 1
 487 177 503 162 517 154 c 1
 520 151 520 149 522 146 c 0
 537 120 554 92 585 92 c 0x1151c4c60fe30003
 595 92 608 96 622 104 c 0
 637 113 648 119 659 119 c 0x0241c4c60fe30003
 662 119 665 119 667 117 c 0
 679 96 690 61 696 37 c 0x0441c4c60fe30003
305 441 m 1
 289 433 270 430 251 430 c 0
 217 430 183 442 168 463 c 1
 168 519 l 1
 203 490 260 460 305 441 c 1
210 17 m 1
 180 0 148 -6 105 -6 c 0
 78 -6 41 6 41 28 c 0
 41 32 43 37 46 42 c 0
 93 109 131 156 131 246 c 1
 101 268 88 297 88 323 c 0
 88 343 95 362 107 376 c 1
 101 387 99 398 99 408 c 0
 99 436 119 460 149 474 c 1
 149 535 l 1
 155 535 l 1
 155 471 l 1
 126 457 106 434 106 407 c 0
 106 397 109 386 115 375 c 1
 103 361 96 343 96 322 c 0
 96 297 108 269 138 248 c 1
 138 155 99 106 51 39 c 0
 48 35 47 32 47 28 c 0
 47 10 87 -1 112 -1 c 0x8841c4c75fe808af
 162 -1 202 15 234 38 c 1
 261 27 286 23 308 23 c 0
 317 23 326 24 334 25 c 1
 345 12 363 6 380 6 c 0x4841c4c75fe808af
 395 6 409 11 417 20 c 1
 431 16 443 15 455 15 c 0
 490 15 517 29 540 49 c 0
 541 50 544 50 545 49 c 0
 575 17 627 0 665 0 c 0
 691 0 710 9 710 26 c 0
 710 53 691 91 674 127 c 1
 686 147 691 168 691 189 c 0
 691 214 683 239 668 257 c 1
 669 262 670 266 670 271 c 0
 670 290 659 305 645 317 c 1
 645 320 646 323 646 325 c 0
 646 354 627 382 601 397 c 1
 612 414 616 430 616 446 c 0
 616 472 605 497 595 522 c 1
 583 520 569 519 555 519 c 0
 471 519 354 546 295 571 c 1
 269 584 220 610 200 624 c 0
 171 644 149 666 149 694 c 0
 149 698 154 698 154 694 c 0
 154 669 176 649 202 629 c 1
 223 615 273 587 299 576 c 0
 355 553 469 526 552 526 c 0
 569 526 585 527 599 530 c 1
 612 504 623 476 623 448 c 0
 623 431 619 414 608 398 c 1
 632 383 650 359 650 333 c 0
 650 329 650 325 649 321 c 1
 664 307 675 292 675 271 c 0
 675 267 675 263 674 258 c 1
 689 238 698 213 698 187 c 0
 698 167 692 146 681 127 c 1
 699 90 716 54 716 27 c 0
 716 4 694 -6 664 -6 c 0xa043c4c75fe808af
 637 -6 603 3 575 18 c 1
 566 13 547 2 535 2 c 0
 524 2 521 12 521 20 c 0
 521 23 522 26 522 28 c 1
 503 16 483 9 458 9 c 0
 446 9 434 10 420 14 c 1
 411 5 396 -1 379 -1 c 0
 361 -1 342 6 330 20 c 1
 322 19 313 18 303 18 c 0x6841c4c75fe808af
 291 18 279 19 265 22 c 1
 262 12 258 5 250 2 c 1
 230 2 224 6 210 17 c 1
668 147 m 0
 662 134 656 134 645 131 c 0
 640 130 626 127 621 123 c 0
 610 113 598 108 587 108 c 0
 569 108 552 121 536 152 c 1
 534 159 528 162 520 168 c 0
 511 176 504 184 496 189 c 1
 489 195 483 207 483 220 c 0
 483 226 484 232 487 237 c 0
 490 243 500 245 504 241 c 1
 527 227 558 218 588 218 c 0
 611 218 633 223 653 235 c 0
 656 236 659 237 661 235 c 0
 673 219 677 203 677 187 c 0x00e1c4c60fe00043
 677 173 673 160 668 147 c 0
655 271 m 0
 655 243 611 233 578 233 c 0
 547 233 515 241 498 264 c 0
 491 274 487 284 487 292 c 0
 487 301 497 314 509 314 c 0
 512 314 515 313 518 311 c 0
 533 301 559 295 586 295 c 0x0045c4c60fe00003
 601 295 615 297 629 300 c 0
 635 301 642 301 645 297 c 0
 650 290 655 281 655 271 c 0
631 317 m 1
 615 312 598 309 581 309 c 0
 557 309 534 315 519 328 c 1
 500 382 359 445 247 504 c 0
 177 541 96 600 96 678 c 0
 96 700 106 718 115 730 c 1
 120 724 131 714 139 709 c 1
 138 704 137 698 137 693 c 0x0041c4c6afe00003
 137 632 230 592 293 562 c 1
 322 547 414 524 439 520 c 0
 486 513 496 510 556 510 c 2
 584 510 l 1
 592 500 602 475 602 449 c 0
 602 431 597 412 584 397 c 0
 581 393 583 386 588 385 c 0
 613 376 632 353 632 327 c 0
 632 324 632 320 631 317 c 1
291 591 m 1
 246 619 201 635 168 679 c 1
 168 714 l 1
 186 728 206 738 232 738 c 0
 249 738 268 733 291 723 c 1
 291 591 l 1
617 838 m 1
 623 834 625 828 625 819 c 0
 625 816 625 813 624 809 c 1x0041ccc60fe00013
 634 815 643 825 647 833 c 1
 647 834 647 835 647 836 c 0
 647 845 638 863 628 870 c 1
 626 857 622 846 617 838 c 1
220 831 m 0x0041e4c60fe00003
 276 831 322 814 322 778 c 0x0041d4c60fe00003
 322 764 315 750 306 739 c 0
 303 735 298 735 292 737 c 0
 271 747 249 755 227 755 c 0
 206 755 185 748 164 730 c 0
 158 725 150 725 144 728 c 0
 129 735 119 757 119 775 c 0
 119 785 122 793 128 798 c 0
 165 826 189 831 220 831 c 0x0041e4c60fe00003
353 865 m 1
 334 862 319 837 316 820 c 1
 283 839 251 846 222 846 c 0
 184 846 150 833 122 817 c 1x0041c6c62fe00003
 107 821 95 847 95 870 c 0
 95 897 116 921 155 939 c 1
 174 971 198 981 222 981 c 0
 236 981 254 962 265 941 c 0
 266 938 271 937 275 940 c 0
 291 953 318 967 339 967 c 2
 343 967 l 1
 357 948 365 925 365 904 c 0
 365 889 361 875 353 865 c 1
442 793 m 0x0041d5c60fe80203
 459 793 472 800 472 816 c 0
 472 836 443 854 426 864 c 1x0041d5c60fe81203
 434 878 439 894 439 912 c 0
 439 931 434 952 422 974 c 1
 428 977 433 979 439 979 c 0
 450 979 460 974 469 966 c 0
 494 944 526 931 561 931 c 0
 572 931 582 932 593 934 c 1
 606 923 611 908 611 892 c 0
 611 881 609 869 605 857 c 0
 601 847 595 842 594 835 c 1
 599 831 606 825 606 813 c 0x0041d5c60fe22103
 606 810 606 806 604 801 c 0
 579 731 559 696 559 610 c 0
 559 602 551 600 547 602 c 0
 507 626 485 677 474 731 c 1
 462 735 423 773 423 790 c 0
 423 792 424 794 426 795 c 1
 432 794 437 793 442 793 c 0x0041d5c60fe80203
426 912 m 0
 426 886 413 851 384 851 c 0
 375 851 363 857 367 869 c 1
 375 879 380 893 380 909 c 0
 380 929 373 951 359 971 c 1
 364 978 373 981 382 981 c 0
 392 981 402 977 409 971 c 0
 416 964 426 939 426 912 c 0
216 20 m 1
 221 16 226 13 232 10 c 1
 238 9 243 9 249 7 c 0
 251 7 254 10 257 17 c 0
 257 18 258 20 260 23 c 1x0841c4c60fe00003
 251 25 243 28 234 32 c 1
 228 28 222 24 216 20 c 1
532 35 m 1
 530 29 527 23 527 18 c 0x0841c4c60fe00803
 527 13 530 10 537 10 c 0
 547 10 561 17 568 22 c 1
 559 28 550 35 542 42 c 1
 539 39 535 37 532 35 c 1
171 982 m 1
 187 994 202 999 217 999 c 0
 240 999 260 985 275 965 c 1
 297 977 315 981 346 986 c 1
 360 995 374 999 387 999 c 0x0051c4ee5fe6e0b3
 398 999 409 995 418 988 c 1
 427 993 436 995 445 995 c 0
 457 995 469 991 481 980 c 0
 510 952 541 947 565 947 c 0
 580 947 591 949 597 949 c 2
 599 949 l 1
 621 942 630 916 630 889 c 0
 630 885 630 880 629 876 c 1
 641 871 653 850 653 837 c 0
 653 823 638 808 623 803 c 1
 618 783 607 757 600 736 c 0
 585 688 575 646 575 601 c 0
 575 594 576 588 576 582 c 0
 576 575 570 575 562 578 c 0
 510 594 482 634 468 677 c 1
 449 679 422 693 422 715 c 0
 422 724 424 736 430 745 c 1
 414 763 401 782 401 797 c 0
 401 804 404 810 412 814 c 1
 424 811 434 809 440 809 c 0
 449 809 453 812 453 816 c 0
 453 825 438 839 420 848 c 1
 412 839 399 833 385 833 c 0
 374 833 362 837 353 846 c 1
 343 838 336 825 336 811 c 1
 339 802 340 794 340 785 c 0
 340 760 328 735 310 715 c 1
 310 580 l 1
 304 580 l 1
 304 718 l 1
 323 736 334 761 334 786 c 0
 334 794 333 802 331 810 c 1
 331 811 331 813 331 814 c 0
 331 829 342 845 353 852 c 1
 362 844 375 840 386 840 c 0
 399 840 411 845 417 854 c 1
 442 843 460 826 460 815 c 0
 460 809 454 805 441 805 c 0
 434 805 424 806 412 809 c 1
 408 806 407 803 407 798 c 0
 407 778 438 742 463 725 c 1
 474 666 497 602 565 582 c 0
 567 582 571 580 571 582 c 0
 570 590 570 598 570 606 c 0
 570 650 581 691 595 739 c 0
 603 766 619 799 619 819 c 0
 619 827 617 833 611 836 c 0
 609 837 609 838 610 841 c 1
 618 851 624 872 624 893 c 0
 624 916 617 938 597 944 c 1
 595 944 l 2
 589 944 578 942 562 942 c 0
 539 942 507 947 476 975 c 0
 464 985 453 989 442 989 c 0x0041ced65fe6e0b3
 434 989 425 986 416 982 c 1
 408 989 397 992 386 992 c 0
 374 992 361 989 347 981 c 1
 318 976 297 972 273 956 c 1
 259 978 239 992 217 992 c 0
 195 992 171 979 146 949 c 1
 113 933 83 901 83 864 c 0
 83 845 92 824 112 804 c 1
 108 795 106 785 106 775 c 0
 106 763 109 751 115 744 c 1
 96 726 85 697 85 674 c 0
 85 631 112 584 155 549 c 1
 205 510 281 474 331 447 c 0
 332 447 495 365 503 329 c 1
 483 320 475 298 475 283 c 0
 475 275 477 270 480 267 c 0
 481 265 481 263 480 262 c 0
 471 251 468 238 468 227 c 0
 468 217 470 209 474 204 c 1
 466 178 445 167 421 167 c 1
 409 178 391 186 373 186 c 0
 363 186 353 184 345 177 c 1
 342 176 341 176 340 178 c 0
 332 203 314 229 306 247 c 1
 331 260 355 291 355 322 c 0
 355 339 348 356 332 371 c 1
 338 382 341 394 341 407 c 0
 341 412 340 418 339 424 c 0
 339 426 343 426 345 425 c 1
 347 419 348 412 348 406 c 0
 348 394 345 383 340 374 c 1
 356 358 362 340 362 322 c 0
 362 289 339 257 313 245 c 1
 322 227 335 208 343 184 c 1
 353 191 364 193 374 193 c 0
 393 193 411 185 423 173 c 1
 444 173 459 183 467 204 c 1
 464 209 461 218 461 228 c 0
 461 239 464 252 474 264 c 1
 471 269 469 277 469 285 c 0
 469 302 476 321 496 331 c 1
 484 362 330 441 329 442 c 0
 306 454 278 467 243 488 c 1
 211 506 179 524 147 549 c 1
 105 584 79 628 79 679 c 0
 79 701 90 726 107 745 c 1
 102 753 99 763 99 776 c 0
 99 784 100 793 105 803 c 1
 85 824 76 846 76 866 c 0
 76 889 87 910 103 927 c 1
 101 932 100 939 100 947 c 0
 100 960 104 975 111 983 c 0
 117 989 127 991 138 991 c 0x0051c4ee5fe6e0b3
 150 991 162 988 171 982 c 1
137 986 m 0x0041c5e66fe00003
 115 986 106 968 106 947 c 0
 106 941 107 936 108 931 c 1
 118 941 130 948 142 954 c 1
 150 964 158 972 166 978 c 1
 157 983 147 986 137 986 c 0x0041c5e66fe00003
466 683 m 1
 462 696 460 708 458 720 c 1
 450 726 442 733 434 741 c 1
 429 731 427 721 427 714 c 0x0041c4c60fe20003
 427 698 452 686 466 683 c 1
EndSplineSet
Validated: 1
EndChar

StartChar: uni0412
Encoding: 1042 1042 46
Width: 766
Flags: HW
HStem: -10.1089 5.10894<94.8763 145.424 367.474 392.942 642.927 689.911> -1.71698 5.81244<533.224 551.529> 4.18633 5.93238<414.901 448.41> 7.69067 46.3093<142.954 181.905> 15 6<298.999 329.392> 33.6562 53.3438<257.731 309.953> 34.0294 5.90806<483.376 520.964 525.422 532.226> 48 68<611.114 664.983> 79.2825 9.66621<568.711 586.999> 104.207 19.7926<587.953 593.954> 170 25.2331<219.35 235.384> 177.784 5.84662<353.859 395.31 430.266 467.651> 179 35.3584<530.119 652.667> 210.338 25.6623<227 232.784> 229.599 61.2415<513.66 648.903> 281 40.6903<163.352 292.556> 306.223 29.7775<566.531 588.368> 336.845 73.3775<180.224 309.271> 430 44.3272<433.412 572.164> 485.81 6.2692<472.876 534.83> 519.395 5.57092<460.631 509.314> 536.981 46.9991<401.809 521.536> 594 51.4832<383.244 483.966> 625.729 41.2709<575.327 641.24> 659.075 5.29541<406.141 449.972> 676.839 29.3887<520.651 633.63> 721.469 59.2348<497.419 635.533> 750.507 76.4933<174.209 312.565> 798.453 7.03558<372.42 411.844> 808.111 168.604<462.032 511.705> 842.088 43.912<147.232 298.786> 944 33<212.417 222.001> 985.327 4.19147<127.238 144.312> 988 6<202.877 240.349 378.249 415.577 457.248 489.822> 1025 6<426.134 445.747>
VStem: 45.9194 6.60297<17.3568 35.7015> 81.6348 6.36521<841.254 880.007> 93.2226 7.44748<293.852 340.655> 99.9418 31.0582<855.521 873.92> 104.348 6.13092<386.638 420.822 754.802 784.268> 110.799 32.2007<300.169 309.093> 111.966 4.32133<955.955 974.043> 136.158 5.84155<211.166 243.854> 154 11<222.455 234.997> 154 5<468.925 701.942> 172 56<474 690> 238 56<473 688> 257.17 5.24396<6.98037 22.528> 309 25<496.9 504.094 634.355 648> 310 46.6057<87.0014 100.018> 345.75 5.67389<380.003 419.617 757.333 789.765> 361.164 5.5961<298.423 333.951> 363 58<104.548 159.05> 371.337 58.8886<33.1945 159.486> 382.798 64.7284<831.268 963.587> 410 6<994.578 1014.59> 445.938 38.848<42.2621 157.962> 455 6<993.486 1015.02> 459.677 6.13785<687.123 719.51> 461.485 80.7595<840.86 954.318> 464.818 6.58585<752.281 785.596> 470.098 6.96518<194.733 242.933 274.286 289.049> 479.154 20.8459<692.477 700.227> 488.173 25.8271<194.029 208> 500.561 21.4391<80.0462 84.0007> 517.441 6.13452<13.2591 33.0943> 559.078 6.29193<11.8758 30.344> 598 84.1494<130.643 173.186> 621.204 5.50281<426.064 470.196> 648 5.32635<316.127 337.009> 673 6<246.33 277.271> 689.696 6.73132<690.132 734.841> 695.077 6.67206<161.698 206.748 785.185 811.456> 715 6<13.7765 43.2914>
AnchorPoint: "Diacritic" 426 1114 basechar 0
LayerCount: 3
Fore
SplineSet
436 985 m 2xc0007c40380401402040
 447 985 455 993 455 1004 c 0
 455 1015 447 1025 436 1025 c 0
 425 1025 416 1015 416 1004 c 0
 416 1000 417 996 420 993 c 1
 425 991 431 988 435 985 c 1
 436 985 l 2xc0007c40380401402040
310 87 m 1xc4007c40382440002040
 310 90 309 90 308 91 c 0
 288 97 275 109 261 122 c 0
 249 133 241 145 236 156 c 1
 234 167 230 168 227 170 c 1
 224 170 220 170 218 156 c 0
 216 144 211 120 194 100 c 0
 177 80 163 66 143 58 c 0xc4207c40388440002040
 142 58 142 56 142 54 c 0
 142 53 143 54 146 54 c 1xd0207c40382400002040
 161 61 182 72 201 95 c 0
 218 116 224 128 228 146 c 1
 228 146 228 146 230 144 c 1
 235 130 240 125 252 113 c 1
 265 102 283 92 306 87 c 0
 308 87 309 86 310 87 c 1xc4007c40382440002040
315 313 m 0
 316 315 318 317 316 318 c 1
 315 320 315 318 313 317 c 0
 305 310 293 300 275 291 c 0
 259 284 244 281 229 281 c 0
 202 281 175 290 148 312 c 0
 147 313 146 315 143 313 c 0
 143 312 143 311 144 309 c 0
 159 296 169 288 181 281 c 1
 194 276 206 273 220 270 c 1
 227 236 l 2xc0057c40388400002040
 228 236 229 236 233 237 c 1
 234 270 l 1
 249 272 262 275 280 285 c 1
 294 294 306 304 315 313 c 0
665 48 m 1xc1007c4038040000a040
 629 48 607 56 587 75 c 0
 583 78 578 79 573 79 c 0xc0807c4038040000a040
 566 79 559 78 551 78 c 0
 544 78 535 79 525 84 c 0
 524 84 523 85 522 82 c 0
 522 81 523 81 524 80 c 0
 551 65 559 77 581 66 c 1
 598 52 620 45 647 44 c 0
 653 44 658 45 665 48 c 1xc1007c4038040000a040
501 327 m 1
 486 360 397 395 345 431 c 1
 350 420 351 410 351 400 c 0
 351 389 349 378 345 370 c 1
 359 355 367 337 367 318 c 0
 367 290 350 261 316 241 c 1
 326 225 343 193 348 179 c 1xc0087c40380430042040
 357 182 366 184 374 184 c 0xc0107c40380430042040
 391 184 406 178 417 172 c 1
 424 180 437 185 451 185 c 0
 459 185 467 183 474 179 c 1
 475 181 476 183 477 186 c 1
 472 196 470 207 470 218 c 0xc0087c40380430042040
 470 233 474 248 480 259 c 1
 475 266 473 274 473 282 c 0
 473 299 483 316 501 327 c 1
599 170 m 1xc0607c40380400013040
 618 172 638 176 649 189 c 0
 651 190 654 194 653 195 c 0
 652 197 651 194 648 193 c 1
 638 183 615 179 593 179 c 0xc0087c40380400002440
 573 179 547 179 520 205 c 0
 519 206 517 209 514 208 c 1
 514 206 514 205 517 203 c 0
 535 185 553 170 587 170 c 1
 588 166 589 161 589 154 c 0
 589 142 588 135 588 131 c 1
 587 129 586 127 588 124 c 1
 590 124 592 129 593 131 c 0
 595 136 597 141 598 156 c 0
 598 161 600 165 599 170 c 1xc0607c40380400013040
238 473 m 2xc0007c40380600002040
 238 688 l 2
 238 693 228 694 228 690 c 2
 228 474 l 2
 228 470 238 468 238 473 c 2xc0007c40380600002040
572 340 m 0
 572 350 567 366 552 385 c 0
 539 402 524 411 504 420 c 1
 530 420 559 431 572 442 c 0
 573 444 573 444 572 446 c 0
 572 447 571 447 568 446 c 1
 563 441 555 439 542 434 c 0
 531 430 519 431 506 430 c 0
 497 430 490 431 479 434 c 0
 459 439 436 449 407 466 c 0
 380 482 357 494 340 509 c 0
 339 510 337 510 335 509 c 0
 335 508 335 506 336 504 c 0
 366 480 432 438 475 423 c 0
 493 417 515 407 538 386 c 0
 559 366 567 351 568 339 c 0
 568 337 568 336 571 336 c 0xc000fc40380400002040
 573 336 572 338 572 340 c 0
497 600 m 0
 497 605 485 594 471 594 c 0
 469 594 458 591 450 594 c 1
 428 599 407 604 390 612 c 1
 374 621 358 631 340 645 c 1
 337 646 336 649 334 648 c 1xc0007e40380480002040
 334 646 334 645 336 643 c 0
 351 629 367 619 383 610 c 0
 408 597 432 584 462 584 c 0
 474 584 482 587 491 592 c 1
 492 594 497 597 497 600 c 0
217 886 m 0xc0007c433a0400002040
 231 886 269 870 285 870 c 0
 303 870 316 877 325 889 c 0
 326 890 326 891 325 892 c 0
 324 894 325 891 322 890 c 1
 319 885 311 884 303 880 c 0
 297 877 289 877 278 879 c 1
 267 879 233 895 220 896 c 1
 219 903 218 909 218 915 c 0
 218 924 220 932 222 940 c 0
 222 941 223 943 220 944 c 0
 219 944 219 944 218 941 c 0
 213 934 208 921 208 897 c 1
 177 897 146 880 131 858 c 0
 131 857 131 858 133 855 c 1
 155 871 183 886 217 886 c 0xc0007c433a0400002040
472 740 m 1
 467 749 465 758 465 767 c 0xc0007cc8380400082040
 465 775 466 782 469 788 c 1
 448 790 433 798 422 807 c 1
 415 802 404 798 392 798 c 0
 378 798 364 803 352 814 c 1
 350 811 346 807 342 806 c 1
 349 796 352 785 352 774 c 0
 352 752 340 730 322 719 c 1
 343 688 390 664 430 664 c 0
 444 664 458 668 469 675 c 1
 462 685 460 695 460 704 c 0xc0007cc8380400202040
 460 718 465 731 472 740 c 1
120 8 m 0xd0007c40380480002040
 104 8 66 10 66 27 c 0
 66 31 68 36 72 39 c 0
 116 85 143 151 154 234 c 0
 154 236 158 235 160 235 c 0
 163 235 165 231 165 230 c 0
 176 209 205 195 232 195 c 0
 254 195 276 204 287 225 c 0
 288 229 294 232 299 232 c 0
 302 232 303 232 304 230 c 0
 322 200 324 182 339 159 c 0
 341 155 342 156 345 154 c 1
 347 151 351 150 351 149 c 0
 355 138 357 125 357 112 c 0xd0207c40381440002040
 357 85 348 57 334 39 c 0
 332 37 330 36 327 36 c 0
 320 34 312 34 304 34 c 0xc4207c40380480002040
 287 34 270 37 254 45 c 0
 246 49 240 49 233 44 c 0
 212 28 166 8 120 8 c 0xd0007c40380480002040
367 165 m 0
 368 165 370 165 371 165 c 0
 391 165 415 155 421 139 c 0xc0007c40380408002040
 428 121 430 106 430 91 c 0
 430 62 419 40 406 23 c 0
 399 14 388 8 376 8 c 0
 369 8 347 13 347 25 c 0
 347 27 347 29 348 31 c 0
 361 47 371 73 371 104 c 0xc0007c40380404002040
 371 119 369 135 363 152 c 0xc0007c40380408002040
 362 157 363 165 367 165 c 0
174 242 m 0
 143 253 111 281 111 316 c 0
 111 323 119 354 132 354 c 0
 134 354 136 353 139 350 c 0
 170 330 201 322 231 322 c 0
 267 322 300 334 324 351 c 1
 326 354 335 354 337 350 c 0
 344 339 348 328 348 318 c 0
 348 304 341 292 332 281 c 0
 315 262 303 254 280 240 c 0
 276 237 275 235 273 231 c 0
 266 218 249 210 230 210 c 0xc0057c40388400002040
 210 210 189 219 179 237 c 0
 179 239 175 242 174 242 c 0
471 45 m 0
 466 36 447 25 437 25 c 0
 433 25 426 26 432 37 c 0
 441 55 446 73 446 93 c 0
 446 111 442 129 432 150 c 1
 425 161 435 168 447 168 c 0
 455 168 462 164 467 156 c 0
 479 142 485 123 485 103 c 0xc0007c40380400802040
 485 84 480 64 471 45 c 0
310 422 m 0xc0007c40380440002040
 312 423 314 423 315 423 c 0
 327 423 334 409 334 399 c 0
 334 383 320 365 308 356 c 0
 289 343 263 337 237 337 c 0
 201 337 165 348 144 366 c 0
 132 377 122 391 122 406 c 0
 122 419 130 433 152 446 c 1
 155 449 159 447 161 445 c 0
 192 420 226 410 256 410 c 0
 276 410 295 415 310 422 c 0xc0007c40380440002040
589 89 m 0xd0807c4038040000a040
 610 89 646 113 664 116 c 0xc1007c4038040000a040
 667 116 670 116 672 113 c 0
 684 92 695 58 701 33 c 0
 702 31 702 28 702 26 c 0
 702 9 680 7 672 7 c 0
 616 7 597 26 559 55 c 0
 554 59 550 59 544 58 c 0
 531 55 522 52 512 52 c 0
 507 52 502 53 496 54 c 0
 495 54 493 55 493 56 c 0
 497 71 501 89 501 108 c 0
 501 123 498 139 490 152 c 0
 486 159 491 165 492 173 c 1
 501 166 508 159 522 150 c 0
 525 147 525 145 526 142 c 0
 541 116 559 89 589 89 c 0xd0807c4038040000a040
508 325 m 1
 490 316 480 298 480 281 c 0
 480 273 482 265 486 259 c 1
 480 247 477 231 477 216 c 0
 477 204 479 194 482 186 c 1
 480 181 480 169 472 172 c 1
 466 177 457 179 448 179 c 0
 436 179 423 175 417 166 c 1
 407 172 391 178 374 178 c 0
 365 178 355 176 346 172 c 1
 342 184 320 225 309 242 c 1
 345 262 361 290 361 316 c 0
 361 335 353 353 337 367 c 1
 342 374 346 386 346 399 c 0xc0107c403804b0042040
 346 412 342 426 335 439 c 1
 332 442 336 445 340 442 c 0
 394 402 493 365 508 325 c 1
673 144 m 0xc0487c40380400002240
 663 121 644 133 626 119 c 0
 615 110 603 104 592 104 c 0
 574 104 557 117 541 149 c 0
 539 155 533 159 525 165 c 0
 515 172 509 181 501 186 c 0
 493 191 488 203 488 216 c 0
 488 224 492 240 502 240 c 0
 504 240 506 239 509 237 c 0
 532 224 563 214 594 214 c 0
 616 214 638 219 658 231 c 0
 661 232 664 234 665 231 c 0
 678 214 682 198 682 183 c 0xc0487c40380400013040
 682 170 678 156 673 144 c 0xc0487c40380400002240
310 439 m 1xc0007c40380640002040
 296 431 276 427 255 427 c 0
 220 427 184 439 172 462 c 1
 172 709 l 1
 191 725 213 734 237 734 c 0
 255 734 274 729 294 719 c 1
 294 477 l 1
 299 464 310 458 310 444 c 0
 310 443 310 441 310 439 c 1xc0007c40380640002040
660 267 m 0
 660 239 615 230 583 230 c 0
 552 230 520 238 503 261 c 0
 496 271 492 280 492 288 c 0
 492 298 502 310 514 310 c 0
 517 310 520 309 523 307 c 0
 538 297 564 291 591 291 c 0xc0027c40380400002040
 606 291 620 293 634 296 c 0
 640 297 647 297 649 294 c 0
 655 287 660 277 660 267 c 0
636 313 m 1
 614 309 597 306 580 306 c 0
 570 306 560 307 550 309 c 0
 540 310 534 317 524 323 c 1
 509 379 390 406 309 485 c 1
 309 590 l 1xc000fc40380480002040
 347 538 418 474 508 474 c 0
 531 474 556 479 582 489 c 0
 584 490 584 490 587 489 c 0
 602 477 609 460 609 442 c 0
 609 423 601 405 590 395 c 0
 588 393 588 391 588 388 c 0
 588 386 589 384 592 382 c 0
 619 371 636 348 636 313 c 1
334 774 m 1
 332 758 325 745 313 735 c 0
 309 731 305 731 299 734 c 0
 278 744 257 751 235 751 c 0
 213 751 190 743 169 725 c 0
 163 720 155 721 149 724 c 0
 134 731 124 753 124 771 c 0
 124 781 127 789 133 794 c 0
 170 822 194 827 225 827 c 0xc0007c50380480002040
 278 827 334 805 334 775 c 0
 334 774 l 1
487 537 m 0
 432 537 374 567 309 622 c 1
 309 705 l 1
 325 681 368 645 422 645 c 0xc0007e40380480002040
 442 645 463 650 485 661 c 1
 501 651 l 1
 501 650 501 648 501 647 c 0
 501 625 509 596 533 596 c 0
 544 596 558 602 576 616 c 1
 600 611 l 1
 587 574 534 537 487 537 c 0
353 954 m 1
 364 940 368 921 368 901 c 0
 368 877 361 853 351 839 c 1
 341 837 327 830 321 816 c 1
 287 835 256 842 226 842 c 0
 188 842 155 830 127 814 c 1
 112 817 100 844 100 866 c 0
 100 894 121 917 160 935 c 1
 179 967 203 977 227 977 c 0xc0007c433a0400002040
 241 977 259 959 270 938 c 0
 271 934 275 934 280 937 c 0
 302 948 337 951 353 954 c 1
480 737 m 0
 472 729 466 717 466 703 c 0xc0007cc8380400202040
 466 693 469 683 475 674 c 1
 463 664 446 659 428 659 c 0
 385 659 335 685 315 721 c 1
 333 731 346 753 346 774 c 0
 346 785 342 795 335 804 c 0
 334 806 334 807 336 809 c 0
 342 812 345 816 350 821 c 0
 351 822 353 822 355 821 c 0
 365 810 379 805 392 805 c 0
 404 805 415 809 423 814 c 1
 433 803 454 793 475 791 c 1
 473 786 471 779 471 771 c 0xc0007cc8380400082040
 471 761 474 750 480 742 c 0
 481 741 481 739 480 737 c 0
659 737 m 0
 661 739 663 739 664 739 c 0
 673 739 678 719 678 710 c 0
 678 670 636 626 597 626 c 0
 589 626 582 627 575 631 c 1
 557 619 544 612 534 612 c 0
 520 612 514 627 512 662 c 1
 495 669 479 683 479 700 c 0xc0007d40380400022040
 479 710 484 726 492 726 c 0
 494 726 495 726 497 725 c 0
 520 714 546 706 573 706 c 0
 601 706 631 715 659 737 c 0
448 896 m 0xc0007c40380402002040
 448 858 432 818 391 818 c 0
 381 818 364 822 364 830 c 0
 364 832 365 833 366 835 c 0
 376 847 383 873 383 900 c 0
 383 923 378 945 367 962 c 1
 368 972 383 977 399 977 c 0
 412 977 424 974 428 967 c 0
 441 945 448 920 448 896 c 0xc0007c40380402002040
674 822 m 0
 679 815 681 808 681 801 c 0
 681 786 672 772 664 760 c 1
 639 736 601 721 565 721 c 0
 540 721 515 729 495 745 c 0
 488 750 485 758 485 766 c 0
 485 776 489 787 496 795 c 1
 506 789 531 781 561 781 c 0xc0007c60380400002040
 593 781 630 790 658 822 c 0
 662 827 670 827 674 822 c 0
472 977 m 0xc0007c44380400102040
 502 977 542 946 542 909 c 0
 542 866 518 831 491 811 c 1
 484 809 477 808 471 808 c 0
 461 808 438 813 438 823 c 0
 438 824 438 825 439 826 c 0
 452 846 461 872 461 902 c 0
 461 920 458 940 449 960 c 0
 448 964 445 965 449 969 c 0
 456 974 464 977 472 977 c 0xc0007c44380400102040
651 837 m 1
 632 812 591 795 556 795 c 0
 544 795 533 797 524 801 c 1
 524 807 520 811 517 812 c 1
 545 839 557 876 559 911 c 1
 598 902 640 873 651 837 c 1
472 987 m 0
 459 987 445 983 436 977 c 1
 431 981 423 982 418 986 c 1
 412 988 406 989 400 989 c 0
 382 989 364 982 352 967 c 1
 335 965 300 962 277 951 c 1
 262 974 246 988 224 988 c 0
 191 988 169 969 152 945 c 1
 119 927 90 902 88 862 c 1
 88 836 102 815 119 800 c 1
 114 789 112 779 112 769 c 0
 112 745 127 723 159 703 c 1
 159 466 l 1
 134 456 110 434 110 404 c 0
 110 393 113 382 120 370 c 1
 107 355 101 337 101 318 c 0
 101 291 115 263 142 245 c 1
 141 162 105 100 56 36 c 0
 54 33 53 30 53 27 c 0
 53 11 79 -4 115 -5 c 0
 159 -5 201 12 227 27 c 1
 230 31 236 33 241 36 c 1
 269 24 297 21 330 21 c 1
 345 5 363 -4 380 -4 c 0
 393 -4 406 1 417 12 c 1
 422 11 427 10 431 10 c 0
 455 10 473 26 484 41 c 1
 487 40 492 40 497 40 c 0
 507 40 520 41 532 43 c 1
 536 44 541 45 545 44 c 0
 546 45 548 45 549 45 c 0
 586 19 611 -4 672 -5 c 0
 694 -5 715 5 715 26 c 0
 715 52 687 108 680 125 c 1
 687 144 695 164 695 188 c 0xea007c417d2c000022c0
 695 213 682 235 673 250 c 1
 673 285 663 299 648 312 c 1
 648 313 648 314 648 315 c 0
 648 350 630 376 606 392 c 1
 615 409 621 430 621 449 c 0
 621 472 613 493 592 509 c 1
 560 493 531 486 503 486 c 0
 435 486 379 529 335 576 c 0
 332 579 335 584 339 581 c 0
 399 546 440 525 491 525 c 0
 537 525 595 560 614 613 c 1
 663 632 690 675 690 714 c 0
 690 728 686 742 679 754 c 1xea007c41780400002f40
 685 763 694 779 694 798 c 0
 694 813 689 830 672 847 c 1
 638 891 599 912 554 928 c 1
 536 964 505 987 472 987 c 0
679 251 m 1
 689 234 702 211 702 182 c 0
 702 161 691 142 685 125 c 1
 694 107 721 52 721 26 c 0
 721 2 699 -10 672 -10 c 0
 618 -9 593 6 564 28 c 1
 565 25 565 22 565 19 c 0
 565 6 554 -2 542 -2 c 0
 528 -2 517 9 517 23 c 0
 517 27 519 31 521 34 c 1
 517 34 513 34 510 34 c 0
 501 34 493 35 487 36 c 1
 474 21 460 4 435 4 c 0
 430 4 425 5 420 6 c 1
 407 -6 394 -11 380 -11 c 0
 362 -11 344 -2 327 15 c 1
 301 15 284 23 260 23 c 1
 262 19 262 16 262 13 c 0
 262 2 252 -4 242 -4 c 0
 233 -4 221 3 223 19 c 1
 199 5 162 -10 121 -10 c 0
 80 -10 46 7 46 26 c 0
 46 30 47 34 50 37 c 0
 97 96 136 171 136 235 c 0
 136 237 136 240 136 242 c 1
 108 262 93 289 93 317 c 0
 93 336 100 355 114 371 c 1
 107 383 104 395 104 406 c 0
 104 436 128 459 154 470 c 1
 154 701 l 1
 120 721 104 743 104 767 c 0
 104 777 106 787 111 798 c 1
 96 814 82 833 82 857 c 0
 82 898 102 923 132 941 c 1
 120 943 112 954 112 966 c 0
 112 978 121 990 135 990 c 0xea007c40bd6d00006ec0
 148 990 160 979 160 965 c 0
 160 964 160 964 160 963 c 1
 176 981 196 994 224 994 c 0
 247 994 265 982 280 959 c 1
 303 969 331 970 350 972 c 1
 364 988 383 995 401 995 c 0
 404 995 408 995 412 994 c 1
 411 997 410 1000 410 1004 c 0
 410 1019 421 1031 436 1031 c 0
 450 1031 461 1021 461 1007 c 0
 461 1001 460 996 457 991 c 1
 463 993 469 994 476 994 c 0
 509 994 541 970 559 932 c 1
 603 916 643 897 676 851 c 1
 694 832 700 814 700 798 c 0
 700 779 691 763 685 754 c 1
 693 741 696 726 696 711 c 0
 696 671 670 628 619 608 c 1
 597 549 536 519 481 519 c 0
 440 519 404 535 357 563 c 1
 396 523 445 492 503 492 c 0
 530 492 560 499 592 515 c 1
 617 497 627 474 627 449 c 0
 627 430 621 411 612 393 c 1
 636 378 653 356 653 324 c 0xc0007c407d6d01406d40
 653 321 653 319 653 316 c 1
 668 300 679 289 679 251 c 1
643 687 m 1
 643 687 642 687 642 688 c 0
 642 690 642 690 640 690 c 1
 627 681 609 677 590 677 c 0
 557 677 520 688 504 701 c 0
 502 702 502 702 500 701 c 1
 500 699 501 699 503 697 c 0
 511 692 518 686 529 681 c 0
 539 677 545 674 555 671 c 1
 552 662 552 659 549 651 c 1
 546 646 541 638 534 631 c 1
 532 627 534 623 539 626 c 1
 551 638 560 649 567 667 c 1
 579 667 l 2xc0007d40380400022040
 601 667 633 677 643 687 c 1
135 945 m 0
 146 945 156 954 156 965 c 0
 156 976 146 985 136 985 c 0
 124 985 116 976 116 965 c 0xc0007c40b84400002040
 116 953 124 945 135 945 c 0
229 22 m 1
 228 20 228 18 228 16 c 0
 228 7 235 1 242 1 c 0
 252 1 257 8 257 15 c 0xc0007c40380500002040
 257 18 256 22 255 25 c 1
 250 26 246 28 241 30 c 1
 238 28 234 25 229 22 c 1
524 24 m 0xc0007c40380400006040
 524 13 532 4 543 4 c 0
 553 4 559 14 559 23 c 0
 559 30 556 36 548 39 c 1
 541 37 535 36 528 35 c 1
 525 32 524 28 524 24 c 0xc0007c40380400006040
EndSplineSet
Validated: 1
EndChar

StartChar: uni0413
Encoding: 1043 1043 47
Width: 737
Flags: HW
HStem: -15 5<201.319 217.567> -6 11<49.7629 160.597 256.743 367.796> 12.7352 29.2259<82.8643 131.121 287.696 334.538> 321 82<166.811 203 214 251.515> 413 41.5318<140.994 272.362> 437 8<606.28 618.908> 466.877 75.0859<139.936 284.592> 554 204<144.166 273.881> 554 193<144.166 204.995 214.324 273.973> 728.199 4.74884<501.655 516.752> 762 73<300 324.416> 769.904 78.0959<133.701 281.015> 825.428 7.53027<433.903 467.842> 838.218 4.77155<670.744 686.485> 858.258 44.7418<131.475 282.139> 873 34.3146<501 517.95> 873.862 4.42102<676.229 686.058> 912 66<156.792 203 213 264.902> 915.899 74.2201<482.994 548.002> 927.487 43.4398<542.495 654.43> 930 48.7896<366.563 406.555> 973.31 2.4386<295.59 305.954> 974.31 3.76917<111.94 124.435> 986 7<185.51 236.535 571.747 633.503> 1003.06 6.94153<476.514 526.558> 1018.28 3.77301<433.293 445.921>
VStem: 37.1834 8.08152<10.7629 25.1848> 76 7<420.104 457.65> 91.5748 6.07996<511.303 540.112 785.133 810.956> 99.3687 3.90987<953.396 965.671> 126 6<278.333 365.947 572.454 744.796> 142.057 60.9429<159.03 264 573 741> 190 5<-4.6262 6.49434> 214 61<164.839 265 573 741> 222 5<-5.73911 6.36465> 286 7<283.214 365.992 573.374 745.589> 317.866 3.20361<951.092 961.872> 334.53 7.47<415.884 458.992> 347.171 6.36453<927.352 964.364> 371.716 8.21585<10.2248 23.697> 420.695 3.5892<996.301 1009.26> 428 58.2784<844.722 907.752> 455.201 3.09628<998.626 1007.93> 488.218 3.93222<743.102 756.447> 514.512 7.23029<614.794 722.927> 528 42.2177<863.977 914.928> 533.312 46.6165<607.944 725.249> 577.246 35.9533<775.4 874.652> 613.581 7.05713<457.96 529.198> 623.167 36.241<716.536 856.854> 669 8<691.355 805.311> 689.16 7.20203<915.916 969.197> 694.739 3.46997<852.059 864.655>
AnchorPoint: "Diacritic" 428 1114 basechar 0
LayerCount: 3
Fore
SplineSet
424 1003 m 0xf20000fe1fb8e0
 424 993 434 991 440 988 c 1
 446 988 455 995 455 1002 c 0
 455 1010 447 1018 440 1018 c 0
 432 1018 424 1011 424 1003 c 0xf20000fe1fb8e0
440 1022 m 0
 451 1022 458 1012 458 1003 c 0
 458 1001 458 1000 458 998 c 1
 469 1005 481 1010 498 1010 c 0
 539 1010 571 992 601 992 c 0
 623 992 655 999 658 1016 c 0
 659 1018 660 1018 661 1018 c 0
 662 1018 663 1019 664 1018 c 0
 685 1002 696 973 696 938 c 0xf20005febfb8f0
 696 915 688 894 676 878 c 1
 677 878 678 878 679 878 c 0
 688 878 698 870 698 859 c 0
 698 847 690 838 677 838 c 0
 674 838 671 839 668 841 c 1
 674 810 677 764 677 734 c 0
 677 637 621 580 621 495 c 0
 621 481 622 465 626 449 c 1
 626 442 619 437 615 437 c 0
 582 442 516 540 516 631 c 0
 516 646 515 661 515 675 c 0
 515 695 516 714 519 731 c 1
 516 729 512 728 509 728 c 0
 498 728 488 737 488 749 c 0
 488 759 496 769 507 769 c 1
 491 787 482 811 479 835 c 1xf66485fe1f98e8
 476 832 464 825 453 825 c 0
 439 825 427 831 425 836 c 1
 403 805 330 757 293 745 c 1
 293 575 l 1
 309 567 325 548 328 530 c 1
 328 514 324 504 314 493 c 1
 331 481 342 461 342 442 c 0
 342 417 335 386 294 365 c 1
 294 307 l 2
 294 208 345 74 374 26 c 0
 377 23 380 18 380 13 c 0
 380 4 369 -6 330 -6 c 0
 291 -6 253 -2 226 6 c 1
 227 5 227 3 227 1 c 0
 227 -9 219 -15 210 -15 c 0
 200 -15 190 -9 190 1 c 0
 190 3 190 5 191 7 c 1
 165 -2 126 -6 88 -6 c 0
 46 -6 37 4 37 13 c 0
 37 18 39 23 41 26 c 0
 72 74 125 208 125 307 c 2
 125 365 l 1
 89 385 76 418 76 442 c 0
 76 461 89 484 105 493 c 1
 96 503 92 514 92 525 c 0
 92 545 106 563 126 574 c 1
 126 744 l 1
 104 752 91 776 91 799 c 0
 91 816 98 827 111 837 c 1
 95 846 77 860 77 889 c 0
 77 913 95 931 112 941 c 1
 105 944 99 951 99 958 c 0
 99 968 109 978 120 978 c 0xf20802febf98e8
 129 978 137 969 138 961 c 1
 153 980 181 993 210 993 c 0
 240 993 266 982 283 961 c 1
 285 971 294 976 303 976 c 0
 312 976 321 970 321 958 c 0
 321 951 316 943 309 940 c 1
 322 933 336 921 340 913 c 1
 345 916 350 921 351 925 c 1
 349 930 347 938 347 946 c 0
 347 960 352 976 362 986 c 0xf20005febf98e8
 373 995 386 999 400 999 c 0
 407 999 415 997 422 995 c 1
 421 997 421 1000 421 1002 c 0
 421 1013 430 1022 440 1022 c 0
287 959 m 0
 287 947 296 946 305 942 c 1
 312 942 318 949 318 955 c 0
 318 964 309 973 301 973 c 0
 293 973 287 966 287 959 c 0
118 974 m 0xf20002fe1f98e0
 110 974 103 967 103 960 c 0
 103 953 110 946 117 944 c 1
 122 946 127 948 131 949 c 1
 132 951 133 954 135 956 c 1
 135 965 126 974 118 974 c 0xf20002fe1f98e0
131 55 m 1
 127 60 121 60 116 59 c 1
 112 54 113 42 120 42 c 0
 127 42 133 47 131 55 c 1
303 55 m 0
 300 60 293 60 289 58 c 1
 285 54 285 42 293 42 c 0
 301 42 306 47 303 55 c 0
264 70 m 1
 254 84 249 93 241 103 c 1
 230 123 214 160 214 198 c 2
 214 265 l 2
 214 274 203 273 203 264 c 2
 203 198 l 2xf20000ff5f98e0
 203 160 184 123 174 104 c 1
 165 90 160 80 152 70 c 1
 165 84 170 93 179 103 c 1
 185 113 200 134 208 159 c 1
 214 134 229 114 235 103 c 1
 244 93 251 80 264 70 c 1
287 440 m 0
 292 444 289 445 285 441 c 1
 261 426 239 413 210 413 c 0xfa0000ff5f98e0
 176 413 151 428 127 441 c 0
 122 444 125 439 127 437 c 0xf60000ff5f98e0
 144 424 171 403 203 403 c 1
 203 348 l 2
 203 339 214 338 214 347 c 2
 214 403 l 1
 244 403 270 424 287 440 c 0
214 573 m 2
 214 741 l 2
 214 747 205 747 205 741 c 2
 205 573 l 2
 205 567 214 567 214 573 c 2
281 887 m 0
 267 899 238 912 210 912 c 1
 210 949 l 2
 210 955 208 955 207 949 c 2
 203 912 l 1
 173 912 149 901 130 885 c 0
 125 881 125 877 130 881 c 0
 149 895 179 903 208 903 c 0xf20240ff1f98e0
 237 903 260 896 278 885 c 0
 283 882 286 884 281 887 c 0
391 876 m 0
 395 879 390 884 386 881 c 0
 368 864 345 827 326 816 c 0
 324 815 326 810 329 811 c 0
 347 822 373 859 391 876 c 0
353 16 m 1
 344 15 333 14 322 14 c 0
 281 14 233 23 210 44 c 1
 186 25 139 13 97 13 c 0
 85 13 73 14 62 16 c 1
 92 64 142 189 142 301 c 0
 142 303 142 305 142 307 c 2
 142 361 l 1
 155 328 175 309 210 309 c 0
 240 309 260 326 275 360 c 1
 275 307 l 1xf20000ff5f98e0
 275 197 323 67 353 16 c 1
324 436 m 0
 324 402 289 381 265 366 c 1
 256 343 237 321 210 321 c 0
 180 321 160 343 154 367 c 1
 126 381 96 402 96 433 c 0
 96 447 101 462 111 471 c 1
 116 474 121 476 130 474 c 1
 157 462 184 455 213 455 c 0xfa0000fe1f98e0
 238 455 264 460 291 472 c 1
 296 476 303 474 308 471 c 1
 318 461 324 451 324 436 c 0
308 525 m 0
 308 480 260 467 216 467 c 0
 184 467 152 474 135 485 c 0
 122 494 111 505 111 525 c 0
 111 544 133 558 144 558 c 0
 145 558 145 558 146 558 c 0
 172 548 193 542 215 542 c 0
 234 542 253 546 274 556 c 0
 275 556 276 557 277 557 c 0
 288 557 308 543 308 525 c 0
275 569 m 1xf30000fe5f98e0
 253 559 237 554 211 554 c 0xf30000fe5f98e0
 185 554 168 562 143 574 c 1
 143 747 l 1xf28000fe5f98e0
 164 756 185 758 211 758 c 0
 235 758 251 755 275 746 c 1
 275 569 l 1xf30000fe5f98e0
109 791 m 0
 109 838 171 848 207 848 c 0
 243 848 297 842 297 804 c 0
 297 784 283 767 275 760 c 1
 255 767 231 770 208 770 c 0xf31000fe5f98e0
 182 770 158 766 141 758 c 1
 123 764 109 775 109 791 c 0
329 889 m 0
 329 867 308 847 289 839 c 1
 264 852 234 858 206 858 c 0
 178 858 152 853 132 843 c 1
 118 848 93 865 93 888 c 0
 93 915 123 930 144 938 c 1
 151 959 180 978 210 978 c 0xf20640fe1f98e0
 241 978 272 961 278 933 c 1
 298 933 329 911 329 889 c 0
291 762 m 1xf22000fe1f98e0
 299 772 308 786 308 805 c 0
 308 816 304 824 300 835 c 1
 334 855 347 895 371 922 c 1
 394 918 419 885 419 853 c 1
 395 819 314 766 291 762 c 1xf22000fe1f98e0
486 889 m 0xf20008fe1fd8e0
 486 870 476 842 452 842 c 0
 443 842 434 845 428 853 c 1
 428 884 409 922 371 930 c 1
 367 935 365 942 365 949 c 0
 365 968 384 979 403 979 c 0
 443 979 486 933 486 889 c 0xf20008fe1fd8e0
598 476 m 1
 563 524 533 578 533 659 c 0
 533 698 544 728 565 766 c 1
 563 766 560 766 558 766 c 0
 519 766 494 814 494 852 c 1
 491 846 487 841 486 839 c 1
 490 806 502 777 532 760 c 0
 534 758 534 757 533 755 c 0
 525 732 522 703 522 670 c 0
 522 657 523 644 523 631 c 0
 523 545 584 450 615 445 c 0
 616 445 618 446 619 447 c 1
 615 464 614 479 614 494 c 0
 614 580 669 638 669 734 c 0
 669 774 664 843 653 860 c 0
 652 862 653 864 655 865 c 0
 673 883 689 910 689 941 c 0
 689 970 680 993 664 1009 c 1
 657 991 624 985 598 985 c 0
 563 985 536 1003 497 1003 c 0
 475 1003 457 992 443 980 c 0
 442 978 439 978 438 980 c 0
 429 987 415 992 400 992 c 0
 389 992 377 989 367 981 c 0
 357 973 354 958 354 945 c 0
 354 936 355 929 358 925 c 1
 364 921 342 904 340 903 c 0
 336 901 335 901 334 905 c 0
 331 917 302 938 288 940 c 1
 274 970 245 986 210 986 c 0
 176 986 144 966 136 943 c 1
 121 939 87 921 84 896 c 1
 84 863 101 852 120 839 c 0
 122 838 122 836 120 835 c 0xf62211fe1f9af0
 106 825 99 815 99 799 c 0
 99 778 110 756 132 751 c 1
 132 569 l 1
 115 565 98 547 98 527 c 0
 98 513 104 503 111 494 c 0
 115 490 113 489 111 487 c 1
 96 481 87 465 83 446 c 1
 83 422 91 391 131 372 c 1
 131 311 l 2
 131 208 78 74 49 25 c 0
 47 22 45 19 45 17 c 0
 45 10 54 5 88 5 c 0
 136 5 185 10 206 25 c 1
 208 25 210 26 211 25 c 0
 234 10 283 5 330 5 c 0
 363 5 372 10 372 16 c 0
 372 19 370 22 368 25 c 0
 339 74 288 208 288 311 c 2
 288 372 l 1
 323 389 335 415 335 438 c 0
 335 461 323 480 308 487 c 0
 304 489 303 490 305 494 c 1
 312 502 320 512 320 525 c 0
 320 546 303 567 286 570 c 1
 286 751 l 1
 333 768 393 809 423 846 c 1
 430 836 438 833 448 833 c 0xf20800fe1f9af0
 453 833 458 834 463 835 c 0
 488 840 496 876 496 896 c 0
 496 900 495 903 495 905 c 1
 497 907 499 907 501 907 c 0
 509 907 518 899 518 890 c 0
 518 880 509 871 501 873 c 1
 498 863 l 2
 499 863 499 863 500 863 c 0
 518 863 528 876 528 889 c 0
 528 901 516 916 501 916 c 0
 498 916 495 915 492 914 c 1
 492 928 471 961 449 971 c 1
 461 985 478 990 496 990 c 0xf22120fe1f9cf0
 533 990 575 971 601 971 c 2
 608 971 l 2xf20010fe1f9cf0
 632 971 650 972 669 987 c 1
 675 973 678 961 678 949 c 0
 678 915 657 887 636 868 c 1
 653 836 659 799 659 756 c 0
 659 749 659 742 659 735 c 0
 659 634 598 572 598 484 c 0
 598 482 598 479 598 476 c 1
575 919 m 1
 580 918 585 918 590 918 c 0
 619 918 641 929 657 946 c 0
 660 949 661 952 660 952 c 0
 659 952 658 952 656 950 c 0
 639 936 617 927 593 927 c 0
 578 927 562 931 548 939 c 0
 536 945 532 930 543 925 c 0
 559 919 570 893 570 871 c 0
 570 846 556 831 540 817 c 1
 535 814 536 811 541 815 c 0
 562 828 577 841 577 873 c 0
 577 885 575 898 570 908 c 1
 600 881 613 841 613 795 c 0xf20010fe1f9de0
 613 735 592 712 582 661 c 0
 581 653 580 646 580 638 c 0
 580 619 583 602 587 589 c 0
 588 582 591 582 589 589 c 0
 587 600 585 616 585 632 c 0
 585 641 585 649 587 657 c 0
 597 709 623 734 623 794 c 0
 623 842 607 888 575 919 c 1
695 859 m 0xf20480fe1f98e8
 695 866 687 874 679 874 c 0
 672 874 664 867 663 862 c 1
 664 858 665 854 666 849 c 1
 670 845 674 843 678 843 c 0
 687 843 695 850 695 859 c 0xf20480fe1f98e8
511 765 m 0
 509 765 l 0
 500 765 492 758 492 750 c 0
 492 742 502 733 509 733 c 0xf24000fe1f98e0
 513 733 517 735 520 738 c 1
 521 743 522 749 524 754 c 1
 519 757 515 761 511 765 c 0
197 9 m 1
 196 6 195 4 195 1 c 0
 195 -5 203 -10 210 -10 c 0
 217 -10 222 -5 222 1 c 0xf20000febf98e0
 222 4 221 6 220 8 c 1
 216 10 212 12 208 14 c 1
 205 12 201 10 197 9 c 1
EndSplineSet
Validated: 1
EndChar

StartChar: uni0414
Encoding: 1044 1044 48
Width: 919
Flags: HW
HStem: -234.692 4.07045<697.276 713.139> -200.461 6.41766<199 199.587 699.046 716.001> -184.309 39.7956<190.427 239.896 683.728 729.75> -136.736 7.21706<224.768 283.703> -133.068 7.54419<643.215 695.778> -71.9225 7.54561<449.845 488.532 671.058 693.423> -64.31 8.0865<217.515 253.13 682.285 709.938> -54.345 7.1577<413.543 430.907 506.265 507.871 510.156 543.657> -52.2656 35.7391<660.051 694.316> -45.7031 49.9965<203.81 274.563> -36 64<773 815.153> -6.32342 21G<649.119 667.486> 14.5885 118.966<231.4 307.517> 91.1674 7.17595<447.591 485.897> 97.272 5.88736<154.236 173.9> 103.069 6.27705<708.265 738.941> 145.975 96.8379<292.045 341.282> 251.614 44.1329<256.067 347.491> 275 84<558.08 605 616 662.61> 279 20G<360.962 376.265> 308.037 121.505<259.582 312.031> 369 38.9922<541.392 668.346> 421.992 74.1023<529.844 683.578> 440 69.9691<504.901 605.808 608.443 618.064 619.934 705.081> 643.964 7.57361<331.049 379.505> 756.104 3.83142<240.626 253.32> 782 7<408.971 437.642> 792.273 3.77405<237.697 249.306> 798.615 31.4373<382.039 461.092> 839.268 32.7291<320.906 474.861> 852 37.2622<584.566 673.08> 876.972 7.99994<350.404 436.348> 880.556 6.96356<373.159 470.222> 897.715 45.2853<580.064 649.225> 952 75.5028<574.62 611> 1014.52 3.91058<698.508 712.357> 1017.03 3.71259<526.209 539.919> 1037.27 9.23657<597.065 642.951>
VStem: 28.3437 6.97047<-110.952 -51.5461> 45.5942 44.8971<-151.276 -52.7212> 100.414 16.2988<-107.616 -74.7335> 104.347 6.48504<-302.886 -258.147> 117.825 5.7836<36.4263 59.3337> 125.213 58.7973<-226.822 -210.565 -127.052 -51.211> 139 43<-197.276 -184.792 25.8411 86.4084> 178.52 8.15984<252.737 301.208> 192.699 6.57237<-222.866 -203.004> 198.299 7.44778<-114.708 -81.1241> 212.38 7.40941<356.945 393.498> 225.37 3.98239<770.738 783.247> 228.493 7.51146<831.021 881.155> 229.048 4.01343<-226.18 -210.42> 255.642 7.22018<722.32 764.769> 279.83 85.5444<685.575 774.747> 289.822 7.63022<-27.0414 -10.1306> 304.702 6.63708<922.497 943> 370.763 7.23669<148.99 188.935> 377.868 7.0921<717.213 758.374> 404.694 5.78799<236.772 277.189> 419.888 7.84021<336.509 376.088> 449.759 69.3334<-40.5791 65.2501> 460 7<713.097 757.391> 467.059 8.01779<375.572 418.316> 478.099 25.7409<697.265 778.022> 482.42 7.06763<453.29 488.659> 493.054 7.75494<889.631 936.375> 511.723 22.485<699.335 791.28> 514.027 3.66724<994.74 1008.33> 525 7<132.015 311.097 529.02 662.686> 543 63<83.9095 98.3947 537 760> 617 57<88.2054 91.7996 537 760> 626 7<-36.1718 -21> 684.529 3.96381<-222.221 -207.208> 685 6<529.032 784.099> 687.895 7.93268<138.2 309.612> 715.164 48.2444<0.184208 83.5491> 717.436 9.0722<-108.728 -74.153 444.853 495.946 986.548 1010.68> 724.853 6.96191<822.536 859.837> 732.446 7.58545<371.98 422.388 898.488 940.596> 772.393 7.60736<47.5356 67.3498> 781 9.03943<-187.276 -177.692> 791.896 22.7302<-114.641 -67.5091> 800.592 6.62<-298.709 -248.167> 824.529 47.5328<-141.459 -45.2676> 882.935 6.98193<-98.4277 -46.1109>
AnchorPoint: "Diacritic" 499 1114 basechar 0
LayerCount: 3
Fore
SplineSet
688 -215 m 0xe60080f847208830048198
 688 -224 697 -231 705 -231 c 0
 712 -231 718 -227 720 -221 c 1
 718 -211 720 -204 712 -200 c 1
 707 -201 703 -200 699 -200 c 1
 693 -202 688 -208 688 -215 c 0xe60080f847208830048198
199 -204 m 1
 199 -203 199 -203 200 -203 c 1
 199 -203 l 1
 199 -203 199 -203 199 -204 c 1
218 -202 m 1
 209 -204 203 -202 199 -209 c 1
 199 -214 199 -218 199 -223 c 1
 201 -230 208 -233 214 -233 c 0
 222 -233 229 -229 229 -219 c 0xe60080f847229830040198
 229 -211 225 -204 218 -202 c 1
244 792 m 0
 237 792 229 785 229 778 c 0xe60080f84720c830040198
 229 768 239 760 248 760 c 0
 252 760 255 761 258 765 c 1
 259 769 260 772 261 775 c 1
 261 784 253 792 244 792 c 0
254 -137 m 0xf60280f94766a974444798
 220 -137 198 -128 198 -101 c 0
 198 -85 205 -72 213 -56 c 0
 215 -51 226 -56 232 -56 c 0
 259 -56 290 -35 290 -15 c 0
 290 -10 284 2 292 0 c 0
 340 -11 375 -44 428 -45 c 1
 439 -58 454 -64 470 -64 c 0
 485 -64 499 -58 508 -47 c 1
 510 -47 513 -47 515 -47 c 0
 568 -47 585 -16 630 -14 c 0
 632 -14 633 -15 633 -17 c 0
 633 -18 633 -18 633 -19 c 0
 633 -48 656 -62 682 -62 c 0
 691 -62 701 -60 710 -56 c 0
 712 -55 713 -56 714 -58 c 0
 722 -70 727 -83 727 -94 c 0
 727 -116 710 -133 674 -133 c 0
 664 -133 652 -132 639 -129 c 1
 645 -167 673 -194 710 -194 c 0
 714 -194 718 -194 722 -193 c 0
 724 -193 725 -194 725 -197 c 0
 725 -239 744 -288 802 -299 c 1
 801 -291 801 -283 801 -276 c 0
 801 -187 871 -171 882 -87 c 0
 883 -82 883 -77 883 -73 c 0
 883 -16 841 34 776 41 c 0
 773 41 772 42 772 44 c 0
 772 46 772 48 772 49 c 0
 772 72 753 103 724 103 c 0
 720 103 715 102 711 101 c 1
 690 115 688 164 688 181 c 0xef0180f847218a300529b8
 688 188 l 1
 688 312 l 1
 714 328 732 366 732 399 c 0
 732 417 727 434 714 444 c 1
 718 452 720 461 720 470 c 0
 720 494 706 519 685 526 c 1
 685 788 l 1
 713 797 725 821 725 842 c 0
 725 852 722 862 716 869 c 0
 714 870 714 873 716 874 c 0
 727 888 732 904 732 920 c 0
 732 947 717 972 688 983 c 1
 673 1020 647 1037 620 1037 c 0
 593 1037 564 1018 548 982 c 1
 517 971 501 942 501 912 c 0
 501 897 505 882 514 869 c 0
 516 865 514 860 510 863 c 0
 481 877 460 881 437 881 c 0xef0180f8c7208830444798
 418 881 397 877 372 877 c 0
 338 877 305 900 305 937 c 0
 305 939 305 941 305 943 c 1
 262 931 236 895 236 856 c 0
 236 831 247 804 271 782 c 1
 265 771 263 759 263 747 c 0
 263 700 300 652 355 652 c 0
 375 652 396 658 419 672 c 1
 386 693 378 709 378 745 c 0
 378 770 398 789 424 789 c 0
 450 789 467 766 467 740 c 0
 467 714 461 692 438 666 c 1
 375 601 320 511 290 441 c 1
 248 440 220 405 220 375 c 0
 220 365 222 356 228 349 c 0
 230 347 230 344 226 343 c 0
 204 334 187 306 187 276 c 0
 187 257 194 237 212 221 c 1
 196 171 199 127 175 97 c 1
 173 97 171 97 170 97 c 0
 137 97 124 65 124 39 c 0
 124 37 124 34 124 32 c 1
 69 21 35 -25 35 -82 c 0
 35 -163 111 -213 111 -281 c 0
 111 -288 110 -296 108 -304 c 1
 161 -293 193 -258 193 -211 c 0
 193 -207 192 -203 192 -199 c 0
 192 -197 193 -195 196 -195 c 0
 199 -196 203 -196 207 -196 c 0
 239 -196 279 -169 284 -134 c 1
 274 -136 263 -137 254 -137 c 0xf60280f94766a974444798
701 880 m 1
 677 892 646 898 616 898 c 0
 582 898 548 890 527 877 c 1
 517 890 513 904 513 917 c 0
 513 942 531 966 560 978 c 1
 569 1011 594 1028 619 1028 c 0xe60080f867208830040198
 644 1028 669 1010 680 975 c 1
 701 969 720 944 720 919 c 0
 720 905 714 891 701 880 c 1
615 889 m 0xe60080fa47208830040198
 658 889 713 878 713 842 c 0
 713 823 698 802 675 795 c 1
 653 800 636 805 615 805 c 0
 612 805 609 805 606 805 c 0
 588 805 568 804 547 794 c 1
 539 801 524 821 524 842 c 0
 524 880 568 889 615 889 c 0xe60080fa47208830040198
617 509 m 0
 587 509 564 515 543 527 c 1
 543 779 l 1
 564 788 587 793 612 793 c 0
 637 793 650 787 674 778 c 1
 674 522 l 1xe60080f847208830060198
 654 513 639 509 617 509 c 0
678 510 m 0xe60081f847208830060198
 691 510 709 493 709 472 c 0
 709 458 699 444 690 440 c 0xe60081f847208830060198
 664 427 635 422 607 422 c 0
 578 422 552 428 534 437 c 0
 517 446 502 458 502 474 c 0
 502 494 520 513 537 513 c 0
 540 513 542 513 545 512 c 0
 574 502 597 496 619 496 c 0xe60082f847208830060198
 637 496 654 500 674 509 c 0
 675 510 677 510 678 510 c 0xe60081f847208830060198
434 872 m 0xe60080fc47208c31240198
 505 872 534 809 534 747 c 0
 534 715 524 680 507 645 c 1
 457 549 410 478 391 397 c 1
 388 397 385 397 382 397 c 0
 348 397 321 408 299 435 c 1
 321 492 362 562 418 629 c 0
 442 657 465 679 475 718 c 0
 477 726 478 734 478 741 c 0
 478 778 452 799 422 799 c 0
 386 799 365 772 365 739 c 0
 365 715 377 689 401 674 c 1
 384 666 368 663 354 663 c 0
 307 663 280 701 280 744 c 0
 280 758 283 774 290 788 c 1
 258 807 246 831 246 855 c 0
 246 889 270 920 295 930 c 1
 295 929 l 0
 295 892 333 867 377 867 c 0
 398 867 414 872 434 872 c 0xe60080fc47208c31240198
721 390 m 0
 713 356 698 331 675 315 c 1
 666 291 638 275 611 275 c 0
 582 275 552 292 546 317 c 1
 519 333 487 366 487 397 c 0
 487 411 491 423 501 430 c 0
 509 437 519 428 527 426 c 1
 553 414 580 408 608 408 c 0
 634 408 662 414 691 426 c 1xe600a4f847208830044198
 696 430 707 431 712 428 c 1
 719 421 722 411 722 402 c 0
 722 398 722 394 721 390 c 0
532 200 m 1xe60480f8472088b28c0198
 532 200 533 188 533 172 c 0
 533 139 528 86 497 81 c 1
 489 88 479 91 467 91 c 0
 453 91 438 86 427 74 c 1
 383 91 371 139 371 181 c 0
 371 185 371 189 371 192 c 1
 391 202 405 232 405 258 c 0
 405 278 397 295 380 302 c 0
 375 304 376 309 381 310 c 0
 407 314 420 334 420 356 c 0
 420 370 414 385 403 398 c 1
 432 514 499 591 525 661 c 0
 526 666 532 665 532 660 c 2
 532 527 l 1
 506 520 489 493 489 470 c 0
 489 461 492 453 497 446 c 0
 498 444 499 442 497 441 c 0
 482 430 475 415 475 398 c 0
 475 368 497 334 532 315 c 1
 532 200 l 1xe60480f8472088b28c0198
700 85 m 1
 703 77 704 68 704 60 c 0
 704 26 685 -6 650 -6 c 0xe61080f847208830040198
 648 -6 646 -6 644 -6 c 1
 643 -1 640 5 631 5 c 0
 600 5 564 -37 524 -37 c 0
 522 -37 521 -37 519 -37 c 1
 528 -20 532 -2 532 14 c 0
 532 37 524 58 507 72 c 1
 543 88 545 164 545 183 c 0
 545 187 l 1
 545 291 l 1
 561 271 586 261 611 261 c 0
 636 261 660 271 676 291 c 1
 676 187 l 1
 676 187 676 181 676 172 c 0
 676 146 678 94 700 85 c 1
722 91 m 0
 743 91 763 64 763 36 c 0
 763 -11 731 -52 686 -52 c 0
 669 -52 644 -43 644 -19 c 0
 644 -18 644 -16 644 -15 c 1
 648 -16 652 -17 656 -17 c 0
 690 -17 715 19 715 58 c 0xe68080f847208830041198
 715 68 714 79 710 89 c 1
 714 91 718 91 722 91 c 0
409 356 m 0
 409 323 365 308 330 308 c 0
 290 308 247 326 233 364 c 0
 232 368 231 372 231 376 c 0
 231 400 254 421 276 429 c 0
 277 429 278 430 279 430 c 0xe60088f847208830040198
 293 430 312 402 336 393 c 0
 359 385 392 392 400 382 c 0
 405 374 409 365 409 356 c 0
790 -267 m 0
 790 -272 790 -278 791 -284 c 1
 759 -274 738 -235 738 -192 c 0
 738 -190 738 -187 738 -184 c 1
 735 -184 732 -184 729 -184 c 0
 699 -184 659 -175 654 -142 c 1
 662 -144 670 -145 678 -145 c 0
 717 -145 739 -122 739 -93 c 0
 739 -80 735 -66 725 -53 c 1
 756 -42 774 -6 774 20 c 0
 774 23 773 26 773 28 c 1xe62080f847208830040198
 826 27 872 -21 872 -72 c 0
 872 -159 790 -178 790 -267 c 0
367 299 m 1xe60090f847208830040198
 386 288 392 272 392 256 c 0
 392 232 377 208 363 200 c 1
 345 162 320 146 296 146 c 0
 262 146 229 179 223 227 c 1
 206 239 198 258 198 276 c 0
 198 300 212 324 237 334 c 1
 263 306 296 296 331 296 c 0xe600c0f847208830040198
 343 296 355 297 367 299 c 1xe60090f847208830040198
519 9 m 0xe60080f847208838040198
 519 -20 504 -55 469 -55 c 0
 455 -55 442 -48 434 -37 c 1
 445 -23 450 -6 450 12 c 0
 450 30 444 49 434 65 c 1
 441 75 453 81 465 81 c 0
 471 81 477 79 483 76 c 0
 508 63 519 40 519 9 c 0xe60080f847208838040198
426 61 m 1
 434 46 439 31 439 14 c 0
 439 -1 434 -17 424 -33 c 1
 422 -33 420 -33 417 -33 c 0
 377 -33 313 14 285 23 c 0
 279 25 276 25 271 17 c 1
 265 15 260 15 254 15 c 0
 219 15 190 46 186 92 c 1
 210 120 210 172 218 205 c 1
 231 154 263 134 295 134 c 0xe60880f847208830040198
 321 134 346 148 359 171 c 1
 360 116 375 86 426 61 c 1
256 4 m 0
 260 4 264 5 268 5 c 0
 275 5 279 -3 279 -11 c 0
 279 -14 278 -17 277 -20 c 0
 267 -38 248 -46 228 -46 c 0xe64080f847208830040198
 176 -46 135 -8 135 43 c 0
 135 45 135 46 135 47 c 1
 137 65 144 81 162 87 c 0
 171 90 178 81 180 74 c 1
 185 35 215 4 256 4 c 0
270 -146 m 1
 257 -171 227 -185 197 -185 c 0
 192 -185 187 -185 182 -184 c 1xe60080f847288830040198
 182 -234 165 -281 123 -290 c 1
 123 -289 123 -289 123 -288 c 0
 123 -192 56 -182 46 -85 c 0
 46 -82 46 -80 46 -77 c 0
 46 -30 85 16 128 21 c 1
 132 -22 177 -50 203 -52 c 1
 190 -71 184 -88 184 -102 c 0xe60080f847308830040198
 184 -130 207 -148 247 -148 c 0
 254 -148 262 -147 270 -146 c 1
676 832 m 0
 658 844 642 852 616 852 c 0xe60080fa47208830040198
 590 852 574 846 556 835 c 0
 550 831 548 828 556 832 c 0
 576 841 602 842 616 842 c 0
 632 842 654 839 675 830 c 0
 682 826 682 828 676 832 c 0
617 537 m 2xe60080f847208830060198
 617 760 l 2
 617 766 606 766 606 760 c 2
 606 537 l 2
 606 531 617 531 617 537 c 2xe60080f847208830060198
435 839 m 0xe60080fc47208831240198
 411 839 394 836 374 836 c 0
 354 836 337 836 322 843 c 0
 316 846 319 844 321 842 c 0
 335 830 373 830 385 830 c 1
 365 826 344 799 338 780 c 0
 336 774 338 773 341 779 c 0
 348 796 364 814 382 822 c 0
 397 828 413 830 427 830 c 0
 429 830 l 0
 469 830 504 787 504 745 c 0
 504 740 503 734 502 729 c 0
 471 612 380 542 348 437 c 0
 347 433 354 430 356 435 c 0
 387 540 478 610 509 726 c 0
 511 733 512 740 512 747 c 0
 512 792 477 839 435 839 c 0xe60080fc47208831240198
685 396 m 1xe600a4f8472088300c4198
 690 399 687 401 682 397 c 0
 659 382 641 369 611 369 c 0
 578 369 548 384 525 397 c 0
 520 399 523 395 525 393 c 0
 542 380 573 360 605 359 c 1
 605 304 l 2
 605 295 616 294 616 302 c 2
 616 359 l 1
 646 360 668 380 685 396 c 1xe600a4f8472088300c4198
525 200 m 1
 525 309 l 1
 488 331 467 366 467 397 c 0
 467 415 474 432 490 445 c 1
 485 453 482 463 482 472 c 0
 482 496 498 520 525 530 c 1
 525 640 l 1
 496 575 438 504 411 398 c 1
 422 385 428 369 428 355 c 0
 428 333 415 312 391 305 c 1
 405 294 410 276 410 257 c 0
 410 230 398 200 378 187 c 1
 378 145 389 96 427 81 c 1
 438 93 453 98 467 98 c 0xe60480f8472088b28c0198
 478 98 489 95 498 89 c 1
 522 99 526 150 526 180 c 0
 526 192 525 200 525 200 c 1
652 58 m 0
 616 85 615 174 615 231 c 0
 615 236 605 234 605 231 c 0
 605 198 605 127 600 108 c 0
 591 79 585 50 562 38 c 0
 556 34 557 34 563 37 c 0
 590 49 607 82 612 122 c 1
 612 97 632 66 650 56 c 0
 655 54 657 54 652 58 c 0
825 -89 m 0
 825 -62 806 -38 782 -36 c 0
 780 -36 770 -38 772 -42 c 0
 780 -54 783 -67 783 -79 c 0
 783 -108 766 -135 746 -144 c 0
 740 -146 741 -149 748 -146 c 0
 768 -139 792 -110 792 -74 c 0
 792 -67 791 -59 789 -54 c 1
 803 -54 815 -74 815 -91 c 0xe62080f8472088300401d8
 815 -129 781 -158 778 -186 c 0
 778 -192 781 -193 781 -187 c 0
 783 -159 825 -129 825 -89 c 0
289 200 m 0
 289 207 294 233 296 243 c 1
 298 243 301 243 304 243 c 0
 321 243 340 246 360 252 c 0
 367 254 365 257 359 256 c 0
 347 253 336 252 325 252 c 0xe600c0f847208830040198
 285 252 258 260 235 288 c 0
 231 292 229 290 233 285 c 0
 244 269 265 251 285 246 c 1
 285 236 284 206 284 200 c 0
 284 194 289 194 289 200 c 0
281 100 m 1
 301 69 329 48 367 36 c 1
 373 33 373 36 367 38 c 0
 352 43 335 58 321 67 c 1
 307 79 298 91 285 114 c 0
 284 117 276 116 274 113 c 1
 269 95 256 78 242 69 c 0
 237 65 237 64 244 66 c 1
 252 70 258 74 267 81 c 1
 273 87 277 92 281 100 c 1
164 -142 m 0
 151 -131 125 -113 125 -85 c 0xe60080f847b08830040198
 125 -73 129 -61 137 -49 c 0
 139 -45 131 -39 128 -41 c 0
 104 -55 90 -73 90 -101 c 0
 90 -141 134 -169 137 -197 c 0
 137 -203 139 -202 139 -195 c 0
 137 -168 100 -140 100 -103 c 0
 100 -85 106 -72 120 -61 c 1
 118 -67 117 -74 117 -81 c 0xe60080f847a88830040198
 117 -89 118 -97 121 -104 c 0
 128 -124 154 -136 162 -145 c 0
 167 -150 169 -147 164 -142 c 0
621 952 m 1xe60080f867208830060198
 622 987 l 2
 622 993 617 993 617 987 c 1
 611 952 l 1
 588 951 567 938 551 924 c 1
 546 921 548 919 553 923 c 0
 571 935 594 943 616 943 c 0
 636 943 658 935 676 922 c 0
 681 918 681 919 677 924 c 0
 663 941 639 950 621 952 c 1xe60080f867208830060198
690 998 m 0
 690 988 698 986 704 982 c 1
 714 981 722 989 722 997 c 0
 722 1006 714 1015 705 1015 c 0xe60080f857208830040198
 697 1015 690 1006 690 998 c 0
533 1017 m 0xe60080f84f208830140198
 525 1017 518 1009 518 1002 c 0
 518 993 526 984 535 984 c 1
 538 986 540 987 543 988 c 1
 545 993 548 997 550 1001 c 1
 550 1010 541 1017 533 1017 c 0xe60080f84f208830140198
28 -82 m 0
 28 -21 61 25 118 37 c 1
 118 39 118 40 118 42 c 0
 118 69 132 103 168 103 c 0
 169 103 171 103 172 103 c 1
 193 133 190 171 204 219 c 1
 186 235 179 256 179 276 c 0
 179 307 196 337 220 349 c 1
 215 357 212 367 212 376 c 0
 212 409 241 445 287 447 c 1
 316 517 371 607 433 671 c 0
 454 694 460 717 460 740 c 0
 460 761 445 782 424 782 c 0
 403 782 385 764 385 743 c 0
 385 710 396 697 429 677 c 0
 432 676 432 674 429 671 c 0
 401 652 375 644 352 644 c 0
 294 644 256 696 256 745 c 0
 256 750 256 755 257 760 c 1
 253 757 249 756 245 756 c 0
 234 756 225 764 225 775 c 0xf70280f84764c874040198
 225 786 234 796 246 796 c 0
 247 796 248 796 250 796 c 1
 235 815 228 837 228 857 c 0
 228 901 259 940 307 951 c 0
 311 952 312 951 312 948 c 0
 312 945 311 942 311 940 c 0
 311 907 343 885 372 885 c 0xf70280f94720a930040198
 396 885 416 888 436 888 c 0
 457 888 478 885 503 875 c 1
 496 887 493 901 493 914 c 0
 493 941 506 966 529 981 c 1
 521 983 514 992 514 1002 c 0
 514 1012 524 1021 535 1021 c 0xe60080f8cf20a930540198
 543 1021 552 1015 554 1006 c 1
 572 1033 597 1047 621 1047 c 0
 645 1047 669 1032 686 1003 c 1
 688 1012 697 1018 706 1018 c 0
 716 1018 726 1010 726 999 c 0
 726 990 719 980 710 978 c 1
 730 964 740 943 740 920 c 0
 740 904 735 887 723 871 c 1
 729 863 732 853 732 842 c 0
 732 819 720 794 691 783 c 1
 691 530 l 1xe60080f85720a930544598
 714 520 728 493 728 468 c 0
 728 460 726 452 723 445 c 1
 735 433 740 416 740 398 c 0
 740 364 722 325 696 307 c 1
 696 188 l 1
 696 188 696 184 696 179 c 0xe60080f857208830042398
 696 161 698 122 712 107 c 1
 717 109 722 109 727 109 c 0
 759 109 780 75 780 50 c 0
 780 49 780 49 780 48 c 1
 846 39 890 -14 890 -72 c 0
 890 -77 890 -82 889 -87 c 0
 879 -171 807 -187 807 -278 c 0
 807 -286 808 -295 809 -304 c 0
 809 -306 808 -307 805 -307 c 0
 755 -299 729 -264 721 -226 c 1
 718 -232 711 -235 704 -235 c 0
 694 -235 685 -227 685 -215 c 0
 685 -209 687 -202 693 -199 c 1
 660 -191 635 -162 631 -124 c 0
 631 -120 632 -119 636 -120 c 0
 650 -124 663 -126 673 -126 c 0xee0180f8572088300481b8
 703 -126 717 -111 717 -93 c 0
 717 -84 714 -75 708 -65 c 1
 700 -68 691 -70 682 -70 c 0
 653 -70 626 -53 626 -21 c 1
 585 -26 569 -54 520 -54 c 0
 517 -54 513 -54 510 -54 c 1
 499 -65 484 -72 468 -72 c 0
 454 -72 439 -66 426 -53 c 1
 376 -52 343 -22 296 -10 c 1
 297 -13 297 -16 297 -18 c 0
 297 -43 261 -64 231 -64 c 0
 227 -64 223 -64 219 -63 c 1
 211 -76 206 -86 206 -99 c 0
 206 -122 222 -130 251 -130 c 0
 263 -130 275 -128 288 -125 c 0
 292 -124 293 -125 293 -129 c 0
 290 -165 257 -192 225 -200 c 1
 230 -204 233 -210 233 -217 c 0
 233 -223 230 -230 225 -234 c 0
 217 -240 204 -239 197 -231 c 1
 189 -272 155 -304 103 -312 c 0
 100 -312 98 -311 100 -307 c 0
 103 -297 104 -288 104 -279 c 0xf70080f847619a300589b8
 104 -211 28 -162 28 -82 c 0
EndSplineSet
Validated: 1
EndChar

StartChar: uni0416
Encoding: 1046 1046 50
Width: 1262
Flags: HW
HStem: -15 5<214.039 230.638 1028.32 1048.94> -6 10<68.5952 156.415 286.623 360.614 439.945 533.704 727.156 821.055 900.396 971.069 1104.74 1192.4> 17 25<112.282 189.272 252.409 313.718 510 565.111 696.053 751 946.328 1008.59 1071.73 1148.72> 17 15<96.7484 125.967 301.189 330.225 930.754 959.807 1135.03 1164.25> 81 12<216.72 231.902 1029.1 1044.28> 89 4<627.177 634.911> 104 108<232.783 285.942 975.058 1028.22> 210 63<541.075 719.326> 221 53<234.538 357.35 903.67 1026.62> 286 92<269.834 389.568 552.657 708.661 871.432 991.146> 385 129<565.471 695.532> 450 10<500.125 532 729 760.875> 471 21<522.104 541 720 738.896> 520 38<408.923 491.496 555.948 706.092 769.504 852.077> 569 7<761.207 789.996> 608 5<484.03 490 771.067 781.289> 616 175<562 625.491 635.323 699> 627 177<562.876 698.127> 674 5<322.451 342.243 919.783 939.083> 765 27<272.028 328 933 989.824> 801 74<522.204 629.364> 804 8<295.571 330.08 931.772 966.08> 816 79<543.862 717.162> 829 12<326.111 361.041 899.944 934.889> 876 5<126.989 144.884 1116.12 1134.01> 885 92<531.137 545.906 711.871 729.863> 906 33<560.245 699.192> 917 61<385.382 426.131 834.899 875.75> 941 28<156.513 250.36 1010.64 1104.49> 950 27<575.242 589.781 671.1 685.758> 980 9<175.235 227.875 539.238 569.809 1033.12 1085.13> 981 19<350.742 354.035 906.965 910.258> 989 10<375.877 419.309 842.456 876.219> 1009 10<276.584 350.55 910.268 984.416> 1029 5<549.411 569.813 691.598 712.358>
VStem: 35 9<18.4697 37.415> 111 5<891.468 910.95 981.415 994.558> 126 9<243.395 298.876> 136 10<772.839 863.638> 147 31<168.329 194.568> 158 43<759.404 894.078> 177 9<353.791 380.757> 200 5<-1.35478 10.9242> 215 43<799.095 878.268> 221 9<579 628.354> 240 5<-1.25586 10> 241 53<641.308 673.195> 270 9<826.034 853.722> 301 9<858.195 868> 308 34<114.401 143.237> 308 10<646.428 679 681.005 704.375> 316 51<853.234 898.741> 346 10<746.982 800.761> 352 5<689.122 710.082> 353 10<107.553 156.514> 401 10<210.886 275.318> 427 8<328.792 376.364> 440 9<911.056 963.226> 468 11<192.947 250.224> 468 5<581.973 597.968> 491 10<895.755 942.816> 500 9<805.64 866.17> 504 10<322.553 366.406> 530 201<304.501 373.42> 534 5<1000.22 1019.05> 538 10<744 785.058> 562 64<404 492 650 782> 608 5<7.30103 17.9948> 627 7<37.2279 41.9407> 635 64<404 492 650 782> 648 5<7.30103 17.7641> 713 10<744 785.058> 719 10<393.679 450> 722 5<998.367 1018.95> 747 10<322.553 366.406> 752 9<805.64 866.17> 760 10<895.755 942.816> 782 11<192.947 250.224> 790 5<582.744 599.353> 812 9<911.056 963.226> 826 8<328.792 376.364> 851 9<212.493 275.994> 893 52<853.136 899.148> 898 10<107.553 156.514> 904 5<691.246 709.53> 905 10<746.732 800.896> 919 34<114.401 143.237> 943 10<680.794 685 685.328 704.375> 951 9<858.195 868> 967 53<641.308 673.195> 982 9<826.034 854.292> 1003 43<798.9 878.268> 1016 5<-2.57634 9.95145> 1031 9<579 628.354> 1056 5<-2.81042 10.9062> 1061 42<760.149 893.833> 1076 8<353.791 377.734> 1083 30<170.135 195.027> 1115 10<772.816 863.849> 1126 9<243.395 298.876> 1145 5<891.468 910.95 980.108 993.612> 1217 9<18.4697 37.415>
DStem2: 361 843 358 831 0.520906 -0.853614<6.66096 264.382 270.733 296.959> 411 854 377 841 0.518612 -0.855009<0 228.75> 431 907 420 859 0.47434 -0.880342<36.8403 248.767> 447 921 438 919 0.463834 -0.885922<-5.94316 199.017> 712 688 731 659 0.47434 0.880342<0 212.379> 723 744 723 728 0.463834 0.885922<0 201.877> 741 654 736 597 0.518612 0.855009<-1.21927 228.049> 745 589 756 588 0.520906 0.853614<1.31724 30.7552 34.0303 290.897>
AnchorPoint: "Diacritic" 636 1114 basechar 0
LayerCount: 3
Fore
SplineSet
1023 12 m 1xc04700007e0001c00001c00a
 1022 10 1021 8 1021 5 c 0
 1021 -4 1030 -11 1039 -11 c 0
 1047 -11 1056 -4 1056 5 c 0
 1056 8 1055 11 1053 14 c 1
 1048 16 1044 18 1039 21 c 1
 1034 18 1029 15 1023 12 c 1xc04700007e0001c00001c00a
614 20 m 1
 613 18 613 17 613 15 c 0
 613 6 622 -1 631 -1 c 0
 639 -1 648 6 648 15 c 0xc04700007e0001c01201c0
 648 23 636 25 631 28 c 1
 626 25 620 23 614 20 c 1
207 14 m 1
 206 11 205 9 205 6 c 0
 205 -2 214 -10 222 -10 c 0
 231 -10 240 -2 240 6 c 0xc04700007e2401c00001c0
 240 8 239 10 239 12 c 1
 233 15 227 18 222 21 c 1
 217 18 212 16 207 14 c 1
137 921 m 2
 124 921 116 913 116 901 c 0
 116 890 125 881 137 881 c 0
 140 881 144 881 147 883 c 1xc04700807f0001c00001c0
 150 889 153 895 156 900 c 1
 156 903 156 906 155 909 c 1
 149 912 144 916 139 921 c 1
 137 921 l 2
560 1029 m 0
 548 1029 539 1021 539 1010 c 0xc04700007e0001c08001c0
 539 1001 545 992 553 990 c 0
 557 990 566 989 570 991 c 1
 572 999 575 1005 579 1011 c 1
 578 1022 571 1029 560 1029 c 0
909 700 m 0xc04720007e0001c00001c8
 909 688 918 679 930 679 c 0
 935 679 940 681 944 685 c 1
 944 692 946 699 948 707 c 0
 948 708 947 709 947 710 c 0
 940 712 934 716 929 719 c 1
 917 719 909 711 909 700 c 0xc04720007e0001c00001c8
756 588 m 1
 758 578 766 576 777 576 c 1
 784 577 790 583 790 591 c 0xc04700007e0001c00003c0
 790 600 782 608 773 608 c 0
 771 608 769 608 768 607 c 2
 756 588 l 1
1114 883 m 1
 1117 881 1121 881 1124 881 c 0xc04700807e0001c00001c0
 1136 881 1145 890 1145 901 c 0
 1145 913 1136 921 1124 921 c 2
 1124 921 1123 921 1122 921 c 0
 1117 916 1111 912 1105 908 c 1
 1104 906 1104 904 1104 902 c 1
 1108 896 1111 890 1114 883 c 1
708 989 m 1xc0470000fe0001c00041c0
 717 992 722 999 722 1009 c 0
 722 1021 714 1029 702 1029 c 0
 690 1029 683 1022 682 1011 c 1
 686 1005 689 999 691 991 c 1
 695 989 704 990 708 989 c 1xc0470000fe0001c00041c0
1060 980 m 0xd05725827e0001c00001c104
 1014 980 1009 1009 952 1009 c 0
 922 1009 892 1003 878 986 c 1
 872 988 866 989 860 989 c 0
 835 989 821 966 821 938 c 0
 821 932 822 925 823 919 c 1
 723 728 l 1
 719 723 713 724 713 731 c 2
 713 788 l 2
 713 791 714 791 718 793 c 1
 742 798 752 821 752 843 c 0xc0470000fe0001c00111c104
 752 853 750 863 745 871 c 0
 744 873 742 876 744 877 c 0
 755 891 760 906 760 920 c 0
 760 954 730 983 688 983 c 0
 687 983 686 983 685 983 c 0
 678 1010 658 1025 631 1025 c 0
 611 1025 585 1015 576 983 c 0
 575 983 574 983 573 983 c 0
 531 983 501 954 501 920 c 0xc0470000fe0001c80009c0
 501 906 506 891 517 877 c 0
 519 876 517 873 516 871 c 0
 511 863 509 853 509 843 c 0
 509 821 519 798 543 793 c 1
 547 791 548 791 548 788 c 2
 548 731 l 2
 548 724 542 723 538 728 c 1
 438 919 l 1
 439 925 440 932 440 938 c 0
 440 966 427 989 401 989 c 0xc0470000fe0001c44001c0
 396 989 390 988 383 986 c 1
 368 1003 339 1009 309 1009 c 0
 252 1009 247 980 201 980 c 0
 171 980 145 990 124 1008 c 1
 120 1003 118 996 118 988 c 0
 118 961 140 925 168 913 c 0
 172 911 173 908 170 905 c 0
 152 881 146 854 146 823 c 0
 146 809 148 793 150 776 c 0
 161 707 230 676 230 598 c 0
 230 592 230 586 229 579 c 1
 280 593 308 633 308 674 c 0xc04720027e8821c44001c0
 308 686 306 698 301 710 c 0
 299 714 301 715 304 717 c 1
 334 726 346 747 346 771 c 0
 346 783 343 797 338 810 c 1
 327 806 318 804 310 804 c 0
 284 804 270 821 270 839 c 0
 270 854 280 870 302 876 c 0
 307 877 310 877 310 874 c 0
 310 854 328 841 347 841 c 0
 352 841 356 841 361 843 c 1
 506 605 l 1
 510 601 513 594 516 589 c 1
 511 582 506 575 504 569 c 1
 395 569 259 510 242 424 c 1
 204 419 186 390 186 350 c 1
 152 340 135 305 135 272 c 0
 135 262 136 251 140 242 c 1
 125 166 100 102 49 38 c 0
 46 35 44 31 44 27 c 0
 44 23 46 20 49 18 c 0
 69 7 80 4 96 4 c 0
 154 4 181 13 224 32 c 1xd04725827e4189c20001c0
 263 10 304 4 337 4 c 0
 350 4 358 6 370 15 c 0
 372 16 376 20 375 23 c 0
 365 53 355 114 353 160 c 1
 384 171 401 207 401 244 c 0
 401 259 398 275 392 289 c 1
 415 305 427 328 427 352 c 0
 427 370 421 388 408 404 c 1
 428 437 494 460 537 460 c 0
 541 460 542 457 542 455 c 2
 542 395 l 1
 525 381 514 364 514 345 c 0
 514 332 519 319 528 304 c 1
 497 287 479 252 479 220 c 0
 479 204 483 189 493 177 c 1
 483 128 462 74 420 25 c 0
 419 23 420 18 424 16 c 0
 442 5 462 4 487 4 c 0
 528 4 596 20 627 39 c 1
 627 41 628 42 632 42 c 0
 633 42 634 41 634 39 c 1
 665 20 733 4 774 4 c 0
 799 4 819 5 837 16 c 0
 841 18 842 23 841 25 c 0
 799 74 778 128 768 177 c 1
 778 189 782 204 782 220 c 0
 782 252 764 287 733 304 c 1
 742 319 747 332 747 345 c 0
 747 364 736 381 719 395 c 1
 719 455 l 2
 719 457 720 460 724 460 c 0
 767 460 833 437 853 404 c 1
 840 388 834 370 834 352 c 0
 834 328 846 305 869 289 c 1
 863 275 860 259 860 244 c 0
 860 207 877 171 908 160 c 1xe05700007e4183e208a5d0
 906 114 896 53 886 23 c 0
 885 20 889 16 891 15 c 0
 903 6 911 4 924 4 c 0
 957 4 998 10 1037 32 c 1
 1081 13 1107 4 1165 4 c 0
 1181 4 1192 7 1212 18 c 0
 1215 20 1217 23 1217 27 c 0
 1217 31 1215 35 1212 38 c 0
 1162 102 1136 166 1121 242 c 1
 1125 251 1126 262 1126 272 c 0
 1126 305 1109 340 1076 350 c 1
 1076 390 1057 419 1019 424 c 1
 1002 510 867 569 757 569 c 1
 755 575 750 582 745 589 c 1
 900 843 l 1
 905 841 909 841 914 841 c 0
 933 841 951 854 951 874 c 0
 951 877 954 877 959 876 c 0
 981 870 991 854 991 839 c 0
 991 821 977 804 951 804 c 0
 943 804 934 806 923 810 c 1
 918 797 915 783 915 771 c 0
 915 747 927 726 957 717 c 1
 960 715 962 714 960 710 c 0xd05705807e0001c00021c4a0
 955 698 953 686 953 674 c 0
 953 633 981 593 1032 579 c 1
 1031 586 1031 592 1031 598 c 0
 1031 676 1100 707 1111 776 c 0
 1113 793 1115 809 1115 823 c 0
 1115 854 1109 881 1091 905 c 1
 1085 911 1104 919 1108 922 c 0
 1130 938 1143 966 1143 987 c 0
 1143 995 1141 1003 1137 1008 c 1
 1115 990 1091 980 1060 980 c 0xd05725827e0001c00001c104
332 679 m 0xc04720007e0005c00001c0
 344 679 352 687 352 700 c 0
 352 712 344 719 332 719 c 1
 327 716 321 712 314 710 c 0
 314 709 313 708 313 707 c 0
 315 699 317 692 317 685 c 1
 321 681 327 679 332 679 c 0xc04720007e0005c00001c0
943 1000 m 0xc04730097e0001c00001c110
 999 1000 1016 969 1062 969 c 0
 1091 969 1117 979 1132 991 c 1
 1132 986 l 2
 1132 956 1098 921 1068 916 c 1
 1095 877 1103 854 1103 823 c 0
 1103 809 1101 794 1099 776 c 0
 1088 704 1020 691 1020 596 c 2
 1020 594 l 1
 990 606 967 640 967 674 c 0xc04730097e0001c00001c141
 967 690 971 705 983 718 c 1
 951 724 927 740 927 769 c 0
 927 777 929 786 933 796 c 1
 941 793 948 792 956 792 c 0
 983 792 1003 810 1003 840 c 0
 1003 862 990 879 959 889 c 1
 957 927 934 967 889 981 c 1
 903 995 923 1000 943 1000 c 0xc04730097e0001c00001c110
945 894 m 0xc04700047e0001c00001e0
 945 869 935 851 910 851 c 0
 905 851 899 852 893 853 c 1
 893 857 l 2
 893 885 866 911 836 917 c 1
 834 924 832 931 832 938 c 0
 832 959 842 978 861 978 c 0xc04700107e0001c00001e0
 863 978 865 977 867 977 c 0
 890 972 919 961 934 934 c 0
 941 920 945 907 945 894 c 0xc04700047e0001c00001e0
748 914 m 0
 748 904 746 885 734 885 c 0xc04700407e0001c00001c0
 732 885 730 885 728 886 c 0
 693 900 662 906 631 906 c 0xc04700207e0001c00001c0
 598 906 568 900 533 886 c 0
 531 885 529 885 527 885 c 0xc04700407e0001c00001c0
 515 885 513 904 513 914 c 0
 513 955 554 977 586 977 c 1
 592 1007 612 1014 631 1014 c 0
 647 1014 669 1007 675 977 c 1xc04700047e0001c00001c0
 707 977 748 955 748 914 c 0
884 841 m 1xc04701007e0001c00001c0
 736 597 l 1
 712 611 l 1
 712 688 l 1
 830 907 l 1
 864 901 882 873 884 841 c 1xc04701007e0001c00001c0
548 801 m 1xc04708007e0001c04101c0
 529 804 519 821 519 841 c 0xc04701007e0001c04101c0
 519 856 525 869 537 875 c 0xc04708007e0001c04101c0
 567 890 596 895 631 895 c 0xc04702007e0001c04101c0
 665 895 695 890 724 875 c 0xc04708007e0001c04101c0
 736 869 742 856 742 841 c 0xc04701007e0001c04101c0
 742 821 732 804 713 801 c 1xc04708007e0001c04101c0
 685 815 653 816 631 816 c 0xc04702007e0001c04101c0
 612 816 576 815 548 801 c 1xc04708007e0001c04101c0
699 616 m 1xc04780007e0001c02401c0
 678 624 654 627 631 627 c 0xc04740007e0001c02401c0
 613 627 583 624 562 616 c 1
 562 791 l 1xc04780007e0001c02401c0
 578 799 608 804 631 804 c 0xc04740007e0001c02401c0
 653 804 683 799 699 791 c 1
 699 616 l 1xc04780007e0001c02401c0
1003 428 m 1xc04f00007e0001c00029c010
 990 412 967 389 930 389 c 0
 912 389 890 395 864 409 c 1
 833 454 778 468 720 471 c 1
 720 492 l 1
 742 499 760 520 760 543 c 0
 760 548 759 553 757 558 c 1
 761 558 765 558 769 558 c 0
 860 558 993 497 1003 428 c 1xc04f00007e0001c00029c010
1015 412 m 0
 1041 412 1063 389 1063 366 c 0
 1063 357 1059 347 1052 337 c 0
 1030 306 998 286 945 286 c 0xc04700007e0001c00001e0
 917 286 896 293 879 302 c 0
 860 312 847 329 847 358 c 0
 847 376 859 392 873 392 c 0
 875 392 878 391 880 390 c 0
 892 384 913 378 932 378 c 0
 962 378 981 389 998 406 c 0
 1002 410 1008 412 1015 412 c 0
351 851 m 0
 327 851 316 870 316 894 c 0
 316 907 320 920 327 934 c 0
 342 961 371 972 395 977 c 0xc04700047e0011c00001c0
 397 977 399 978 401 978 c 0
 419 978 429 959 429 938 c 0
 429 931 427 924 425 917 c 1
 394 911 367 884 367 856 c 0
 367 855 367 854 367 853 c 0xc04700107e0011c00001c0
 361 852 356 851 351 851 c 0
549 611 m 1
 525 597 l 1
 377 841 l 1xc04701007e0001c00001c0
 378 873 397 901 431 907 c 1
 549 688 l 1
 549 611 l 1
1114 276 m 0
 1114 240 1098 214 1071 197 c 1
 1073 189 1073 180 1073 173 c 0
 1073 136 1053 104 1015 104 c 0
 991 104 973 122 959 152 c 1
 938 155 913 166 896 181 c 0
 880 194 872 218 872 242 c 0
 872 260 875 284 890 284 c 0
 892 284 893 283 895 283 c 0
 913 277 930 274 948 274 c 0xc2c700007e0001c00001c0
 1002 274 1038 298 1064 329 c 0
 1071 337 1084 332 1090 326 c 0
 1104 313 1114 297 1114 276 c 0
513 547 m 0
 513 597 581 615 631 615 c 0
 659 615 690 610 712 597 c 0
 731 586 748 569 748 547 c 0
 748 519 730 509 709 499 c 1
 688 516 659 525 631 525 c 0
 601 525 573 516 552 499 c 1
 531 509 513 519 513 547 c 0
1016 93 m 0xe44700007e0001c00001c208
 1061 93 1086 129 1086 168 c 0
 1086 175 1085 183 1083 190 c 1
 1096 198 1106 211 1113 229 c 1
 1120 175 1157 86 1203 28 c 1
 1192 21 1171 17 1147 17 c 0
 1113 17 1071 25 1037 44 c 1
 1009 25 965 14 934 14 c 0
 916 14 903 18 897 25 c 1
 911 60 917 113 919 152 c 1
 933 147 940 144 953 142 c 1
 961 116 983 93 1016 93 c 0xe44700007e0001c00001c208
704 399 m 1
 682 388 659 385 631 385 c 0
 602 385 579 388 557 399 c 1
 557 485 l 1
 576 504 603 514 631 514 c 0xc06700007e0001c00001c0
 658 514 685 504 704 485 c 1
 704 399 l 1
199 969 m 0xc04730097e8201c00001c0
 245 969 262 1000 318 1000 c 0
 338 1000 358 995 372 981 c 1
 327 967 304 927 302 889 c 1
 272 879 258 862 258 840 c 0xc04730097e9021c00001c0
 258 810 279 792 305 792 c 0
 313 792 320 793 328 796 c 1
 332 786 334 777 334 769 c 0
 334 740 309 724 278 718 c 1
 290 705 294 690 294 674 c 0
 294 640 271 606 241 594 c 1
 241 596 l 2
 241 691 173 704 162 776 c 0
 160 794 158 809 158 823 c 0
 158 854 166 877 193 916 c 1
 163 921 129 956 129 986 c 2
 129 991 l 1
 144 979 170 969 199 969 c 0xc04730097e8201c00001c0
730 332 m 0
 727 299 667 285 632 285 c 0
 597 285 534 298 531 332 c 0
 530 337 530 341 530 345 c 0
 530 365 540 377 557 387 c 1
 580 379 607 374 631 374 c 0
 654 374 681 379 704 387 c 1
 721 377 731 365 731 345 c 0xc04700007e0001c10001c0
 731 341 731 337 730 332 c 0
541 471 m 1xc04f00007e1001ca0001c0
 483 468 428 454 397 409 c 1
 371 395 349 389 331 389 c 0
 294 389 271 412 258 428 c 1
 268 497 401 558 492 558 c 0
 496 558 500 558 504 558 c 1
 502 553 501 548 501 543 c 0
 501 520 519 499 541 492 c 1
 541 471 l 1xc04f00007e1001ca0001c0
767 225 m 0
 767 190 743 169 710 164 c 1
 697 123 665 106 631 104 c 1
 596 106 562 123 548 164 c 1
 517 167 493 193 493 225 c 0
 493 245 504 263 514 274 c 0xc2c700007e0001c240a1c0
 521 281 528 289 542 289 c 0
 546 289 552 288 558 286 c 0
 583 278 607 273 632 273 c 0xc14700007e0001c240a1c0
 658 273 678 278 703 286 c 0
 709 288 715 289 719 289 c 0
 733 289 740 281 747 274 c 0xc0c700007e0001c240a1c0
 757 263 767 246 767 225 c 0
822 31 m 1
 826 28 821 20 811 18 c 1
 800 17 789 16 778 16 c 0
 728 16 677 31 631 58 c 1
 584 31 533 16 483 16 c 0
 472 16 461 17 450 18 c 1
 440 20 435 28 439 31 c 1
 477 79 487 103 504 170 c 1
 517 162 528 154 541 151 c 1
 556 117 590 93 631 93 c 0xc44700007e0001c20021c0
 673 93 706 118 720 152 c 1
 733 155 746 162 757 170 c 1
 774 103 784 79 822 31 c 1
198 366 m 0
 198 389 220 412 246 412 c 0
 253 412 259 410 263 406 c 0
 280 389 298 378 329 378 c 0
 348 378 369 384 381 390 c 0
 383 391 386 392 388 392 c 0
 402 392 414 376 414 358 c 0
 414 329 401 312 382 302 c 0
 365 293 344 286 316 286 c 0xc04700007e0011c00001c0
 263 286 231 305 209 337 c 0
 202 347 198 357 198 366 c 0
246 104 m 0xc2c700007f0001c00001c0
 208 104 188 135 188 171 c 0
 188 179 189 188 191 197 c 1
 165 213 147 244 147 273 c 0xc14700007f0001c00001c0
 147 292 154 311 171 326 c 0
 177 332 191 337 197 329 c 0
 223 298 259 274 313 274 c 0
 332 274 348 277 366 283 c 0
 368 283 369 284 371 284 c 0
 386 284 389 260 389 242 c 0
 389 218 381 194 365 181 c 0
 348 166 323 155 302 152 c 1
 288 122 270 104 246 104 c 0xc2c700007f0001c00001c0
175 168 m 0
 175 129 200 93 245 93 c 0
 278 93 300 116 308 142 c 1
 321 144 328 147 342 152 c 1
 344 113 350 60 364 25 c 1
 358 18 345 14 327 14 c 0
 296 14 252 25 224 44 c 1
 190 25 148 17 114 17 c 0xe44700007f0441c00001c0
 90 17 69 21 58 28 c 1
 105 86 141 175 147 229 c 1
 155 211 165 198 178 190 c 1
 176 183 175 175 175 168 c 0
1015 933 m 1
 1019 933 1023 932 1027 932 c 0
 1053 932 1079 942 1089 950 c 0xc04781047e0001c00001c029
 1094 954 1093 955 1087 952 c 0
 1069 945 1055 943 1039 941 c 1xc04700087e0001c00001c029
 1014 941 1004 943 983 950 c 0
 977 952 975 940 981 938 c 0
 1021 921 1042 882 1046 841 c 1xc04701047e0001c00001c031
 1046 815 1034 791 1021 780 c 0
 1014 773 992 765 977 765 c 0xc04711047e0001c00001c008
 973 765 970 765 968 766 c 0
 961 768 957 763 965 761 c 0
 971 759 976 758 982 758 c 0
 1007 758 1034 775 1043 791 c 1
 1032 755 1008 723 1004 680 c 0
 1003 674 1007 674 1008 680 c 0
 1014 737 1061 770 1061 829 c 0xc04781007e0001c00001c029
 1061 869 1040 909 1015 933 c 1
708 924 m 0
 685 940 657 949 632 950 c 1
 632 987 l 2
 632 993 629 993 629 987 c 2
 626 950 l 1
 601 949 576 940 552 924 c 0
 547 921 545 914 551 918 c 0
 576 932 604 939 631 939 c 0xc04700247e0001c02401c0
 657 939 683 932 707 919 c 0
 712 917 712 922 708 924 c 0
851 854 m 2
 854 860 844 865 841 859 c 2
 731 659 l 2xc04700007e0001c10001c0
 728 653 737 648 741 654 c 2
 851 854 l 2
635 650 m 2xc04700007e0001c02401c0
 635 782 l 2
 635 788 626 788 626 782 c 2
 626 650 l 2
 626 644 635 644 635 650 c 2xc04700007e0001c02401c0
929 433 m 0
 917 454 905 472 873 492 c 0xc04f00007e0001c00001c0
 844 509 803 517 774 520 c 0
 768 520 768 511 774 510 c 0
 800 508 842 500 868 483 c 0
 896 465 910 446 922 428 c 0
 926 423 932 428 929 433 c 0
530 659 m 2xc04700007e0001c10001c0
 420 859 l 2
 417 865 407 860 411 854 c 2
 520 654 l 2
 524 648 533 653 530 659 c 2xc04700007e0001c10001c0
1078 275 m 0
 1082 284 1078 286 1073 279 c 0
 1057 253 1017 221 971 221 c 0
 947 221 924 228 910 234 c 1
 902 236 898 234 906 229 c 0
 921 221 952 212 979 212 c 0
 984 212 989 212 994 213 c 1
 1001 200 1002 190 1007 176 c 1
 1010 164 1012 157 1014 146 c 0
 1015 139 1021 139 1020 147 c 0xc2c700007e0001c00001c040
 1018 169 1014 196 1007 215 c 1
 1037 225 1067 252 1078 275 c 0
713 549 m 0xc04700007e0001c00101c0
 692 564 661 572 630 572 c 0
 600 572 570 565 551 551 c 0
 546 547 551 540 556 543 c 0
 575 556 603 563 631 563 c 0
 660 563 689 556 708 542 c 0
 713 538 718 546 713 549 c 0xc04700007e0001c00101c0
928 48 m 0
 928 38 937 32 946 32 c 0xd84700007e0001c00001c0
 953 32 960 36 962 43 c 1
 973 43 988 45 999 49 c 0
 1020 56 1023 63 1036 71 c 1
 1058 56 1098 42 1133 42 c 1xe04700007e0001c00001c0
 1136 35 1143 32 1149 32 c 0
 1158 32 1167 38 1167 48 c 0
 1167 59 1159 66 1150 66 c 0
 1141 66 1131 59 1132 48 c 1
 1098 51 1062 62 1042 81 c 1
 1039 81 1031 80 1029 81 c 1xd84700007e0001c00001c0
 1018 71 1018 67 998 58 c 0
 986 52 978 50 962 49 c 1
 961 57 955 65 946 65 c 0
 935 65 928 56 928 48 c 0
635 404 m 2xc04f00007e0001c02401c0
 635 492 l 2
 635 498 626 498 626 492 c 2
 626 404 l 2
 626 398 635 398 635 404 c 2xc04f00007e0001c02401c0
284 765 m 0xc04710007e9001c00001c0
 241 765 215 796 215 841 c 1
 219 882 240 921 280 938 c 0
 286 940 284 952 278 950 c 0xc04711047e9001c00001c0
 257 943 247 941 222 941 c 1xc04700087e9001c00001c0
 206 943 192 945 175 952 c 0
 168 955 167 954 172 950 c 0
 182 942 208 932 234 932 c 0
 238 932 242 933 246 933 c 1
 221 909 201 870 201 831 c 0
 201 770 247 738 253 680 c 1
 255 674 258 674 257 680 c 0
 253 723 229 755 218 791 c 1xc04780047e9001c00001c0
 227 775 254 758 278 758 c 0
 284 758 290 759 296 761 c 0
 304 763 300 768 292 766 c 0
 290 765 287 765 284 765 c 0xc04710007e9001c00001c0
487 510 m 0
 493 511 493 520 487 520 c 0
 458 517 417 509 388 492 c 0xc04f00007e0001c00001c0
 356 472 344 454 332 433 c 0
 329 428 336 423 339 428 c 0
 352 446 365 465 393 483 c 0
 419 500 461 508 487 510 c 0
510 53 m 1
 509 61 501 67 491 67 c 0
 482 67 476 58 476 50 c 0
 476 43 480 36 488 33 c 1
 498 31 510 36 510 45 c 2
 510 47 l 1
 559 47 595 59 632 79 c 1
 665 58 704 47 751 47 c 1
 751 45 l 2
 751 36 763 31 773 33 c 1
 782 36 787 44 785 53 c 1
 784 63 774 69 765 66 c 1
 757 65 752 59 751 53 c 1
 704 56 670 67 635 87 c 1
 634 89 632 89 631 89 c 0
 628 89 627 89 626 87 c 1xc44700007e0001c82401c0
 591 67 557 56 510 53 c 1
355 229 m 0
 363 234 359 236 352 234 c 0
 337 228 314 221 290 221 c 0
 244 221 205 253 188 279 c 0
 183 286 180 284 183 275 c 1
 194 252 224 225 255 215 c 1
 247 195 243 170 241 147 c 0
 240 139 246 139 247 146 c 0
 253 168 258 193 267 213 c 1
 272 212 277 212 282 212 c 0xc2c700007e0205c00001c0
 309 212 340 221 355 229 c 0
111 66 m 0
 102 66 94 59 94 48 c 0
 94 38 103 32 112 32 c 0xd84700007e0001c00001c0
 118 32 125 35 128 42 c 1xe04700007e0001c00001c0
 163 42 203 56 225 71 c 1
 238 63 241 56 262 49 c 0
 273 45 288 43 299 43 c 1
 301 36 308 32 314 32 c 0
 324 32 333 38 333 48 c 0
 333 59 324 66 313 65 c 0
 305 64 300 56 299 49 c 1
 283 50 275 52 263 58 c 0
 243 67 243 71 232 81 c 1
 230 80 222 81 219 81 c 1xd84700007e0001c00001c0
 199 62 163 51 129 48 c 1
 130 59 121 66 111 66 c 0
635 202 m 1xc14700007e0001c02401c0
 675 203 713 215 734 237 c 1
 737 242 736 246 731 241 c 0xc14700007e0001c10001c0
 710 220 670 210 631 210 c 0
 591 210 551 220 528 241 c 0
 524 246 521 243 525 239 c 0
 546 215 585 203 626 202 c 1
 628 141 l 2
 628 135 633 135 633 141 c 2
 635 202 l 1xc14700007e0001c02401c0
1150 900 m 0
 1150 886 1138 876 1125 876 c 0
 1122 876 1119 877 1116 878 c 1
 1122 860 1125 842 1125 823 c 0
 1125 808 1123 792 1121 776 c 0
 1110 708 1040 677 1040 601 c 0
 1040 593 1041 584 1043 575 c 0
 1045 570 1042 567 1037 568 c 0
 975 579 943 625 943 673 c 0
 943 675 943 677 943 679 c 1
 938 675 933 674 929 674 c 0
 915 674 904 689 904 703 c 0xc04720827e0001c00111c904
 904 712 909 722 923 724 c 1
 911 736 905 753 905 771 c 0
 905 786 909 802 915 819 c 0
 916 821 918 824 921 821 c 1
 932 815 941 812 950 812 c 0
 969 812 982 826 982 840 c 0
 982 850 976 861 960 868 c 1
 959 846 937 829 915 829 c 0
 911 829 907 830 903 831 c 1
 771 613 l 2
 772 613 772 613 773 613 c 0
 785 613 795 604 795 591 c 0xc04725827e0001c00003c4a0
 795 585 791 579 786 575 c 1
 890 567 1008 513 1027 431 c 1
 1067 424 1083 398 1084 355 c 1
 1118 343 1135 302 1135 269 c 0
 1135 259 1134 250 1131 242 c 1
 1146 166 1171 104 1219 44 c 0
 1223 39 1226 32 1226 26 c 0
 1226 20 1224 15 1219 12 c 0
 1198 -3 1179 -5 1158 -5 c 0
 1118 -5 1084 1 1060 11 c 1
 1061 9 1061 7 1061 5 c 0
 1061 -6 1050 -16 1039 -16 c 0
 1027 -16 1016 -6 1016 5 c 0
 1016 7 1016 8 1017 10 c 1
 986 -3 924 -6 924 -6 c 1
 908 -6 901 -4 886 5 c 0
 876 10 875 16 876 26 c 1
 886 55 897 108 898 154 c 1
 867 171 851 207 851 243 c 0
 851 258 853 273 859 286 c 1
 837 303 826 328 826 353 c 0
 826 370 832 388 843 404 c 1
 826 431 768 447 729 450 c 1
 729 397 l 1
 747 384 757 367 757 347 c 0
 757 335 753 321 744 306 c 1
 774 288 793 254 793 221 c 0
 793 205 788 189 778 175 c 1
 788 125 809 77 847 31 c 0
 852 26 852 11 842 6 c 0
 821 -5 803 -6 774 -6 c 0
 738 -6 688 4 653 18 c 1
 653 17 653 16 653 15 c 0
 653 2 643 -6 631 -6 c 0
 618 -6 608 2 608 15 c 0
 608 16 608 17 608 18 c 1
 572 4 523 -6 487 -6 c 0
 458 -6 440 -5 419 6 c 0
 409 11 409 26 414 31 c 0
 452 77 473 125 483 175 c 1
 473 189 468 205 468 221 c 0
 468 254 487 288 517 306 c 1
 508 321 504 335 504 347 c 0
 504 367 514 384 532 397 c 1
 532 450 l 1
 493 447 435 431 418 404 c 1
 429 388 435 370 435 353 c 0
 435 328 424 303 402 286 c 1
 408 273 411 258 411 243 c 0
 411 207 394 171 363 154 c 1
 364 108 375 55 385 26 c 1
 386 16 385 10 375 5 c 0
 360 -4 353 -6 337 -6 c 0
 311 -6 276 -3 245 10 c 1
 245 8 245 7 245 6 c 0
 245 -5 233 -15 222 -15 c 0
 211 -15 200 -5 200 6 c 0xc0d725827e2403e212a5d00a
 200 8 200 9 201 11 c 1xc0d725827e8001c00001c0
 177 1 143 -5 103 -5 c 0
 82 -5 63 -3 42 12 c 0
 37 15 35 20 35 26 c 0
 35 32 38 39 42 44 c 0
 90 104 116 166 130 242 c 1
 127 250 126 259 126 269 c 0
 126 302 143 343 177 355 c 1
 178 398 194 424 233 431 c 1
 253 514 371 567 475 575 c 1
 471 579 468 584 468 590 c 0
 468 602 478 612 490 612 c 1
 358 831 l 1
 354 830 350 829 346 829 c 0
 324 829 302 846 301 868 c 1
 286 861 279 850 279 840 c 0
 279 826 292 812 312 812 c 0
 320 812 330 815 341 821 c 1
 343 824 345 821 347 819 c 1
 353 803 356 786 356 772 c 0xc0d725827e4189d00001c0
 356 753 351 737 338 724 c 1
 350 722 357 711 357 700 c 0
 357 687 347 674 333 674 c 0
 328 674 322 676 318 679 c 1
 318 677 318 675 318 673 c 0
 318 625 286 579 224 568 c 0
 219 567 216 570 218 575 c 0
 220 584 221 593 221 601 c 0
 221 677 151 708 140 776 c 0
 138 792 136 808 136 823 c 0
 136 842 139 860 145 878 c 1
 142 877 139 876 136 876 c 0
 123 876 111 886 111 900 c 0
 111 914 122 925 135 926 c 1
 119 944 110 968 110 988 c 0
 110 1000 113 1011 120 1018 c 1
 123 1019 125 1019 128 1018 c 1
 146 1003 175 989 206 989 c 0xc0d725827e0825c00001c0
 248 989 255 1019 311 1019 c 0
 344 1019 372 1010 386 996 c 1
 392 998 398 999 404 999 c 0
 432 999 449 973 449 940 c 0
 449 934 448 928 447 921 c 1
 538 744 l 1
 538 783 l 1
 511 793 500 819 500 844 c 0xc0470000fe0825c44001c0
 500 855 502 866 506 875 c 1
 495 890 491 906 491 920 c 0
 491 952 512 979 546 988 c 1
 539 992 534 1000 534 1009 c 0
 534 1023 546 1034 560 1034 c 0
 573 1034 581 1026 584 1016 c 1
 596 1030 614 1035 631 1035 c 0
 647 1035 664 1030 677 1017 c 1
 680 1026 691 1034 703 1034 c 0
 715 1034 727 1022 727 1009 c 0
 727 1000 722 992 715 988 c 1
 749 979 770 952 770 920 c 0xc0470800fe0001c88049c0
 770 906 766 890 755 875 c 1
 759 866 761 855 761 844 c 0
 761 819 750 793 723 783 c 1
 723 744 l 1
 814 921 l 1
 813 928 812 934 812 940 c 0
 812 973 829 999 857 999 c 0xc0470800fe0001c00111c0
 863 999 869 998 875 996 c 1
 889 1010 917 1019 950 1019 c 0
 1006 1019 1013 989 1055 989 c 0xc04700027e0001c00111c0
 1086 989 1114 1003 1133 1018 c 1
 1136 1019 1138 1019 1141 1018 c 1
 1148 1011 1151 1000 1151 988 c 0
 1151 968 1142 944 1126 926 c 1
 1140 925 1150 914 1150 900 c 0
490 607 m 0
 482 607 473 599 473 590 c 0xc04700007e0001d00001c0
 473 583 478 578 483 575 c 1
 488 576 496 575 499 576 c 1
 501 580 503 581 506 586 c 1
 494 607 l 1
 492 607 491 607 490 607 c 0
EndSplineSet
Validated: 385
EndChar

StartChar: uni0417
Encoding: 1047 1047 51
Width: 718
Flags: HW
HStem: -41.6881 4.67979<516.805 533.958> -32.516 8.82617<288.517 319.327 360.655 410.546> -14.2654 6.85786<197.103 270.975 425.385 489.564 567.608 658.529> -3 8.81339<87.9495 152.817> 0.0789101 45.9211<163.158 245.807> 0.817306 76.8632<514.192 602.526> 15.9121 67.0879<67.4149 173.063> 87.6869 114.313<504.647 555 563.565 597.364> 115.676 10.1844<209.783 258.772> 160.277 10.5509<292.557 322.2> 169.194 5.55139<20.1922 37.3325> 172.005 8.54041<371.5 409.706> 187.533 9.896<211.565 233.484> 210.533 4.96564<22.1705 39.0414> 215 46.3694<500.926 613.811> 273.556 77.7643<467.112 549.055> 283 20G<625.049 646> 292.856 4.36081<198.997 215.25> 375.94 6.63913<366.314 396.269> 472.558 5.40689<245.592 259.649> 511.759 4.65915<244.097 260.384> 582.302 7.37067<363.549 395.411> 590 82.725<489.854 589.993> 683 35<480.989 602.184> 727 61<466.934 613.187> 735.105 5.24872<239.888 258.303> 812.637 5.50775<72.4713 89.9436> 829.423 9.16345<246.176 274.246> 852.196 4.02374<72.9347 85.8189> 853.94 9.53516<297.095 333.028 368.153 404.032> 872 132.018<287.744 340.125 363.596 403.658> 880.619 8.4267<250.514 278.706> 900.315 84.8354<241.62 266.427 416.39 440.399> 903.659 45.0072<117.298 208.851> 958.109 8.70361<124.331 182.571> 993.859 6.84845<244.105 280.553 422.166 432.534> 1012.52 10.0833<296.635 333.54 375.941 405.493> 1039.4 4.98279<344.791 362.499>
VStem: 8.32887 4.22674<183.939 199.502> 25.5651 7.16229<37.5834 131.555> 29.9029 9.03925<234.961 318.235> 42.7778 23.2222<78.4667 81.4387> 49.3999 60.387<150.44 326.375> 59.8289 4.81358<436.881 461.765 826.199 843.862> 76.3419 5.71296<883.341 938.368> 84.4361 8.37634<739.13 807.993> 103.021 56.6158<689.231 841.823> 120.083 51.6978<246.159 340.749> 135 8<577 610.154> 147.031 27.9355<121.821 193.204> 167.885 48.6708<705.863 783.752> 183.103 8.12102<261.818 287.303> 187.356 8.92322<139.72 170.493> 192.969 26.0315<831.715 887.416> 219.159 6.71426<322.663 378.68> 225.008 4.79575<266.274 283.268 317.911 319.142> 234.266 9.21257<196.188 223.44> 234.553 5.49258<482.622 508.503 582.21 632.965 846.539 869.613> 266.311 5.26724<747.927 765.324> 267.942 57.042<2.17543 131.545> 275.029 8.18335<806.071 831.854> 278 62.6212<900.62 977.402> 332.814 68.858<-1.4223 141.731 412.106 555.839> 351 52.9843<887.385 993.048> 426.906 6.41666<689.454 728.708> 431.111 7.33099<753.771 789.681> 434.732 6.83841<309.997 345.646> 442.296 6.27994<211.973 249.424> 448 183.045<295.705 350.883 741.535 787.483> 478 59<625.015 669.362> 502.441 5.6015<-29.0675 -9.667> 542.842 4.51154<-27.5079 -10.4934> 564.414 4.65936<487.491 503.776> 639.704 7.00427<754.625 786.617> 646.75 6.25<324.819 361.579 684.657 718.967> 677.032 6.96844<213.609 260.953> 686.317 6.18127<14.6834 50.8332>
AnchorPoint: "Diacritic" 355 1114 basechar 0
LayerCount: 3
Fore
SplineSet
110 301 m 0xe8003f300e2100000078
 110 286 106 254 106 233 c 0
 106 182 116 118 142 91 c 1
 133 93 123 95 113 95 c 0
 92 93 75 86 66 69 c 1
 63 61 69 57 73 66 c 0
 78 78 98 83 113 83 c 0xe2003f300e4000000078
 162 82 171 48 228 46 c 0
 236 46 237 58 231 59 c 0
 189 63 188 76 167 87 c 1
 154 109 147 135 147 164 c 0xe8003f300e4040000078
 147 195 167 213 186 216 c 0
 199 219 187 220 180 220 c 0
 158 220 133 196 133 163 c 0
 133 161 133 160 133 158 c 1
 121 179 117 205 117 234 c 0
 117 252 120 277 120 293 c 0
 120 315 115 328 106 348 c 0
 102 356 98 358 101 349 c 0
 107 325 110 315 110 301 c 0xe8003f300e2100000078
622 228 m 0
 627 233 623 237 618 234 c 0
 601 221 583 215 559 215 c 0
 537 215 521 221 503 232 c 0
 497 235 495 231 500 227 c 0
 514 214 532 202 555 202 c 1
 553 174 549 148 542 123 c 0
 540 118 549 115 552 122 c 1
 556 138 557 143 560 160 c 1
 564 176 564 186 565 202 c 1xe1023f300e0000000078
 589 203 606 214 622 228 c 0
510 402 m 0
 497 430 469 466 441 486 c 1
 468 507 485 528 500 552 c 0
 503 558 494 563 490 557 c 0
 476 532 459 512 429 490 c 1
 430 481 l 1
 459 464 488 426 501 399 c 0
 504 393 512 397 510 402 c 0
168 728 m 0xe0003f304e0220000078
 168 739 164 772 164 791 c 0
 164 820 170 846 183 868 c 1
 182 862 182 855 182 849 c 0
 183 830 207 808 225 808 c 0
 232 808 240 811 229 812 c 0
 208 816 193 834 193 851 c 0xe0003f304e0004000078
 193 889 215 916 237 921 c 0
 244 923 242 938 233 936 c 0
 208 930 185 904 157 904 c 0
 144 904 128 910 124 920 c 0
 120 928 114 925 118 917 c 0
 125 901 143 894 162 893 c 0
 171 893 182 894 190 896 c 1
 165 869 153 832 153 791 c 0
 153 760 160 726 160 706 c 0
 160 700 159 694 159 685 c 0
 159 677 162 679 164 687 c 0
 167 707 168 716 168 728 c 0xe0003f304e0220000078
607 697 m 0
 612 702 608 705 603 701 c 0
 587 688 563 684 542 683 c 1
 519 683 496 688 480 701 c 0
 475 705 471 702 476 697 c 0
 491 682 509 673 530 673 c 0
 533 673 535 673 537 673 c 1xe0003f300e0000000478
 537 645 526 625 526 625 c 2
 524 617 535 613 538 622 c 1
 538 622 548 644 548 669 c 0
 548 671 548 672 548 673 c 1
 550 673 552 673 554 673 c 0
 574 673 592 682 607 697 c 0
536 827 m 0
 532 846 520 874 502 895 c 1
 485 917 463 936 448 941 c 0xe0003f300e0000000878
 442 943 438 933 445 931 c 0
 458 927 479 910 495 890 c 0
 511 869 522 843 526 825 c 0
 528 818 538 821 536 827 c 0
334 11 m 1
 328 -3 322 -14 306 -14 c 0
 281 -14 268 26 268 65 c 0
 268 93 280 149 307 149 c 0
 323 149 328 139 334 124 c 1
 328 110 325 86 325 64 c 0xe0003f300e0000100078
 325 43 328 23 334 11 c 1
243 0 m 0xe8003f300e0040000078
 199 0 145 16 108 16 c 0
 89 16 72 11 56 -3 c 1
 47 11 43 35 43 61 c 0xf2003f300e4040000078
 43 114 58 177 77 184 c 1
 56 217 49 245 49 273 c 0
 49 326 75 375 76 442 c 1
 133 400 172 302 172 259 c 0xf2003f300e2100000078
 172 254 171 249 170 246 c 1
 195 244 223 233 223 211 c 0
 223 210 223 210 223 209 c 0
 222 209 l 0
 200 209 175 188 175 160 c 0
 175 157 175 153 176 150 c 0
 185 114 204 105 224 105 c 0
 238 105 253 110 264 113 c 1
 259 100 257 81 257 62 c 0
 257 39 260 16 268 4 c 1
 262 1 253 0 243 0 c 0xe8003f300e0040000078
418 143 m 1
 409 130 404 93 404 59 c 0
 404 34 407 10 413 -2 c 1
 411 -11 400 -17 389 -17 c 0
 388 -17 l 0
 342 -17 336 37 334 65 c 1
 334 66 334 67 334 68 c 0
 334 103 349 160 386 160 c 2
 388 160 l 2
 405 160 411 160 418 143 c 1
677 27 m 0
 677 2 648 1 622 1 c 0
 618 1 614 1 610 1 c 0
 580 1 548 6 523 24 c 1
 508 4 464 1 440 1 c 0
 429 1 422 2 422 2 c 1
 418 15 415 38 415 62 c 0
 415 92 419 125 428 142 c 1
 443 143 459 152 464 167 c 1
 468 166 l 1
 468 165 468 165 468 164 c 0
 468 118 506 78 544 78 c 0xe4003f300e0000000078
 588 78 625 111 637 155 c 1
 640 155 l 1
 648 110 677 72 677 27 c 0
545 88 m 0xe102bf300e0000000078
 500 88 475 133 475 182 c 0
 475 185 475 187 475 190 c 1
 466 200 458 215 458 233 c 0
 458 255 468 263 480 275 c 1
 502 266 522 261 542 261 c 0
 581 261 614 278 636 303 c 1
 655 283 666 265 666 238 c 0
 666 236 666 235 666 234 c 1
 664 208 653 188 634 176 c 1
 632 141 593 88 545 88 c 0xe102bf300e0000000078
346 561 m 1
 338 550 332 536 328 520 c 1
 320 538 301 564 290 578 c 0
 281 588 274 596 269 606 c 0
 266 612 264 610 266 605 c 0
 270 596 275 584 285 575 c 1
 295 562 317 517 325 497 c 1
 324 491 324 484 324 477 c 1
 318 455 290 428 279 416 c 0
 270 406 264 396 258 386 c 0
 254 381 257 379 261 384 c 1
 266 393 275 402 285 412 c 0
 295 423 316 438 326 453 c 1
 329 433 335 417 344 407 c 1
 304 383 260 381 235 335 c 1
 235 339 234 344 234 348 c 0
 234 413 274 472 291 494 c 1
 279 513 249 563 249 612 c 0
 249 625 252 638 257 650 c 1
 275 614 316 596 346 561 c 1
385 392 m 0
 352 392 333 434 333 483 c 0
 333 523 347 576 381 576 c 0
 398 576 403 565 410 551 c 1
 404 539 402 518 402 496 c 0xe0003f300e0000020078
 402 465 407 432 415 417 c 1
 408 403 402 392 385 392 c 0
637 348 m 1
 637 347 637 345 637 344 c 0
 637 300 587 274 536 274 c 0
 503 274 471 286 454 309 c 0
 451 314 450 321 450 329 c 0
 450 338 452 347 457 353 c 1
 462 352 468 351 474 351 c 0xe0013f300e0000000078
 513 351 567 372 581 407 c 1
 606 402 634 379 637 348 c 1
276 983 m 1
 270 972 266 958 266 944 c 0
 266 929 270 913 275 899 c 1
 271 900 267 900 264 900 c 0
 240 900 219 882 219 860 c 0
 219 859 219 859 219 858 c 1xe0003f308e0204000078
 221 835 240 820 261 820 c 0
 262 820 264 820 265 820 c 1
 265 819 l 0
 265 797 238 786 214 784 c 1
 216 779 217 771 217 762 c 0
 217 718 196 637 151 596 c 1
 144 665 103 716 103 773 c 0
 103 795 109 818 125 843 c 1
 107 850 92 884 92 918 c 0
 92 934 96 950 104 962 c 1
 117 951 130 949 145 949 c 0xe0003f304e0220000078
 153 949 161 949 169 950 c 0
 198 953 241 985 266 985 c 0xe0003f308e0220000078
 270 985 273 984 276 983 c 1
595 603 m 1
 582 568 548 530 509 501 c 0
 506 499 504 491 509 487 c 0
 538 469 563 442 574 412 c 1
 560 377 514 359 472 359 c 0
 467 359 461 359 455 360 c 1
 448 381 437 403 422 417 c 1
 414 427 410 460 410 491 c 0
 410 520 414 547 421 551 c 0
 427 555 453 585 469 638 c 0
 470 638 470 638 471 638 c 0
 476 596 505 581 532 581 c 0
 553 581 575 589 592 604 c 1
 595 603 l 1
627 742 m 1
 635 729 639 715 639 700 c 0
 639 680 631 661 612 648 c 1
 605 612 566 590 532 590 c 0
 499 590 479 617 478 649 c 1xe0003f300e0000000478
 454 665 445 684 443 710 c 0
 443 721 448 731 454 741 c 1
 476 726 508 718 542 718 c 0
 575 718 606 727 627 742 c 1
351 978 m 1xe0003f320e0000050078
 344 965 341 952 341 939 c 0
 341 926 344 913 349 900 c 1
 342 885 331 872 315 872 c 0
 286 872 279 916 278 941 c 1
 278 942 278 944 278 945 c 0
 278 969 292 1004 314 1004 c 0
 331 1004 344 992 351 978 c 1xe0003f320e0000050078
612 742 m 0
 591 732 566 727 542 727 c 0
 517 727 490 732 469 742 c 0
 459 747 450 754 448 774 c 1
 448 788 457 803 474 806 c 1
 495 791 514 788 542 788 c 0
 564 788 585 793 599 803 c 0
 601 803 602 804 604 804 c 0
 619 804 631 786 631 774 c 0xe0003fb00e0000000878
 631 754 622 747 612 742 c 0
351 940 m 0xe0003f300e0000010078
 351 967 363 1005 390 1005 c 0
 400 1005 410 997 412 988 c 1
 407 974 404 958 404 943 c 0
 404 926 407 909 414 896 c 1
 406 881 400 872 384 872 c 0
 367 872 351 922 351 940 c 0xe0003f300e0000010078
594 812 m 1
 575 801 569 799 540 799 c 0
 514 799 500 802 476 815 c 1
 467 858 449 894 424 898 c 1
 417 914 414 928 414 941.5 c 0
 414 955 417 968 422 985 c 1
 500 969 563 900 594 812 c 1
207 293 m 0xe0007f300e0011000078
 198 293 193 286 191 279 c 1
 191 275 191 271 191 267 c 1
 193 260 201 260 208 257 c 1
 218 257 225 266 225 274 c 0
 225 285 216 293 207 293 c 0xe0007f300e0011000078
613 -9 m 0
 648 -9 686 -5 686 29 c 0
 686 69 654 105 645 167 c 0
 645 169 646 170 646 171 c 0
 661 184 677 207 677 237 c 0
 677 277 655 301 641 311 c 0
 639 312 639 313 640 315 c 0
 644 323 647 333 647 343 c 0
 647 385 607 414 585 416 c 0
 583 416 582 417 582 417 c 1
 572 438 559 457 542 474 c 1
 535 476 531 480 528 486 c 1
 524 489 520 492 516 495 c 1
 521 499 525 501 528 507 c 0
 531 513 536 516 542 517 c 1
 578 550 605 592 617 639 c 0
 617 641 618 643 620 645 c 0
 636 657 647 678 647 702 c 0
 647 718 643 734 633 749 c 1
 638 755 640 763 640 770 c 0
 640 791 623 812 606 812 c 0
 605 812 604 812 603 812 c 1
 573 899 511 975 419 995 c 1
 412 1006 401 1012 389 1012 c 0
 378 1012 366 1006 359 993 c 0
 357 990 354 990 352 993 c 0
 343 1003 329 1013 314 1013 c 0
 303 1013 291 1007 282 993 c 1
 277 994 273 994 268 994 c 0
 221 994 203 962 167 959 c 0
 162 958 156 958 150 958 c 0
 133 958 116 961 107 974 c 1
 89 965 82 938 82 912 c 0
 82 882 91 851 106 842 c 0
 107 841 108 839 107 837 c 0
 97 814 93 793 93 774 c 0
 93 705 143 653 143 581 c 0
 143 580 143 578 143 577 c 1
 194 613 227 698 227 767 c 0
 227 769 227 771 227 773 c 0
 227 775 228 776 231 776 c 0
 256 779 275 802 275 823 c 0
 275 826 275 829 274 832 c 1
 269 830 265 829 260 829 c 0
 243 829 231 843 231 858 c 0
 231 875 247 889 266 889 c 0
 271 889 277 888 282 886 c 1
 287 872 301 863 315 863 c 0
 328 863 342 871 351 886 c 0
 354 890 357 890 358 885 c 0
 362 869 374 861 385 861 c 0
 397 861 410 869 417 885 c 0
 419 888 420 888 422 888 c 0
 443 885 457 853 465 813 c 1
 450 810 438 790 438 771 c 0xf0d83f353f0c80094078
 438 763 441 754 446 747 c 1
 437 735 433 722 433 709 c 0
 433 685 447 663 464 650 c 1
 464 646 l 1
 457 616 438 578 415 559 c 1
 408 574 394 582 380 582 c 0
 369 582 358 578 349 568 c 1
 322 601 282 619 259 663 c 0
 259 664 255 663 254 661 c 0
 244 645 240 627 240 609 c 0
 240 569 260 526 280 495 c 0
 280 494 280 492 280 491 c 0
 250 453 226 392 226 348 c 0
 226 337 227 328 230 320 c 1
 230 320 232 316 233 318 c 0
 267 374 309 375 349 400 c 1
 358 388 370 383 381 383 c 0
 397 383 412 393 419 407 c 1
 429 396 436 383 441 373 c 0
 444 367 445 360 448 356 c 0
 448 355 448 354 448 353 c 0xf0d83f353e0002408878
 443 345 442 336 442 328 c 0
 442 308 455 290 469 282 c 0
 472 281 472 280 470 277 c 1
 461 270 449 253 449 232 c 0
 449 213 456 196 464 187 c 0
 465 187 466 186 465 185 c 0
 458 164 448 155 427 152 c 0
 424 152 423 152 422 155 c 0
 416 167 405 172 392 172 c 0
 372 172 349 159 343 139 c 0
 342 134 338 135 336 138 c 0
 329 152 319 160 308 160 c 0
 295 160 281 150 271 126 c 1
 260 121 244 116 229 116 c 0
 210 116 187 127 187 157 c 0xf0d83f353e0008003078
 187 178 204 197 224 197 c 0
 227 197 230 197 233 196 c 1
 234 199 234 202 234 205 c 0
 234 227 213 251 188 254 c 0
 185 254 183 255 183 258 c 0
 183 260 183 261 183 263 c 0
 183 335 122 424 66 462 c 1
 66 457 67 452 67 447 c 0
 67 385 39 335 39 274 c 0xf0d83f353ec010800078
 39 249 44 221 58 190 c 0
 59 187 58 186 56 186 c 1
 42 175 33 127 33 81 c 0
 33 37 41 -5 59 -15 c 1
 69 -0 91 6 110 6 c 0xf0d83f353f0000000078
 151 6 192 -7 246 -7 c 0
 255 -7 264 -7 274 -6 c 1
 284 -19 294 -24 304 -24 c 0
 316 -24 328 -15 336 -4 c 0
 338 -1 341 -1 343 -4 c 0
 350 -18 369 -25 386 -25 c 0
 403 -25 418 -19 425 -6 c 1
 431 -7 441 -8 452 -8 c 0
 473 -8 504 -3 525 6 c 1
 558 -5 587 -9 613 -9 c 0
249 740 m 0xe0003f700e0000200078
 257 740 266 746 266 756 c 0
 266 764 260 774 250 774 c 1
 244 771 237 771 234 766 c 1
 234 761 234 755 234 750 c 1
 237 743 243 740 249 740 c 0xe0003f700e0000200078
548 478 m 1
 558 478 564 487 564 496 c 0xe0003f300e00000000f8
 564 503 558 513 547 513 c 1
 542 508 536 503 530 499 c 1
 530 497 530 495 530 494 c 1
 537 489 543 483 548 478 c 1
692 30 m 0
 692 -8 657 -15 616 -15 c 0
 594 -15 570 -13 543 -6 c 1
 546 -10 547 -14 547 -19 c 0
 547 -30 538 -42 525 -42 c 0
 514 -42 502 -31 502 -18 c 0
 502 -15 503 -12 505 -8 c 1
 486 -13 468 -15 454 -15 c 0
 442 -15 433 -14 428 -13 c 1
 422 -26 405 -32 386 -32 c 0
 368 -32 348 -26 339 -13 c 1
 330 -24 317 -33 304 -33 c 0
 293 -33 280 -27 269 -12 c 1
 256 -14 244 -14 231 -14 c 0
 190 -14 153 -7 122 -3 c 1
 102 -3 75 -6 65 -24 c 0
 64 -26 63 -26 60 -24 c 0
 36 -16 26 35 26 86 c 0xf0003f793f1c802403f8
 26 118 30 150 37 171 c 1
 35 170 32 169 30 169 c 0
 17 169 8 182 8 194 c 0
 8 205 17 215 29 215 c 0
 32 215 36 215 40 212 c 1
 33 235 30 257 30 277 c 0
 30 341 59 395 59 466 c 0
 59 468 59 469 59 470 c 0
 59 474 61 476 65 474 c 0
 120 440 180 360 190 289 c 1
 194 294 201 297 207 297 c 0
 218 297 230 289 230 275 c 0
 230 265 224 256 214 253 c 1
 232 241 243 222 243 203 c 0xf0247f793e8001800078
 243 198 242 192 240 187 c 1
 238 186 235 184 233 186 c 1
 231 187 228 188 225 188 c 0
 211 188 196 171 196 156 c 0
 196 134 216 126 226 126 c 0
 239 126 253 132 264 132 c 0
 265 132 265 132 266 132 c 0
 276 160 291 171 305 171 c 0
 317 171 329 163 338 150 c 1
 346 168 370 181 392 181 c 0
 407 181 421 174 428 160 c 1
 441 160 453 167 459 186 c 1
 451 195 442 213 442 232 c 0
 442 253 454 272 463 280 c 1
 449 289 435 307 435 328 c 0
 435 336 437 345 442 354 c 1
 439 359 438 366 436 369 c 0
 430 379 427 388 420 396 c 1
 412 384 397 376 381 376 c 0
 369 376 357 381 346 392 c 1
 310 372 270 367 238 313 c 1
 234 310 225 314 223 318 c 0
 220 326 219 336 219 346 c 0
 219 384 236 436 260 474 c 1
 257 473 254 473 252 473 c 0
 240 473 233 484 233 496 c 0
 233 509 243 516 254 516 c 0
 256 516 258 516 260 515 c 1
 246 545 235 577 235 609 c 0
 235 628 239 647 249 664 c 0
 252 669 262 669 264 665 c 0
 286 622 322 607 349 577 c 1
 357 586 368 590 378 590 c 0
 394 590 409 581 417 568 c 1
 436 586 451 621 458 648 c 1
 438 664 427 685 427 708 c 0xe0dc7f300e000a40b078
 427 721 430 734 438 747 c 1
 433 754 431 763 431 772 c 0
 431 789 440 808 456 817 c 1
 449 851 438 874 424 879 c 1
 415 861 400 852 386 852 c 0
 373 852 360 860 354 874 c 1
 343 860 329 854 315 854 c 0
 299 854 285 863 278 880 c 1xe0dc7f340e0000044078
 275 880 272 881 270 881 c 0
 252 881 239 873 239 858 c 0
 239 847 248 839 260 839 c 0
 265 839 278 846 280 839 c 0
 282 834 283 829 283 824 c 0xe0dc7f350e0000080078
 283 807 273 788 256 777 c 1
 265 774 272 766 272 757 c 0
 272 744 259 735 248 735 c 0
 243 735 238 737 234 741 c 1
 228 674 193 597 141 565 c 0
 138 563 135 565 135 570 c 0
 135 571 135 573 135 574 c 0
 135 648 84 704 84 775 c 0
 84 788 86 801 90 815 c 1
 87 813 83 813 81 813 c 0
 68 813 60 825 60 836 c 0
 60 849 70 856 81 856 c 0
 83 856 84 856 86 856 c 1
 80 871 76 890 76 910 c 0
 76 943 86 975 108 983 c 0
 110 984 112 984 112 982 c 0
 120 968 136 967 152 967 c 0
 157 967 162 967 167 967 c 0
 203 972 219 1001 265 1001 c 0
 269 1001 273 1000 278 1000 c 1xe0003f793e1c80240078
 289 1016 302 1023 315 1023 c 0
 321 1023 328 1021 334 1019 c 1
 334 1021 334 1022 334 1024 c 0
 334 1036 343 1044 354 1044 c 0
 368 1044 376 1034 376 1023 c 0
 376 1021 376 1020 376 1019 c 1
 380 1020 385 1021 389 1021 c 0
 403 1021 417 1014 424 1001 c 1
 516 980 577 907 608 820 c 1
 631 815 647 792 647 771 c 0
 647 763 645 755 640 748 c 1
 648 732 652 716 652 701 c 0
 652 677 641 655 622 641 c 1
 611 595 585 551 551 517 c 1
 564 516 569 507 569 498 c 0
 569 488 562 477 552 474 c 1
 567 458 577 440 586 422 c 1
 608 419 649 391 653 353 c 1
 653 340 652 326 646 315 c 1
 662 303 684 276 684 234 c 1
 683 204 667 181 651 166 c 1
 662 106 692 70 692 30 c 0
370 1016 m 1
 372 1019 372 1021 372 1023 c 0
 372 1032 362 1039 353 1039 c 0
 344 1039 338 1033 338 1024 c 0
 338 1022 338 1019 340 1016 c 1
 345 1013 349 1010 353 1006 c 1
 355 1006 357 1006 358 1006 c 1
 362 1011 366 1014 370 1016 c 1
98 837 m 1
 93 842 91 852 80 852 c 0
 70 852 65 843 65 834 c 0
 65 825 73 818 82 818 c 0
 85 818 89 819 92 822 c 1
 94 827 96 832 98 837 c 1
252 512 m 0
 244 512 237 506 237 495 c 0
 237 486 245 478 254 478 c 0
 258 478 261 479 265 482 c 1
 267 484 269 487 271 490 c 1
 274 503 262 512 252 512 c 0
48 192 m 1
 44 201 43 211 31 211 c 0
 19 211 13 200 13 190 c 0
 13 180 22 175 30 175 c 0xe0243f300e0000000078
 34 175 38 176 41 178 c 1
 43 183 48 187 48 192 c 1
525 -37 m 0
 537 -37 543 -27 543 -19 c 0
 543 -10 536 -2 526 -1 c 1
 522 -3 518 -4 514 -5 c 1
 510 -10 508 -15 508 -19 c 0xe0003f300e0000000378
 508 -29 515 -37 525 -37 c 0
EndSplineSet
Validated: 1
EndChar

StartChar: uni0418
Encoding: 1048 1048 52
Width: 773
Flags: HW
HStem: -14 5<197.466 213.299 559.47 575.031> -5 7<51.9586 141.171 266.592 358.881 414.414 504.48 629.395 721.253> 402.913 84.0872<162.459 199 210 247.163 524.819 561 572 610.088> 496 42.032<136.477 267.576 499.041 629.471> 550.426 74.4269<134.642 281.124 470.308 643.11> 569 71.6159<109.852 208.461> 983.891 3.6391<56.3423 104.931 304.272 353.547 418.91 467.945 667.185 715.772> 992 6<194.105 211.831 556.624 573.821>
VStem: 33.2588 8.25626<8.22491 23.5351 968.147 977.605> 71.7413 7.03394<498.685 537.778> 120 6<301.688 447.908 653.526 726.123> 138.057 60.9429<181.031 348 674 834.924> 181 5<970.771 982.994> 186 5<-3.06827 7.44162> 208 63<186.642 348 674 840.444> 218 5<-4.29674 7.14439 969.144 985.373> 283 8<291.532 362 653.063 715.202> 315.645 7.73837<588.159 624.134> 330.41 6.58859<503.104 537.465> 368.685 7.99643<8.22252 23.2138 968.234 977.487> 395.739 7.9921<8.71727 23.5523 967.538 977.343> 482 7<296.992 448.529 655 731.506> 501 60<185.218 348 674 834.924> 543.888 5.11182<970.353 983.594> 549 5<-3.6559 7.67091> 571 63<186.642 348 674 840.444> 581.078 4.92151<-2.60938 6.9798 969.345 983.689> 647 6<296.992 447.86 653.447 726.123> 678.344 7.43127<588.778 624.015> 693.467 7.34589<496.976 538.429> 730.716 8.45074<8.04152 23.416 968.637 977.571>
DStem2: 336 509 320 483 0.709202 0.705005<0 206.474>
AnchorPoint: "Diacritic" 396 1114 basechar 0
LayerCount: 3
Fore
SplineSet
291 655 m 1xf3e9fc1e
 309 645 323 629 323 607 c 0
 323 592 318 581 309 571 c 1
 326 561 337 543 337 521 c 0
 337 517 337 513 336 509 c 1
 482 655 l 1
 482 783 462 871 400 967 c 0
 399 969 398 972 398 973 c 0
 398 983 416 988 440 988 c 0
 472 988 515 981 545 970 c 1
 544 973 544 975 544 977 c 0xf3e9fd1e
 544 988 553 998 565 998 c 0
 576 998 586 988 586 977 c 0
 586 974 585 972 584 969 c 1
 615 980 660 988 694 988 c 0
 719 988 736 983 736 974 c 0
 736 972 736 970 734 967 c 0
 674 871 653 783 653 655 c 1
 672 644 686 629 686 604 c 0
 686 591 680 580 672 571 c 1
 690 560 701 541 701 515 c 0
 701 491 689 465 653 447 c 1
 653 343 l 2
 653 242 704 75 733 28 c 0
 736 24 739 19 739 14 c 0
 739 4 729 -5 689 -5 c 0
 651 -5 613 -1 586 7 c 1
 586 6 586 5 586 4 c 0
 586 -5 577 -14 569 -14 c 0
 568 -14 l 0
 558 -14 549 -5 549 5 c 0
 549 6 549 7 549 8 c 1
 523 -1 486 -5 447 -5 c 0
 405 -5 396 5 396 15 c 0
 396 20 398 24 400 28 c 0
 430 75 482 242 482 343 c 2
 482 447 l 1
 452 463 437 489 436 508 c 1
 291 362 l 1
 291 343 l 2
 291 242 341 75 371 28 c 0
 374 24 377 19 377 14 c 0
 377 4 366 -5 326 -5 c 0
 287 -5 249 -1 223 7 c 1
 223 6 223 5 223 4 c 0
 223 -6 216 -14 206 -14 c 0
 196 -14 186 -6 186 4 c 0xf3e5fcbe
 186 5 186 6 186 7 c 1
 160 -1 122 -5 84 -5 c 0
 43 -5 33 5 33 15 c 0
 33 20 36 24 38 28 c 0
 67 75 120 242 120 343 c 2
 120 447 l 1
 82 466 72 494 72 519 c 0
 72 543 83 561 100 571 c 1
 91 580 87 592 87 606 c 0
 87 629 102 645 120 655 c 1
 120 783 99 871 38 967 c 0
 37 969 36 972 36 973 c 0
 36 983 54 988 78 988 c 0
 109 988 152 981 181 971 c 1
 181 972 181 973 181 975 c 0
 181 987 190 998 202 998 c 0
 215 998 223 989 223 977 c 0
 223 974 223 972 222 969 c 1
 252 980 298 988 332 988 c 0
 356 988 374 983 374 974 c 0
 374 972 374 969 372 967 c 0
 312 871 291 783 291 655 c 1xf3e9fc1e
667 607 m 0
 667 565 616 550 574 550 c 0
 543 550 512 557 492 569 c 0xf7f2fc1e
 491 570 490 570 488 570 c 0
 482 570 472 564 462 554 c 2
 271 364 l 1
 271 343 l 2
 271 231 319 69 350 18 c 1
 340 16 328 16 317 16 c 0
 275 16 229 25 206 45 c 1
 181 26 133 15 91 15 c 0
 79 15 68 15 58 17 c 1
 88 65 138 224 138 336 c 0
 138 339 138 341 138 343 c 2
 138 444 l 1
 151 411 171 392 205 392 c 0
 229 392 248 402 261 422 c 1
 285 436 l 1
 480 632 l 2
 489 640 495 644 505 640 c 0
 530 630 552 625 572 625 c 0xfbf2fc1e
 592 625 610 629 632 639 c 0
 633 640 635 640 636 640 c 0
 648 640 667 625 667 607 c 0
316 606 m 0
 316 627 302 644 285 651 c 1
 285 783 304 868 365 966 c 0
 367 968 367 970 367 972 c 0
 367 980 353 984 332 984 c 0
 298 984 247 974 218 961 c 1
 216 959 205 952 201 955 c 1
 194 956 188 959 185 963 c 1
 155 975 109 984 77 984 c 0
 57 984 43 980 43 972 c 0
 43 970 44 968 45 966 c 0
 106 868 126 783 126 651 c 1
 111 645 96 629 94 613 c 1
 94 612 94 611 94 609 c 0
 94 594 100 581 107 573 c 0
 110 570 109 568 106 567 c 0
 93 560 79 541 79 520 c 0
 79 497 91 470 126 452 c 1
 127 343 l 2
 127 240 74 72 45 23 c 0
 43 21 42 18 42 15 c 0
 42 8 50 2 84 2 c 0
 126 2 168 7 192 17 c 0
 194 19 206 25 207 23 c 1
 232 7 280 2 326 2 c 0
 360 2 369 8 369 15 c 0
 369 17 367 20 365 23 c 0
 335 72 283 240 283 343 c 2
 283 365 l 1
 442 524 l 1
 442 522 442 519 442 517 c 0
 442 494 455 469 489 452 c 1
 490 343 l 2
 490 342 490 341 490 340 c 0
 490 237 437 72 407 23 c 0
 405 21 404 18 404 15 c 0
 404 8 412 2 447 2 c 0
 488 2 529 7 553 16 c 1
 555 18 569 25 570 23 c 1
 595 7 642 2 689 2 c 0
 722 2 731 8 731 14 c 0
 731 17 729 20 727 23 c 0
 697 72 646 240 646 343 c 2
 647 452 l 1
 681 469 693 495 693 518 c 0
 693 540 681 559 666 567 c 0
 663 568 662 570 664 573 c 0
 672 581 678 593 678 607 c 0
 678 628 664 644 647 651 c 1
 647 783 667 868 727 966 c 0
 729 968 729 970 729 972 c 0
 729 980 715 984 695 984 c 0
 659 984 606 973 578 960 c 0
 576 958 567 952 564 955 c 1
 558 955 553 958 549 963 c 1
 520 975 472 984 440 984 c 0
 419 984 405 980 405 972 c 0
 405 970 406 968 407 966 c 0
 469 868 489 783 489 651 c 1
 320 483 l 1
 328 495 330 508 330 518 c 0
 330 540 319 558 303 567 c 0
 301 568 299 570 302 573 c 0
 309 581 316 592 316 606 c 0
485 45 m 0
 496 52 486 68 475 60 c 0
 471 58 470 52 473 48 c 0
 475 44 480 43 485 45 c 0
662 56 m 0
 659 61 652 61 648 59 c 1
 640 51 648 40 658 44 c 0
 663 47 664 52 662 56 c 0
621 72 m 1
 613 85 608 95 600 104 c 1
 589 124 571 161 571 198 c 2
 571 348 l 2
 571 355 561 355 561 348 c 2
 561 199 l 2xf3e0fe5e
 561 162 541 124 532 106 c 0
 524 92 519 82 511 71 c 1
 523 85 529 95 536 104 c 0
 543 114 559 133 566 157 c 1
 573 133 587 116 594 104 c 1
 602 95 610 82 621 72 c 1
646 516 m 0
 651 520 646 527 641 524 c 0
 619 509 597 496 567 496 c 0
 535 496 512 509 490 522 c 0
 484 526 477 515 484 512 c 1
 505 498 530 488 561 487 c 1
 562 429 l 2
 562 422 572 422 572 429 c 2
 572 487 l 1
 602 488 625 499 646 516 c 0
627 925 m 1
 614 917 602 903 594 894 c 1
 587 882 573 865 566 841 c 1
 559 865 543 884 536 894 c 0
 529 905 522 916 506 927 c 1
 518 916 523 906 532 894 c 1
 543 875 561 836 561 799 c 2
 561 674 l 2
 561 666 571 666 571 674 c 2
 571 800 l 2
 571 837 588 875 600 894 c 0
 608 905 615 916 627 925 c 1
466 932 m 0
 477 924 488 941 476 946 c 1
 465 953 458 937 466 932 c 0
657 933 m 1
 668 925 678 941 667 948 c 1
 656 952 647 938 657 933 c 1
712 18 m 1
 702 16 691 16 679 16 c 0
 638 16 592 25 569 45 c 1
 543 26 496 15 453 15 c 0
 442 15 431 15 421 17 c 1
 452 66 501 227 501 340 c 0
 501 341 501 342 501 343 c 1
 501 444 l 1
 513 411 534 392 567 392 c 0
 599 392 619 408 634 442 c 1
 634 343 l 1
 636 231 682 69 712 18 c 1
683 519 m 0
 682 484 648 463 624 449 c 1
 615 425 596 403 567 403 c 0
 539 403 518 425 512 450 c 1
 485 463 455 484 454 516 c 0
 454 531 468 545 476 552 c 0
 481 556 487 558 495 556 c 1
 522 544 546 537 572 537 c 0
 597 537 622 543 650 556 c 0
 655 558 662 557 666 553 c 0
 677 543 683 533 683 519 c 0
714 971 m 1
 666 890 635 822 635 653 c 1
 611 643 596 638 570 638 c 0
 543 638 525 644 501 655 c 1
 501 826 458 910 420 972 c 1
 423 972 426 972 428 972 c 0
 483 972 545 954 566 935 c 1
 587 953 650 971 709 971 c 0
 711 971 712 971 714 971 c 1
578 967 m 1
 580 970 581 973 581 976 c 0
 581 984 573 992 565 992 c 0
 556 992 549 983 549 975 c 0xf3e0fd3e
 549 973 550 970 551 968 c 1
 557 966 562 964 566 961 c 1
 569 963 573 965 578 967 c 1
122 45 m 1
 133 52 123 69 112 60 c 0
 104 54 111 41 122 45 c 1
299 56 m 1
 295 67 277 56 283 47 c 0
 290 38 306 46 299 56 c 1
259 72 m 1
 250 85 245 95 238 104 c 1
 227 124 208 161 208 198 c 2
 208 348 l 2
 208 355 199 355 199 348 c 2
 199 199 l 2xf3f2fc1e
 199 162 179 124 169 106 c 0
 162 92 157 82 148 71 c 1
 160 85 167 95 174 104 c 1
 180 114 196 133 204 157 c 1
 211 133 224 116 232 104 c 0
 239 95 248 82 259 72 c 1
283 516 m 0
 288 520 283 527 279 524 c 0
 256 509 234 496 205 496 c 0
 173 496 149 509 127 522 c 0
 121 526 115 515 121 512 c 0
 142 498 168 488 199 487 c 1
 200 429 l 2
 200 422 210 422 210 429 c 2
 210 487 l 1
 239 488 262 499 283 516 c 0
265 925 m 1
 251 917 239 903 232 894 c 0
 224 882 211 865 204 841 c 1
 196 865 180 884 174 894 c 0
 167 905 159 916 143 927 c 1
 156 916 160 906 169 894 c 1
 180 875 199 836 199 799 c 2
 199 674 l 2
 199 666 208 666 208 674 c 2
 208 800 l 2
 208 837 226 875 238 894 c 0
 245 905 253 916 265 925 c 1
104 932 m 1
 113 923 126 941 114 946 c 1
 103 953 94 937 104 932 c 1
294 933 m 0
 305 925 315 941 304 948 c 1
 294 952 286 939 294 933 c 0
320 519 m 0
 319 484 294 457 270 442 c 1
 251 434 235 403 208 403 c 0
 177 403 156 426 149 450 c 1
 122 463 93 484 92 516 c 0
 92 535 100 558 119 558 c 0
 121 558 123 558 125 557 c 0
 152 545 180 538 209 538 c 0
 234 538 260 543 287 556 c 0
 292 558 299 557 303 553 c 0
 314 543 320 533 320 519 c 0
304 607 m 0
 304 566 257 550 210 550 c 0xfbe0fc1e
 179 550 147 558 130 569 c 0
 119 576 106 589 106 607 c 0
 106 626 127 641 138 641 c 0xf7e0fc1e
 140 641 141 640 142 640 c 0
 167 630 189 625 209 625 c 0xfbe0fc1e
 229 625 248 629 270 639 c 0
 271 640 273 640 274 640 c 0
 286 640 304 625 304 607 c 0
351 971 m 1
 303 890 272 822 272 653 c 1
 249 643 233 638 207 638 c 0
 180 638 163 644 138 655 c 1
 138 826 95 910 57 972 c 1
 60 972 63 972 66 972 c 0
 121 972 182 954 204 935 c 1
 225 953 288 971 346 971 c 0
 348 971 349 971 351 971 c 1
218 977 m 0xf3e9fc1e
 218 986 211 992 202 992 c 0
 194 992 186 983 186 975 c 0
 186 973 187 970 188 968 c 1
 194 966 199 964 204 961 c 1
 207 963 211 964 214 966 c 1
 217 969 218 973 218 977 c 0xf3e9fc1e
556 10 m 1
 555 8 554 6 554 4 c 0xf3e0fc9e
 554 -3 560 -9 567 -9 c 0
 568 -9 568 -9 569 -9 c 0
 575 -9 581 -2 581 4 c 0
 581 6 581 7 580 9 c 1
 575 11 570 13 566 15 c 1
 563 13 559 12 556 10 c 1
192 10 m 1
 191 8 191 6 191 4 c 0
 191 -4 199 -9 206 -9 c 0
 213 -9 218 -4 218 4 c 0xf3e5fc1e
 218 6 218 8 217 9 c 1
 212 11 208 13 204 15 c 1
 201 13 197 11 192 10 c 1
EndSplineSet
Validated: 1
LCarets2: 1 0 
EndChar

